<svg width="62" height="52" viewBox="0 0 62 52" fill="none" xmlns="http://www.w3.org/2000/svg">
<path d="M51.8424 26.5L49.4674 32.68C49.4308 32.7742 49.3666 32.8552 49.2831 32.9123C49.1997 32.9694 49.101 33 48.9999 33H48.9924C48.8902 32.9987 48.7908 32.9662 48.7077 32.9068C48.6245 32.8473 48.5616 32.7638 48.5274 32.6675L44.4324 21.06L42.7024 24.715C42.6613 24.8001 42.597 24.872 42.517 24.9224C42.437 24.9728 42.3444 24.9997 42.2499 25H40.7774L38.4249 28.765C38.3769 28.8439 38.3075 28.9077 38.2247 28.9488C38.142 28.99 38.0493 29.0068 37.9574 28.9975C37.8654 28.9901 37.7774 28.9572 37.7032 28.9024C37.629 28.8476 37.5715 28.7732 37.5374 28.6875L32.4674 16.245L28.9524 23.7125C28.9118 23.7983 28.8478 23.8708 28.7677 23.9217C28.6876 23.9725 28.5948 23.9997 28.4999 24H26.9374L23.4499 31.2175C23.4102 31.2984 23.3497 31.3672 23.2746 31.4169C23.1994 31.4666 23.1123 31.4952 23.0224 31.5C22.9325 31.504 22.8431 31.4835 22.7639 31.4409C22.6847 31.3982 22.6185 31.3348 22.5724 31.2575L19.7174 26.5H16.9999C16.9138 26.4998 16.8292 26.4774 16.7543 26.4349C16.6794 26.3924 16.6167 26.3313 16.5724 26.2575L13.9949 21.965L11.3649 26.26C11.3202 26.3333 11.2574 26.394 11.1826 26.436C11.1077 26.478 11.0233 26.5001 10.9374 26.5H7.50488C7.63171 32.6473 10.1628 38.5001 14.5551 42.8028C18.9475 47.1054 24.8512 49.5153 30.9999 49.5153C37.1485 49.5153 43.0523 47.1054 47.4446 42.8028C51.837 38.5001 54.368 32.6473 54.4949 26.5H51.8424ZM44.4999 35.5C44.4999 35.3674 44.5526 35.2402 44.6463 35.1464C44.7401 35.0527 44.8673 35 44.9999 35C45.1325 35 45.2597 35.0527 45.3534 35.1464C45.4472 35.2402 45.4999 35.3674 45.4999 35.5V39.5C45.4999 39.6326 45.4472 39.7598 45.3534 39.8535C45.2597 39.9473 45.1325 40 44.9999 40C44.8673 40 44.7401 39.9473 44.6463 39.8535C44.5526 39.7598 44.4999 39.6326 44.4999 39.5V35.5ZM40.9999 37.5C40.9999 37.3674 41.0526 37.2402 41.1463 37.1464C41.2401 37.0527 41.3673 37 41.4999 37C41.6325 37 41.7597 37.0527 41.8534 37.1464C41.9472 37.2402 41.9999 37.3674 41.9999 37.5V39.5C41.9999 39.6326 41.9472 39.7598 41.8534 39.8535C41.7597 39.9473 41.6325 40 41.4999 40C41.3673 40 41.2401 39.9473 41.1463 39.8535C41.0526 39.7598 40.9999 39.6326 40.9999 39.5V37.5ZM37.4999 35.5C37.4999 35.3674 37.5526 35.2402 37.6463 35.1464C37.7401 35.0527 37.8673 35 37.9999 35C38.1325 35 38.2597 35.0527 38.3534 35.1464C38.4472 35.2402 38.4999 35.3674 38.4999 35.5V39.5C38.4999 39.6326 38.4472 39.7598 38.3534 39.8535C38.2597 39.9473 38.1325 40 37.9999 40C37.8673 40 37.7401 39.9473 37.6463 39.8535C37.5526 39.7598 37.4999 39.6326 37.4999 39.5V35.5ZM33.9999 37.5C33.9999 37.3674 34.0526 37.2402 34.1463 37.1464C34.2401 37.0527 34.3673 37 34.4999 37C34.6325 37 34.7597 37.0527 34.8534 37.1464C34.9472 37.2402 34.9999 37.3674 34.9999 37.5V39.5C34.9999 39.6326 34.9472 39.7598 34.8534 39.8535C34.7597 39.9473 34.6325 40 34.4999 40C34.3673 40 34.2401 39.9473 34.1463 39.8535C34.0526 39.7598 33.9999 39.6326 33.9999 39.5V37.5ZM30.4999 35.5C30.4999 35.3674 30.5526 35.2402 30.6463 35.1464C30.7401 35.0527 30.8673 35 30.9999 35C31.1325 35 31.2597 35.0527 31.3534 35.1464C31.4472 35.2402 31.4999 35.3674 31.4999 35.5V39.5C31.4999 39.6326 31.4472 39.7598 31.3534 39.8535C31.2597 39.9473 31.1325 40 30.9999 40C30.8673 40 30.7401 39.9473 30.6463 39.8535C30.5526 39.7598 30.4999 39.6326 30.4999 39.5V35.5ZM26.9999 37.5C26.9999 37.3674 27.0526 37.2402 27.1463 37.1464C27.2401 37.0527 27.3673 37 27.4999 37C27.6325 37 27.7597 37.0527 27.8534 37.1464C27.9472 37.2402 27.9999 37.3674 27.9999 37.5V39.5C27.9999 39.6326 27.9472 39.7598 27.8534 39.8535C27.7597 39.9473 27.6325 40 27.4999 40C27.3673 40 27.2401 39.9473 27.1463 39.8535C27.0526 39.7598 26.9999 39.6326 26.9999 39.5V37.5ZM23.4999 35.5C23.4999 35.3674 23.5526 35.2402 23.6463 35.1464C23.7401 35.0527 23.8673 35 23.9999 35C24.1325 35 24.2597 35.0527 24.3534 35.1464C24.4472 35.2402 24.4999 35.3674 24.4999 35.5V39.5C24.4999 39.6326 24.4472 39.7598 24.3534 39.8535C24.2597 39.9473 24.1325 40 23.9999 40C23.8673 40 23.7401 39.9473 23.6463 39.8535C23.5526 39.7598 23.4999 39.6326 23.4999 39.5V35.5ZM19.9999 37.5C19.9999 37.3674 20.0526 37.2402 20.1463 37.1464C20.2401 37.0527 20.3673 37 20.4999 37C20.6325 37 20.7597 37.0527 20.8534 37.1464C20.9472 37.2402 20.9999 37.3674 20.9999 37.5V39.5C20.9999 39.6326 20.9472 39.7598 20.8534 39.8535C20.7597 39.9473 20.6325 40 20.4999 40C20.3673 40 20.2401 39.9473 20.1463 39.8535C20.0526 39.7598 19.9999 39.6326 19.9999 39.5V37.5ZM16.4999 35.5C16.4999 35.3674 16.5526 35.2402 16.6463 35.1464C16.7401 35.0527 16.8673 35 16.9999 35C17.1325 35 17.2597 35.0527 17.3534 35.1464C17.4472 35.2402 17.4999 35.3674 17.4999 35.5V39.5C17.4999 39.6326 17.4472 39.7598 17.3534 39.8535C17.2597 39.9473 17.1325 40 16.9999 40C16.8673 40 16.7401 39.9473 16.6463 39.8535C16.5526 39.7598 16.4999 39.6326 16.4999 39.5V35.5Z" fill="#F76C1E"/>
<path d="M59.5 24.5C59.1899 24.4996 58.8874 24.5957 58.6344 24.7748C58.3813 24.954 58.1902 25.2074 58.0875 25.5H56.995C56.9136 21.0793 55.7027 16.753 53.4775 12.9325L56.08 10.3725C56.5294 9.93249 56.8864 9.40722 57.1302 8.82747C57.3739 8.24771 57.4995 7.62513 57.4995 6.99621C57.4995 6.3673 57.3739 5.74472 57.1302 5.16496C56.8864 4.5852 56.5294 4.05994 56.08 3.61996C55.1648 2.7285 53.9376 2.22963 52.66 2.22963C51.3824 2.22963 50.1552 2.7285 49.24 3.61996L47.75 5.08746L46.26 3.61996C45.68 3.0521 44.9673 2.63806 44.1867 2.4154C43.4062 2.19275 42.5823 2.16854 41.79 2.34496C38.4058 0.7905 34.7241 -0.00964468 31 -3.65548e-05C24.1933 0.0075768 17.6604 2.68116 12.8012 7.44774C7.94213 12.2143 5.14346 18.6947 5.005 25.5H3.9125C3.79456 25.1664 3.56247 24.8852 3.25726 24.7061C2.95206 24.5271 2.59339 24.4617 2.24464 24.5216C1.89589 24.5814 1.57952 24.7626 1.35145 25.0331C1.12338 25.3037 0.998291 25.6461 0.998291 26C0.998291 26.3538 1.12338 26.6963 1.35145 26.9668C1.57952 27.2373 1.89589 27.4185 2.24464 27.4784C2.59339 27.5382 2.95206 27.4728 3.25726 27.2938C3.56247 27.1147 3.79456 26.8336 3.9125 26.5H5.005C5.1385 33.306 7.93591 39.7882 12.7964 44.5543C17.6569 49.3203 24.1927 51.9901 31 51.9901C37.8073 51.9901 44.3431 49.3203 49.2036 44.5543C54.0641 39.7882 56.8615 33.306 56.995 26.5H58.0875C58.1792 26.7593 58.3404 26.9884 58.5536 27.1623C58.7667 27.3362 59.0236 27.4481 59.2961 27.4858C59.5685 27.5235 59.8461 27.4856 60.0985 27.3761C60.3509 27.2667 60.5683 27.09 60.7269 26.8653C60.8856 26.6406 60.9795 26.3766 60.9982 26.1022C61.017 25.8277 60.9599 25.5534 60.8332 25.3093C60.7066 25.0651 60.5152 24.8605 60.2801 24.7177C60.0449 24.575 59.7751 24.4996 59.5 24.5ZM45.5575 4.33496L47.4 6.14496C47.493 6.23742 47.6188 6.28931 47.75 6.28931C47.8811 6.28931 48.007 6.23742 48.1 6.14496L49.9425 4.33496C50.6693 3.62575 51.6445 3.22876 52.66 3.22876C53.6755 3.22876 54.6507 3.62575 55.3775 4.33496C55.7327 4.68118 56.0151 5.09501 56.2079 5.55207C56.4006 6.00913 56.5 6.50016 56.5 6.99621C56.5 7.49227 56.4006 7.9833 56.2079 8.44036C56.0151 8.89742 55.7327 9.31125 55.3775 9.65746L52.485 12.5025L50.655 14.305L47.75 17.1625L40.1225 9.65746C39.4893 9.04061 39.0968 8.21811 39.0157 7.33781C38.9346 6.45751 39.1701 5.57714 39.68 4.85496C39.8115 4.66863 39.9596 4.49459 40.1225 4.33496C40.6088 3.85495 41.2148 3.51396 41.8775 3.34746C42.1921 3.26762 42.5154 3.22731 42.84 3.22746C43.8563 3.22443 44.8328 3.6224 45.5575 4.33496ZM26.5 17.5V18.5H17.5V17.5H26.5ZM17.5 14.5V13.5H26.5V14.5H17.5ZM31 51C24.4585 50.9923 18.18 48.424 13.5084 43.845C8.83683 39.2659 6.14351 33.04 6.005 26.5C6.0025 26.3325 6 26.1675 6 26C6 25.8325 6.0025 25.6675 6.005 25.5C6.14351 18.9599 8.83683 12.734 13.5084 8.15495C18.18 3.5759 24.4585 1.00764 31 0.999963C34.2408 0.991507 37.4516 1.62009 40.45 2.84996C40.0734 3.05878 39.7269 3.31782 39.42 3.61996C39.315 3.72496 39.215 3.83246 39.1225 3.94246C35.6094 2.65175 31.839 2.21827 28.1246 2.67807C24.4103 3.13787 20.8593 4.47766 17.767 6.58607C14.6747 8.69448 12.1304 11.5106 10.3455 14.8003C8.56063 18.0899 7.58681 21.7582 7.505 25.5H10.6575L13.5725 20.74C13.6172 20.6666 13.6799 20.606 13.7548 20.564C13.8297 20.5219 13.9141 20.4999 14 20.5H14.0025C14.0883 20.4998 14.1727 20.5221 14.2473 20.5647C14.3218 20.6072 14.384 20.6685 14.4275 20.7425L17.2825 25.5H20C20.0861 25.5002 20.1707 25.5226 20.2456 25.5651C20.3205 25.6075 20.3832 25.6687 20.4275 25.7425L22.9525 29.95L26.175 23.2825C26.2157 23.1977 26.2796 23.1262 26.3592 23.0762C26.4388 23.0262 26.531 22.9998 26.625 23H28.1825L32.0475 14.7875C32.089 14.6997 32.1551 14.626 32.2378 14.5752C32.3205 14.5244 32.4162 14.4988 32.5132 14.5014C32.6102 14.5041 32.7043 14.5349 32.7841 14.5901C32.8639 14.6453 32.9259 14.7226 32.9625 14.8125L38.095 27.405L40.075 24.235C40.1204 24.1633 40.1832 24.1042 40.2574 24.0631C40.3317 24.022 40.4151 24.0003 40.5 24H41.9325L44.0475 19.535C44.091 19.4464 44.1593 19.3724 44.2441 19.3218C44.3288 19.2712 44.4264 19.2463 44.525 19.25C44.6241 19.2551 44.7194 19.2893 44.7991 19.3485C44.8787 19.4077 44.939 19.4891 44.9725 19.5825L49.02 31.055L51.0325 25.82C51.0691 25.7257 51.1333 25.6447 51.2167 25.5876C51.3002 25.5305 51.3989 25.5 51.5 25.5H54.495C54.4162 21.7374 53.4345 18.0489 51.6325 14.745L52.74 13.6575C54.7974 17.271 55.9165 21.3425 55.995 25.5C55.9975 25.6675 56 25.8325 56 26C56 26.1675 55.9975 26.3325 55.995 26.5C55.8565 33.04 53.1632 39.2659 48.4916 43.845C43.82 48.424 37.5415 50.9923 31 51Z" fill="#F76C1E"/>
</svg>
