<svg width="117" height="32" viewBox="0 0 117 32" fill="none" xmlns="http://www.w3.org/2000/svg">
<path d="M0 0H79.2079L72.0072 32H0V0Z" fill="#F76C1E"/>
<path d="M12.7241 18.4723H8.67376V15.4401H12.7241C13.2761 15.4401 13.7237 15.3469 14.0668 15.1604C14.4099 14.9739 14.6598 14.7166 14.8165 14.3884C14.9806 14.0527 15.0626 13.676 15.0626 13.2583C15.0626 12.8108 14.9806 12.3968 14.8165 12.0163C14.6598 11.6359 14.4099 11.3301 14.0668 11.0989C13.7237 10.8602 13.2761 10.7408 12.7241 10.7408H10.1507V23.9997H6.22339V7.70862H12.7241C14.0295 7.70862 15.1521 7.94731 16.092 8.42471C17.0393 8.9021 17.7666 9.55852 18.2738 10.394C18.7811 11.2219 19.0347 12.1693 19.0347 13.2359C19.0347 14.2877 18.7811 15.2052 18.2738 15.9884C17.7666 16.7716 17.0393 17.3833 16.092 17.8234C15.1521 18.256 14.0295 18.4723 12.7241 18.4723Z" fill="white"/>
<path d="M58.198 20.9786V23.9997H49.963V20.9786H58.198ZM51.3616 7.70862V23.9997H47.4343V7.70862H51.3616Z" fill="white"/>
<path d="M61.9665 7.70862L64.9651 14.78L67.9749 7.70862H72.2043L66.9679 18.1479V23.9997H62.9735V18.1479L57.7259 7.70862H61.9665Z" fill="white"/>
<path d="M85.3279 7.70862V23.9997H81.4006V7.70862H85.3279ZM91.6609 14.4891V17.5101H84.209V14.4891H91.6609ZM92.2986 7.70862V10.7408H84.209V7.70862H92.2986Z" fill="#F76C1E"/>
<path d="M99.4806 7.70862V23.9997H95.5644V7.70862H99.4806Z" fill="#F76C1E"/>
<path d="M111.172 7.70862V23.9997H107.244V7.70862H111.172ZM116.072 7.70862V10.7408H102.455V7.70862H116.072Z" fill="#F76C1E"/>
<g clip-path="url(#clip0_656_2)">
<path d="M36.8536 16.038C36.8748 16.038 36.8932 16.0206 36.8932 15.9984C36.8932 15.9761 36.8748 15.9587 36.8536 15.9587C36.8313 15.9587 36.813 15.9761 36.813 15.9984C36.813 16.0206 36.8313 16.038 36.8536 16.038Z" fill="white"/>
<path d="M36.6788 17.4805C36.7333 17.4805 36.7772 17.4366 36.7772 17.382C36.7772 17.3274 36.7333 17.2826 36.6788 17.2826C36.6242 17.2826 36.5803 17.3274 36.5803 17.382C36.5803 17.4366 36.6242 17.4805 36.6788 17.4805Z" fill="white"/>
<path d="M36.166 18.8293C36.2488 18.8293 36.317 18.7621 36.317 18.6783C36.317 18.5945 36.2488 18.5272 36.166 18.5272C36.0821 18.5272 36.0139 18.5945 36.0139 18.6783C36.0139 18.7621 36.0821 18.8293 36.166 18.8293Z" fill="white"/>
<path d="M35.3453 20.0067C35.4564 20.0067 35.5461 19.9171 35.5461 19.8069C35.5461 19.6958 35.4564 19.6061 35.3453 19.6061C35.2352 19.6061 35.1455 19.6958 35.1455 19.8069C35.1455 19.9171 35.2352 20.0067 35.3453 20.0067Z" fill="white"/>
<path d="M34.2713 20.9365C34.4038 20.9365 34.512 20.8283 34.512 20.6958C34.512 20.5632 34.4038 20.4551 34.2713 20.4551C34.1377 20.4551 34.0305 20.5632 34.0305 20.6958C34.0305 20.8283 34.1377 20.9365 34.2713 20.9365Z" fill="white"/>
<path d="M33.0088 21.5398C33.1472 21.5398 33.2583 21.4277 33.2583 21.2893C33.2583 21.1509 33.1472 21.0398 33.0088 21.0398C32.8704 21.0398 32.7593 21.1509 32.7593 21.2893C32.7593 21.4277 32.8704 21.5398 33.0088 21.5398Z" fill="white"/>
<path d="M31.6389 21.8098C31.7822 21.8098 31.8981 21.6938 31.8981 21.5506C31.8981 21.4073 31.7822 21.2913 31.6389 21.2913C31.4966 21.2913 31.3806 21.4073 31.3806 21.5506C31.3806 21.6938 31.4966 21.8098 31.6389 21.8098Z" fill="white"/>
<path d="M30.2468 21.725C30.392 21.725 30.509 21.608 30.509 21.4628C30.509 21.3186 30.392 21.2006 30.2468 21.2006C30.1026 21.2006 29.9846 21.3186 29.9846 21.4628C29.9846 21.608 30.1026 21.725 30.2468 21.725Z" fill="white"/>
<path d="M28.9203 21.3253C29.0831 21.3253 29.2137 21.1937 29.2137 21.0319C29.2137 20.8702 29.0831 20.7386 28.9203 20.7386C28.7585 20.7386 28.6279 20.8702 28.6279 21.0319C28.6279 21.1937 28.7585 21.3253 28.9203 21.3253Z" fill="white"/>
<path d="M27.7431 20.5934C27.9136 20.5934 28.052 20.455 28.052 20.2854C28.052 20.1148 27.9136 19.9764 27.7431 19.9764C27.5725 19.9764 27.4351 20.1148 27.4351 20.2854C27.4351 20.455 27.5725 20.5934 27.7431 20.5934Z" fill="white"/>
<path d="M26.7891 19.6383C26.9937 19.6383 27.1594 19.4726 27.1594 19.268C27.1594 19.0633 26.9937 18.8976 26.7891 18.8976C26.5844 18.8976 26.4187 19.0633 26.4187 19.268C26.4187 19.4726 26.5844 19.6383 26.7891 19.6383Z" fill="white"/>
<path d="M26.1166 18.4688C26.3505 18.4688 26.5396 18.2797 26.5396 18.0458C26.5396 17.8128 26.3505 17.6237 26.1166 17.6237C25.8837 17.6237 25.6946 17.8128 25.6946 18.0458C25.6946 18.2797 25.8837 18.4688 26.1166 18.4688Z" fill="white"/>
<path d="M25.7703 17.1675C26.0305 17.1675 26.242 16.956 26.242 16.6948C26.242 16.4345 26.0305 16.2231 25.7703 16.2231C25.5091 16.2231 25.2976 16.4345 25.2976 16.6948C25.2976 16.956 25.5091 17.1675 25.7703 17.1675Z" fill="white"/>
<path d="M25.7703 15.7756C26.0325 15.7756 26.245 15.5632 26.245 15.301C26.245 15.0378 26.0325 14.8254 25.7703 14.8254C25.5072 14.8254 25.2947 15.0378 25.2947 15.301C25.2947 15.5632 25.5072 15.7756 25.7703 15.7756Z" fill="white"/>
<path d="M26.1165 14.4347C26.3845 14.4347 26.6009 14.2173 26.6009 13.9503C26.6009 13.6823 26.3845 13.4649 26.1165 13.4649C25.8494 13.4649 25.6321 13.6823 25.6321 13.9503C25.6321 14.2173 25.8494 14.4347 26.1165 14.4347Z" fill="white"/>
<path d="M26.789 13.2642C27.0853 13.2642 27.326 13.0244 27.326 12.7281C27.326 12.4308 27.0853 12.1911 26.789 12.1911C26.4927 12.1911 26.252 12.4308 26.252 12.7281C26.252 13.0244 26.4927 13.2642 26.789 13.2642Z" fill="white"/>
<path d="M27.743 12.2875C28.0617 12.2875 28.32 12.0292 28.32 11.7115C28.32 11.3918 28.0617 11.1335 27.743 11.1335C27.4243 11.1335 27.166 11.3918 27.166 11.7115C27.166 12.0292 27.4243 12.2875 27.743 12.2875Z" fill="white"/>
<path d="M28.9202 11.5653C29.2526 11.5653 29.5225 11.2963 29.5225 10.9639C29.5225 10.6316 29.2526 10.3616 28.9202 10.3616C28.5888 10.3616 28.3188 10.6316 28.3188 10.9639C28.3188 11.2963 28.5888 11.5653 28.9202 11.5653Z" fill="white"/>
<path d="M30.2468 11.1472C30.586 11.1472 30.8609 10.8714 30.8609 10.5332C30.8609 10.194 30.586 9.91818 30.2468 9.91818C29.9077 9.91818 29.6328 10.194 29.6328 10.5332C29.6328 10.8714 29.9077 11.1472 30.2468 11.1472Z" fill="white"/>
<path d="M31.6384 11.0653C31.9815 11.0653 32.2593 10.7875 32.2593 10.4454C32.2593 10.1024 31.9815 9.82458 31.6384 9.82458C31.2963 9.82458 31.0186 10.1024 31.0186 10.4454C31.0186 10.7875 31.2963 11.0653 31.6384 11.0653Z" fill="white"/>
<path d="M33.0093 11.3334C33.3553 11.3334 33.636 11.0527 33.636 10.7067C33.636 10.3607 33.3553 10.08 33.0093 10.08C32.6633 10.08 32.3826 10.3607 32.3826 10.7067C32.3826 11.0527 32.6633 11.3334 33.0093 11.3334Z" fill="white"/>
<path d="M34.2712 11.9357C34.6221 11.9357 34.9067 11.6511 34.9067 11.3002C34.9067 10.9493 34.6221 10.6647 34.2712 10.6647C33.9203 10.6647 33.6357 10.9493 33.6357 11.3002C33.6357 11.6511 33.9203 11.9357 34.2712 11.9357Z" fill="white"/>
<path d="M35.3452 12.8284C35.698 12.8284 35.9845 12.5418 35.9845 12.189C35.9845 11.8362 35.698 11.5506 35.3452 11.5506C34.9924 11.5506 34.7068 11.8362 34.7068 12.189C34.7068 12.5418 34.9924 12.8284 35.3452 12.8284Z" fill="white"/>
<path d="M36.166 13.9658C36.5237 13.9658 36.8131 13.6754 36.8131 13.3177C36.8131 12.96 36.5237 12.6695 36.166 12.6695C35.8073 12.6695 35.5178 12.96 35.5178 13.3177C35.5178 13.6754 35.8073 13.9658 36.166 13.9658Z" fill="white"/>
<path d="M36.6788 15.3021C37.0589 15.3021 37.3669 14.9942 37.3669 14.614C37.3669 14.2339 37.0589 13.9259 36.6788 13.9259C36.2987 13.9259 35.9907 14.2339 35.9907 14.614C35.9907 14.9942 36.2987 15.3021 36.6788 15.3021Z" fill="white"/>
<path d="M37.9659 16.0321C37.9843 16.0321 37.9998 16.0167 37.9998 15.9983C37.9998 15.9799 37.9843 15.9645 37.9659 15.9645C37.9476 15.9645 37.9321 15.9799 37.9321 15.9983C37.9321 16.0167 37.9476 16.0321 37.9659 16.0321Z" fill="white"/>
<path d="M37.8209 17.4667C37.8647 17.4667 37.9008 17.4306 37.9008 17.3858C37.9008 17.3419 37.8647 17.3058 37.8209 17.3058C37.776 17.3058 37.74 17.3419 37.74 17.3858C37.74 17.4306 37.776 17.4667 37.8209 17.4667Z" fill="white"/>
<path d="M37.3891 18.84C37.4593 18.84 37.5159 18.7834 37.5159 18.7133C37.5159 18.6431 37.4593 18.5866 37.3891 18.5866C37.319 18.5866 37.2625 18.6431 37.2625 18.7133C37.2625 18.7834 37.319 18.84 37.3891 18.84Z" fill="white"/>
<path d="M36.6913 20.0925C36.7849 20.0925 36.8609 20.0165 36.8609 19.922C36.8609 19.8284 36.7849 19.7524 36.6913 19.7524C36.5977 19.7524 36.5217 19.8284 36.5217 19.922C36.5217 20.0165 36.5977 20.0925 36.6913 20.0925Z" fill="white"/>
<path d="M35.7574 21.1539C35.8646 21.1539 35.9514 21.0672 35.9514 20.96C35.9514 20.8528 35.8646 20.765 35.7574 20.765C35.6502 20.765 35.5625 20.8528 35.5625 20.96C35.5625 21.0672 35.6502 21.1539 35.7574 21.1539Z" fill="white"/>
<path d="M34.628 22.0057C34.7527 22.0057 34.8531 21.9044 34.8531 21.7796C34.8531 21.6559 34.7527 21.5545 34.628 21.5545C34.5042 21.5545 34.4028 21.6559 34.4028 21.7796C34.4028 21.9044 34.5042 22.0057 34.628 22.0057Z" fill="white"/>
<path d="M33.3533 22.5916C33.4878 22.5916 33.5969 22.4824 33.5969 22.3479C33.5969 22.2134 33.4878 22.1042 33.3533 22.1042C33.2188 22.1042 33.1096 22.2134 33.1096 22.3479C33.1096 22.4824 33.2188 22.5916 33.3533 22.5916Z" fill="white"/>
<path d="M31.9875 22.8975C32.1308 22.8975 32.2468 22.7815 32.2468 22.6382C32.2468 22.4949 32.1308 22.3789 31.9875 22.3789C31.8443 22.3789 31.7283 22.4949 31.7283 22.6382C31.7283 22.7815 31.8443 22.8975 31.9875 22.8975Z" fill="white"/>
<path d="M30.592 22.9004C30.7372 22.9004 30.8542 22.7824 30.8542 22.6382C30.8542 22.493 30.7372 22.376 30.592 22.376C30.4468 22.376 30.3298 22.493 30.3298 22.6382C30.3298 22.7824 30.4468 22.9004 30.592 22.9004Z" fill="white"/>
<path d="M29.2265 22.6383C29.3873 22.6383 29.5169 22.5077 29.5169 22.3479C29.5169 22.188 29.3873 22.0574 29.2265 22.0574C29.0666 22.0574 28.937 22.188 28.937 22.3479C28.937 22.5077 29.0666 22.6383 29.2265 22.6383Z" fill="white"/>
<path d="M27.9515 22.0886C28.1221 22.0886 28.2605 21.9502 28.2605 21.7797C28.2605 21.6101 28.1221 21.4717 27.9515 21.4717C27.781 21.4717 27.6426 21.6101 27.6426 21.7797C27.6426 21.9502 27.781 22.0886 27.9515 22.0886Z" fill="white"/>
<path d="M26.8221 21.3176C27.0199 21.3176 27.1807 21.1578 27.1807 20.9599C27.1807 20.7621 27.0199 20.6013 26.8221 20.6013C26.6252 20.6013 26.4644 20.7621 26.4644 20.9599C26.4644 21.1578 26.6252 21.3176 26.8221 21.3176Z" fill="white"/>
<path d="M25.8881 20.3176C26.1065 20.3176 26.2829 20.1402 26.2829 19.9219C26.2829 19.7046 26.1065 19.5272 25.8881 19.5272C25.6698 19.5272 25.4934 19.7046 25.4934 19.9219C25.4934 20.1402 25.6698 20.3176 25.8881 20.3176Z" fill="white"/>
<path d="M25.1903 19.1705C25.4427 19.1705 25.6474 18.9658 25.6474 18.7134C25.6474 18.461 25.4427 18.2573 25.1903 18.2573C24.9378 18.2573 24.7341 18.461 24.7341 18.7134C24.7341 18.9658 24.9378 19.1705 25.1903 19.1705Z" fill="white"/>
<path d="M24.7596 17.8458C25.013 17.8458 25.2186 17.6402 25.2186 17.3858C25.2186 17.1324 25.013 16.9267 24.7596 16.9267C24.5052 16.9267 24.2996 17.1324 24.2996 17.3858C24.2996 17.6402 24.5052 17.8458 24.7596 17.8458Z" fill="white"/>
<path d="M24.6133 16.4696C24.8736 16.4696 25.0851 16.2591 25.0851 15.9979C25.0851 15.7377 24.8736 15.5262 24.6133 15.5262C24.3521 15.5262 24.1406 15.7377 24.1406 15.9979C24.1406 16.2591 24.3521 16.4696 24.6133 16.4696Z" fill="white"/>
<path d="M24.7598 15.0847C25.022 15.0847 25.2345 14.8723 25.2345 14.6101C25.2345 14.3469 25.022 14.1344 24.7598 14.1344C24.4967 14.1344 24.2842 14.3469 24.2842 14.6101C24.2842 14.8723 24.4967 15.0847 24.7598 15.0847Z" fill="white"/>
<path d="M25.1907 13.7914C25.4723 13.7914 25.6994 13.5633 25.6994 13.2826C25.6994 13.0009 25.4723 12.7729 25.1907 12.7729C24.909 12.7729 24.6819 13.0009 24.6819 13.2826C24.6819 13.5633 24.909 13.7914 25.1907 13.7914Z" fill="white"/>
<path d="M25.8881 12.6169C26.1883 12.6169 26.431 12.3733 26.431 12.0731C26.431 11.7739 26.1883 11.5302 25.8881 11.5302C25.5879 11.5302 25.3452 11.7739 25.3452 12.0731C25.3452 12.3733 25.5879 12.6169 25.8881 12.6169Z" fill="white"/>
<path d="M26.8219 11.6042C27.1357 11.6042 27.3901 11.3499 27.3901 11.036C27.3901 10.7222 27.1357 10.4688 26.8219 10.4688C26.509 10.4688 26.2546 10.7222 26.2546 11.036C26.2546 11.3499 26.509 11.6042 26.8219 11.6042Z" fill="white"/>
<path d="M27.9515 10.7963C28.2722 10.7963 28.5314 10.536 28.5314 10.2154C28.5314 9.8957 28.2722 9.63547 27.9515 9.63547C27.6308 9.63547 27.3716 9.8957 27.3716 10.2154C27.3716 10.536 27.6308 10.7963 27.9515 10.7963Z" fill="white"/>
<path d="M29.2261 10.2622C29.5653 10.2622 29.8401 9.98735 29.8401 9.64818C29.8401 9.309 29.5653 9.03417 29.2261 9.03417C28.8869 9.03417 28.6121 9.309 28.6121 9.64818C28.6121 9.98735 28.8869 10.2622 29.2261 10.2622Z" fill="white"/>
<path d="M30.5918 9.97473C30.9329 9.97473 31.2088 9.6989 31.2088 9.35777C31.2088 9.01762 30.9329 8.74084 30.5918 8.74084C30.2507 8.74084 29.9749 9.01762 29.9749 9.35777C29.9749 9.6989 30.2507 9.97473 30.5918 9.97473Z" fill="white"/>
<path d="M31.9875 9.97864C32.3297 9.97864 32.6074 9.70085 32.6074 9.35778C32.6074 9.01568 32.3297 8.73791 31.9875 8.73791C31.6454 8.73791 31.3677 9.01568 31.3677 9.35778C31.3677 9.70085 31.6454 9.97864 31.9875 9.97864Z" fill="white"/>
<path d="M33.3533 10.2749C33.6993 10.2749 33.98 9.99419 33.98 9.64819C33.98 9.30219 33.6993 9.0215 33.3533 9.0215C33.0073 9.0215 32.7266 9.30219 32.7266 9.64819C32.7266 9.99419 33.0073 10.2749 33.3533 10.2749Z" fill="white"/>
<path d="M34.6279 10.8479C34.9778 10.8479 35.2605 10.5653 35.2605 10.2154C35.2605 9.86643 34.9778 9.58379 34.6279 9.58379C34.279 9.58379 33.9954 9.86643 33.9954 10.2154C33.9954 10.5653 34.279 10.8479 34.6279 10.8479Z" fill="white"/>
<path d="M35.7573 11.6782C36.1111 11.6782 36.3986 11.3907 36.3986 11.0359C36.3986 10.6821 36.1111 10.3946 35.7573 10.3946C35.4025 10.3946 35.115 10.6821 35.115 11.0359C35.115 11.3907 35.4025 11.6782 35.7573 11.6782Z" fill="white"/>
<path d="M36.6914 12.7241C37.051 12.7241 37.3424 12.4327 37.3424 12.0731C37.3424 11.7144 37.051 11.422 36.6914 11.422C36.3317 11.422 36.0403 11.7144 36.0403 12.0731C36.0403 12.4327 36.3317 12.7241 36.6914 12.7241Z" fill="white"/>
<path d="M37.3893 13.9396C37.7519 13.9396 38.0462 13.6452 38.0462 13.2827C38.0462 12.9191 37.7519 12.6248 37.3893 12.6248C37.0268 12.6248 36.7324 12.9191 36.7324 13.2827C36.7324 13.6452 37.0268 13.9396 37.3893 13.9396Z" fill="white"/>
<path d="M37.8207 15.3011C38.2017 15.3011 38.5117 14.9912 38.5117 14.6101C38.5117 14.2281 38.2017 13.9191 37.8207 13.9191C37.4386 13.9191 37.1287 14.2281 37.1287 14.6101C37.1287 14.9912 37.4386 15.3011 37.8207 15.3011Z" fill="white"/>
<path d="M39.079 16.0253C39.0944 16.0253 39.1059 16.0137 39.1059 15.9983C39.1059 15.9829 39.0944 15.9704 39.079 15.9704C39.0636 15.9704 39.052 15.9829 39.052 15.9983C39.052 16.0137 39.0636 16.0253 39.079 16.0253Z" fill="white"/>
<path d="M38.9542 17.457C38.9912 17.457 39.0215 17.4268 39.0215 17.3888C39.0215 17.3508 38.9912 17.3206 38.9542 17.3206C38.9162 17.3206 38.886 17.3508 38.886 17.3888C38.886 17.4268 38.9162 17.457 38.9542 17.457Z" fill="white"/>
<path d="M38.5821 18.8429C38.6425 18.8429 38.6903 18.7942 38.6903 18.7347C38.6903 18.6753 38.6425 18.6265 38.5821 18.6265C38.5226 18.6265 38.4749 18.6753 38.4749 18.7347C38.4749 18.7942 38.5226 18.8429 38.5821 18.8429Z" fill="white"/>
<path d="M37.9768 20.1324C38.0528 20.1324 38.1152 20.0701 38.1152 19.9931C38.1152 19.9161 38.0528 19.8547 37.9768 19.8547C37.8998 19.8547 37.8374 19.9161 37.8374 19.9931C37.8374 20.0701 37.8998 20.1324 37.9768 20.1324Z" fill="white"/>
<path d="M37.1552 21.302C37.2546 21.302 37.3345 21.2221 37.3345 21.1227C37.3345 21.0242 37.2546 20.9443 37.1552 20.9443C37.0567 20.9443 36.9768 21.0242 36.9768 21.1227C36.9768 21.2221 37.0567 21.302 37.1552 21.302Z" fill="white"/>
<path d="M36.1463 22.304C36.2652 22.304 36.3627 22.2075 36.3627 22.0876C36.3627 21.9687 36.2652 21.8722 36.1463 21.8722C36.0264 21.8722 35.9299 21.9687 35.9299 22.0876C35.9299 22.2075 36.0264 22.304 36.1463 22.304Z" fill="white"/>
<path d="M34.9807 23.1012C35.1152 23.1012 35.2244 22.992 35.2244 22.8575C35.2244 22.7221 35.1152 22.6129 34.9807 22.6129C34.8462 22.6129 34.7371 22.7221 34.7371 22.8575C34.7371 22.992 34.8462 23.1012 34.9807 23.1012Z" fill="white"/>
<path d="M33.6973 23.6499C33.8318 23.6499 33.9409 23.5407 33.9409 23.4062C33.9409 23.2717 33.8318 23.1626 33.6973 23.1626C33.5628 23.1626 33.4536 23.2717 33.4536 23.4062C33.4536 23.5407 33.5628 23.6499 33.6973 23.6499Z" fill="white"/>
<path d="M32.3359 23.9696C32.4753 23.9696 32.5884 23.8565 32.5884 23.7172C32.5884 23.5768 32.4753 23.4637 32.3359 23.4637C32.1956 23.4637 32.0825 23.5768 32.0825 23.7172C32.0825 23.8565 32.1956 23.9696 32.3359 23.9696Z" fill="white"/>
<path d="M30.9409 24.0417C31.0851 24.0417 31.2031 23.9238 31.2031 23.7796C31.2031 23.6343 31.0851 23.5174 30.9409 23.5174C30.7957 23.5174 30.6777 23.6343 30.6777 23.7796C30.6777 23.9238 30.7957 24.0417 30.9409 24.0417Z" fill="white"/>
<path d="M29.5571 23.8634C29.7062 23.8634 29.828 23.7416 29.828 23.5915C29.828 23.4424 29.7062 23.3205 29.5571 23.3205C29.407 23.3205 29.2852 23.4424 29.2852 23.5915C29.2852 23.7416 29.407 23.8634 29.5571 23.8634Z" fill="white"/>
<path d="M28.2284 23.4628C28.3951 23.4628 28.5306 23.3273 28.5306 23.1606C28.5306 22.993 28.3951 22.8585 28.2284 22.8585C28.0617 22.8585 27.9263 22.993 27.9263 23.1606C27.9263 23.3273 28.0617 23.4628 28.2284 23.4628Z" fill="white"/>
<path d="M26.9987 22.8068C27.1692 22.8068 27.3076 22.6693 27.3076 22.4988C27.3076 22.3282 27.1692 22.1898 26.9987 22.1898C26.8291 22.1898 26.6907 22.3282 26.6907 22.4988C26.6907 22.6693 26.8291 22.8068 26.9987 22.8068Z" fill="white"/>
<path d="M25.9068 21.9794C26.1007 21.9794 26.2586 21.8225 26.2586 21.6275C26.2586 21.4336 26.1007 21.2767 25.9068 21.2767C25.7128 21.2767 25.5549 21.4336 25.5549 21.6275C25.5549 21.8225 25.7128 21.9794 25.9068 21.9794Z" fill="white"/>
<path d="M24.9875 20.9716C25.2058 20.9716 25.3832 20.7942 25.3832 20.5758C25.3832 20.3585 25.2058 20.1811 24.9875 20.1811C24.7702 20.1811 24.5928 20.3585 24.5928 20.5758C24.5928 20.7942 24.7702 20.9716 24.9875 20.9716Z" fill="white"/>
<path d="M24.2726 19.8C24.5055 19.8 24.6946 19.611 24.6946 19.378C24.6946 19.1441 24.5055 18.955 24.2726 18.955C24.0387 18.955 23.8496 19.1441 23.8496 19.378C23.8496 19.611 24.0387 19.8 24.2726 19.8Z" fill="white"/>
<path d="M23.7813 18.5302C24.0357 18.5302 24.2414 18.3245 24.2414 18.0701C24.2414 17.8167 24.0357 17.6101 23.7813 17.6101C23.5279 17.6101 23.3213 17.8167 23.3213 18.0701C23.3213 18.3245 23.5279 18.5302 23.7813 18.5302Z" fill="white"/>
<path d="M23.5318 17.1686C23.793 17.1686 24.0045 16.9571 24.0045 16.6959C24.0045 16.4356 23.793 16.2242 23.5318 16.2242C23.2716 16.2242 23.0601 16.4356 23.0601 16.6959C23.0601 16.9571 23.2716 17.1686 23.5318 17.1686Z" fill="white"/>
<path d="M23.5318 15.7747C23.794 15.7747 24.0074 15.5622 24.0074 15.3C24.0074 15.0368 23.794 14.8244 23.5318 14.8244C23.2696 14.8244 23.0571 15.0368 23.0571 15.3C23.0571 15.5622 23.2696 15.7747 23.5318 15.7747Z" fill="white"/>
<path d="M23.781 14.4103C24.0491 14.4103 24.2654 14.1929 24.2654 13.9259C24.2654 13.6579 24.0491 13.4415 23.781 13.4415C23.514 13.4415 23.2966 13.6579 23.2966 13.9259C23.2966 14.1929 23.514 14.4103 23.781 14.4103Z" fill="white"/>
<path d="M24.2724 13.1277C24.5531 13.1277 24.7812 12.8996 24.7812 12.6179C24.7812 12.3372 24.5531 12.1092 24.2724 12.1092C23.9908 12.1092 23.7627 12.3372 23.7627 12.6179C23.7627 12.8996 23.9908 13.1277 24.2724 13.1277Z" fill="white"/>
<path d="M24.9877 11.9474C25.2791 11.9474 25.516 11.7106 25.516 11.4191C25.516 11.1277 25.2791 10.8918 24.9877 10.8918C24.6963 10.8918 24.4604 11.1277 24.4604 11.4191C24.4604 11.7106 24.6963 11.9474 24.9877 11.9474Z" fill="white"/>
<path d="M25.9069 10.9171C26.21 10.9171 26.4566 10.6715 26.4566 10.3674C26.4566 10.0643 26.21 9.81869 25.9069 9.81869C25.6038 9.81869 25.3582 10.0643 25.3582 10.3674C25.3582 10.6715 25.6038 10.9171 25.9069 10.9171Z" fill="white"/>
<path d="M26.9986 10.077C27.3193 10.077 27.5785 9.81778 27.5785 9.49712C27.5785 9.17646 27.3193 8.91718 26.9986 8.91718C26.6789 8.91718 26.4187 9.17646 26.4187 9.49712C26.4187 9.81778 26.6789 10.077 26.9986 10.077Z" fill="white"/>
<path d="M28.2285 9.43665C28.5609 9.43665 28.8299 9.16765 28.8299 8.8353C28.8299 8.50294 28.5609 8.23392 28.2285 8.23392C27.8962 8.23392 27.6272 8.50294 27.6272 8.8353C27.6272 9.16765 27.8962 9.43665 28.2285 9.43665Z" fill="white"/>
<path d="M29.5566 9.01758C29.8958 9.01758 30.1707 8.74275 30.1707 8.40357C30.1707 8.06439 29.8958 7.78954 29.5566 7.78954C29.2175 7.78954 28.9426 8.06439 28.9426 8.40357C28.9426 8.74275 29.2175 9.01758 29.5566 9.01758Z" fill="white"/>
<path d="M30.9409 8.83337C31.2811 8.83337 31.5579 8.55754 31.5579 8.21642C31.5579 7.87529 31.2811 7.59948 30.9409 7.59948C30.5998 7.59948 30.323 7.87529 30.323 8.21642C30.323 8.55754 30.5998 8.83337 30.9409 8.83337Z" fill="white"/>
<path d="M32.3354 8.90259C32.6795 8.90259 32.9582 8.62385 32.9582 8.27882C32.9582 7.93477 32.6795 7.65601 32.3354 7.65601C31.9914 7.65601 31.7117 7.93477 31.7117 8.27882C31.7117 8.62385 31.9914 8.90259 32.3354 8.90259Z" fill="white"/>
<path d="M33.697 9.21643C34.043 9.21643 34.3227 8.93574 34.3227 8.58974C34.3227 8.24374 34.043 7.96402 33.697 7.96402C33.351 7.96402 33.0703 8.24374 33.0703 8.58974C33.0703 8.93574 33.351 9.21643 33.697 9.21643Z" fill="white"/>
<path d="M34.9807 9.771C35.3306 9.771 35.6132 9.48835 35.6132 9.13845C35.6132 8.78953 35.3306 8.50591 34.9807 8.50591C34.6318 8.50591 34.3481 8.78953 34.3481 9.13845C34.3481 9.48835 34.6318 9.771 34.9807 9.771Z" fill="white"/>
<path d="M36.1464 10.5469C36.4993 10.5469 36.7848 10.2613 36.7848 9.90848C36.7848 9.55566 36.4993 9.2691 36.1464 9.2691C35.7936 9.2691 35.5081 9.55566 35.5081 9.90848C35.5081 10.2613 35.7936 10.5469 36.1464 10.5469Z" fill="white"/>
<path d="M37.1552 11.5146C37.51 11.5146 37.7975 11.2271 37.7975 10.8733C37.7975 10.5186 37.51 10.231 37.1552 10.231C36.8014 10.231 36.5139 10.5186 36.5139 10.8733C36.5139 11.2271 36.8014 11.5146 37.1552 11.5146Z" fill="white"/>
<path d="M37.9767 12.6627C38.3412 12.6627 38.6366 12.3674 38.6366 12.0029C38.6366 11.6384 38.3412 11.3421 37.9767 11.3421C37.6122 11.3421 37.3159 11.6384 37.3159 12.0029C37.3159 12.3674 37.6122 12.6627 37.9767 12.6627Z" fill="white"/>
<path d="M38.5822 13.9279C38.9506 13.9279 39.2488 13.6286 39.2488 13.2612C39.2488 12.8928 38.9506 12.5945 38.5822 12.5945C38.2147 12.5945 37.9155 12.8928 37.9155 13.2612C37.9155 13.6286 38.2147 13.9279 38.5822 13.9279Z" fill="white"/>
<path d="M38.9544 15.3011C39.3375 15.3011 39.6484 14.9902 39.6484 14.6072C39.6484 14.2232 39.3375 13.9133 38.9544 13.9133C38.5704 13.9133 38.2595 14.2232 38.2595 14.6072C38.2595 14.9902 38.5704 15.3011 38.9544 15.3011Z" fill="white"/>
<path d="M40.0816 17.418C40.097 17.418 40.1096 17.4055 40.1096 17.391C40.1096 17.3756 40.097 17.3631 40.0816 17.3631C40.0662 17.3631 40.0547 17.3756 40.0547 17.391C40.0547 17.4055 40.0662 17.418 40.0816 17.418Z" fill="white"/>
<path d="M39.7566 18.8536C39.8141 18.8536 39.8609 18.8068 39.8609 18.7484C39.8609 18.6909 39.8141 18.6441 39.7566 18.6441C39.6981 18.6441 39.6514 18.6909 39.6514 18.7484C39.6514 18.8068 39.6981 18.8536 39.7566 18.8536Z" fill="white"/>
<path d="M39.2215 20.1412C39.278 20.1412 39.3238 20.0954 39.3238 20.0399C39.3238 19.9833 39.278 19.9375 39.2215 19.9375C39.165 19.9375 39.1201 19.9833 39.1201 20.0399C39.1201 20.0954 39.165 20.1412 39.2215 20.1412Z" fill="white"/>
<path d="M38.4914 21.3691C38.5684 21.3691 38.6308 21.3068 38.6308 21.2307C38.6308 21.1538 38.5684 21.0914 38.4914 21.0914C38.4154 21.0914 38.353 21.1538 38.353 21.2307C38.353 21.3068 38.4154 21.3691 38.4914 21.3691Z" fill="white"/>
<path d="M37.585 22.493C37.6952 22.493 37.7849 22.4034 37.7849 22.2923C37.7849 22.1821 37.6952 22.0925 37.585 22.0925C37.4739 22.0925 37.3843 22.1821 37.3843 22.2923C37.3843 22.4034 37.4739 22.493 37.585 22.493Z" fill="white"/>
<path d="M36.5225 23.4189C36.6434 23.4189 36.7408 23.3205 36.7408 23.1996C36.7408 23.0788 36.6434 22.9804 36.5225 22.9804C36.4007 22.9804 36.3032 23.0788 36.3032 23.1996C36.3032 23.3205 36.4007 23.4189 36.5225 23.4189Z" fill="white"/>
<path d="M35.3316 24.1733C35.4661 24.1733 35.5752 24.0642 35.5752 23.9297C35.5752 23.7952 35.4661 23.686 35.3316 23.686C35.1971 23.686 35.0879 23.7952 35.0879 23.9297C35.0879 24.0642 35.1971 24.1733 35.3316 24.1733Z" fill="white"/>
<path d="M34.0413 24.7113C34.1767 24.7113 34.2878 24.6002 34.2878 24.4647C34.2878 24.3283 34.1767 24.2172 34.0413 24.2172C33.9048 24.2172 33.7937 24.3283 33.7937 24.4647C33.7937 24.6002 33.9048 24.7113 34.0413 24.7113Z" fill="white"/>
<path d="M32.6824 25.0494C32.8256 25.0494 32.9416 24.9335 32.9416 24.7902C32.9416 24.6469 32.8256 24.5309 32.6824 24.5309C32.5391 24.5309 32.4231 24.6469 32.4231 24.7902C32.4231 24.9335 32.5391 25.0494 32.6824 25.0494Z" fill="white"/>
<path d="M31.2895 25.1597C31.4328 25.1597 31.5488 25.0437 31.5488 24.9004C31.5488 24.7571 31.4328 24.6411 31.2895 24.6411C31.1463 24.6411 31.0303 24.7571 31.0303 24.9004C31.0303 25.0437 31.1463 25.1597 31.2895 25.1597Z" fill="white"/>
<path d="M29.8972 25.0524C30.0424 25.0524 30.1594 24.9354 30.1594 24.7902C30.1594 24.6459 30.0424 24.528 29.8972 24.528C29.7529 24.528 29.635 24.6459 29.635 24.7902C29.635 24.9354 29.7529 25.0524 29.8972 25.0524Z" fill="white"/>
<path d="M28.5392 24.7512C28.6971 24.7512 28.8258 24.6225 28.8258 24.4647C28.8258 24.3058 28.6971 24.1771 28.5392 24.1771C28.3804 24.1771 28.2517 24.3058 28.2517 24.4647C28.2517 24.6225 28.3804 24.7512 28.5392 24.7512Z" fill="white"/>
<path d="M27.2489 24.2386C27.4185 24.2386 27.5569 24.1002 27.5569 23.9297C27.5569 23.7591 27.4185 23.6217 27.2489 23.6217C27.0783 23.6217 26.9399 23.7591 26.9399 23.9297C26.9399 24.1002 27.0783 24.2386 27.2489 24.2386Z" fill="white"/>
<path d="M26.057 23.533C26.2412 23.533 26.3903 23.3838 26.3903 23.1996C26.3903 23.0154 26.2412 22.8663 26.057 22.8663C25.8737 22.8663 25.7236 23.0154 25.7236 23.1996C25.7236 23.3838 25.8737 23.533 26.057 23.533Z" fill="white"/>
<path d="M24.9954 22.6626C25.1991 22.6626 25.3648 22.4969 25.3648 22.2923C25.3648 22.0885 25.1991 21.9219 24.9954 21.9219C24.7907 21.9219 24.625 22.0885 24.625 22.2923C24.625 22.4969 24.7907 22.6626 24.9954 22.6626Z" fill="white"/>
<path d="M24.088 21.6528C24.321 21.6528 24.511 21.4637 24.511 21.2308C24.511 20.9969 24.321 20.8078 24.088 20.8078C23.8541 20.8078 23.665 20.9969 23.665 21.2308C23.665 21.4637 23.8541 21.6528 24.088 21.6528Z" fill="white"/>
<path d="M23.3581 20.4619C23.591 20.4619 23.781 20.2728 23.781 20.0399C23.781 19.806 23.591 19.6169 23.3581 19.6169C23.1241 19.6169 22.9351 19.806 22.9351 20.0399C22.9351 20.2728 23.1241 20.4619 23.3581 20.4619Z" fill="white"/>
<path d="M22.8228 19.2085C23.0772 19.2085 23.2829 19.0028 23.2829 18.7485C23.2829 18.4951 23.0772 18.2894 22.8228 18.2894C22.5694 18.2894 22.3638 18.4951 22.3638 18.7485C22.3638 19.0028 22.5694 19.2085 22.8228 19.2085Z" fill="white"/>
<path d="M22.4974 17.8499C22.7508 17.8499 22.9574 17.6442 22.9574 17.3908C22.9574 17.1364 22.7508 16.9308 22.4974 16.9308C22.243 16.9308 22.0374 17.1364 22.0374 17.3908C22.0374 17.6442 22.243 17.8499 22.4974 17.8499Z" fill="white"/>
<path d="M22.3873 16.4668C22.6465 16.4668 22.857 16.2572 22.857 15.998C22.857 15.7387 22.6465 15.5292 22.3873 15.5292C22.129 15.5292 21.9185 15.7387 21.9185 15.998C21.9185 16.2572 22.129 16.4668 22.3873 16.4668Z" fill="white"/>
<path d="M22.4976 15.0808C22.7598 15.0808 22.9723 14.8674 22.9723 14.6052C22.9723 14.343 22.7598 14.1305 22.4976 14.1305C22.2354 14.1305 22.022 14.343 22.022 14.6052C22.022 14.8674 22.2354 15.0808 22.4976 15.0808Z" fill="white"/>
<path d="M22.823 13.7349C23.093 13.7349 23.3113 13.5165 23.3113 13.2466C23.3113 12.9776 23.093 12.7592 22.823 12.7592C22.554 12.7592 22.3357 12.9776 22.3357 13.2466C22.3357 13.5165 22.554 13.7349 22.823 13.7349Z" fill="white"/>
<path d="M23.3581 12.4658C23.6388 12.4658 23.8669 12.2378 23.8669 11.9561C23.8669 11.6754 23.6388 11.4473 23.3581 11.4473C23.0765 11.4473 22.8484 11.6754 22.8484 11.9561C22.8484 12.2378 23.0765 12.4658 23.3581 12.4658Z" fill="white"/>
<path d="M24.0881 11.2806C24.3727 11.2806 24.6037 11.0497 24.6037 10.7651C24.6037 10.4805 24.3727 10.2505 24.0881 10.2505C23.8035 10.2505 23.5725 10.4805 23.5725 10.7651C23.5725 11.0497 23.8035 11.2806 24.0881 11.2806Z" fill="white"/>
<path d="M24.9957 10.2524C25.2989 10.2524 25.5445 10.0068 25.5445 9.70273C25.5445 9.39961 25.2989 9.15401 24.9957 9.15401C24.6917 9.15401 24.446 9.39961 24.446 9.70273C24.446 10.0068 24.6917 10.2524 24.9957 10.2524Z" fill="white"/>
<path d="M26.057 9.37048C26.3747 9.37048 26.631 9.11316 26.631 8.7964C26.631 8.47867 26.3747 8.22235 26.057 8.22235C25.7402 8.22235 25.4839 8.47867 25.4839 8.7964C25.4839 9.11316 25.7402 9.37048 26.057 9.37048Z" fill="white"/>
<path d="M27.2488 8.65491C27.5734 8.65491 27.8375 8.39175 27.8375 8.06622C27.8375 7.74069 27.5734 7.47658 27.2488 7.47658C26.9233 7.47658 26.6592 7.74069 26.6592 8.06622C26.6592 8.39175 26.9233 8.65491 27.2488 8.65491Z" fill="white"/>
<path d="M28.5393 8.13354C28.8707 8.13354 29.1407 7.86355 29.1407 7.5312C29.1407 7.19884 28.8707 6.92985 28.5393 6.92985C28.207 6.92985 27.937 7.19884 27.937 7.5312C27.937 7.86355 28.207 8.13354 28.5393 8.13354Z" fill="white"/>
<path d="M29.897 7.82263C30.2381 7.82263 30.5139 7.54585 30.5139 7.2057C30.5139 6.86457 30.2381 6.58874 29.897 6.58874C29.5568 6.58874 29.28 6.86457 29.28 7.2057C29.28 7.54585 29.5568 7.82263 29.897 7.82263Z" fill="white"/>
<path d="M31.2898 7.71643C31.6329 7.71643 31.9097 7.43865 31.9097 7.09557C31.9097 6.75347 31.6329 6.47571 31.2898 6.47571C30.9477 6.47571 30.6699 6.75347 30.6699 7.09557C30.6699 7.43865 30.9477 7.71643 31.2898 7.71643Z" fill="white"/>
<path d="M32.6826 7.82556C33.0247 7.82556 33.3025 7.5478 33.3025 7.2057C33.3025 6.86262 33.0247 6.58484 32.6826 6.58484C32.3395 6.58484 32.0627 6.86262 32.0627 7.2057C32.0627 7.5478 32.3395 7.82556 32.6826 7.82556Z" fill="white"/>
<path d="M34.0413 8.15503C34.3853 8.15503 34.6641 7.87529 34.6641 7.53124C34.6641 7.18719 34.3853 6.90845 34.0413 6.90845C33.6962 6.90845 33.4175 7.18719 33.4175 7.53124C33.4175 7.87529 33.6962 8.15503 34.0413 8.15503Z" fill="white"/>
<path d="M35.3318 8.69299C35.6778 8.69299 35.9575 8.41228 35.9575 8.06628C35.9575 7.72028 35.6778 7.43959 35.3318 7.43959C34.9858 7.43959 34.7051 7.72028 34.7051 8.06628C34.7051 8.41228 34.9858 8.69299 35.3318 8.69299Z" fill="white"/>
<path d="M36.5224 9.43176C36.8733 9.43176 37.1579 9.14716 37.1579 8.79629C37.1579 8.44444 36.8733 8.15987 36.5224 8.15987C36.1716 8.15987 35.886 8.44444 35.886 8.79629C35.886 9.14716 36.1716 9.43176 36.5224 9.43176Z" fill="white"/>
<path d="M37.5849 10.345C37.9387 10.345 38.2262 10.0574 38.2262 9.70267C38.2262 9.34887 37.9387 9.06137 37.5849 9.06137C37.2301 9.06137 36.9426 9.34887 36.9426 9.70267C36.9426 10.0574 37.2301 10.345 37.5849 10.345Z" fill="white"/>
<path d="M38.4914 11.4133C38.8501 11.4133 39.1395 11.1229 39.1395 10.7652C39.1395 10.4075 38.8501 10.117 38.4914 10.117C38.1337 10.117 37.8442 10.4075 37.8442 10.7652C37.8442 11.1229 38.1337 11.4133 38.4914 11.4133Z" fill="white"/>
<path d="M39.2216 12.6227C39.59 12.6227 39.8882 12.3245 39.8882 11.956C39.8882 11.5886 39.59 11.2894 39.2216 11.2894C38.8541 11.2894 38.5549 11.5886 38.5549 11.956C38.5549 12.3245 38.8541 12.6227 39.2216 12.6227Z" fill="white"/>
<path d="M39.7565 13.9288C40.1327 13.9288 40.4377 13.6238 40.4377 13.2466C40.4377 12.8704 40.1327 12.5653 39.7565 12.5653C39.3793 12.5653 39.0742 12.8704 39.0742 13.2466C39.0742 13.6238 39.3793 13.9288 39.7565 13.9288Z" fill="white"/>
<path d="M40.0819 15.306C40.4688 15.306 40.7826 14.9922 40.7826 14.6053C40.7826 14.2183 40.4688 13.9045 40.0819 13.9045C39.6949 13.9045 39.3821 14.2183 39.3821 14.6053C39.3821 14.9922 39.6949 15.306 40.0819 15.306Z" fill="white"/>
<path d="M40.8481 15.958C40.8481 17.2689 39.7847 18.3313 38.4748 18.3313C37.1639 18.3313 36.1016 17.2689 36.1016 15.958C36.1016 14.6471 37.1639 13.5848 38.4748 13.5848C39.7847 13.5848 40.8481 14.6471 40.8481 15.958Z" fill="white"/>
</g>
<defs>
<clipPath id="clip0_656_2">
<rect width="18.9297" height="18.684" fill="white" transform="translate(21.9185 6.47571)"/>
</clipPath>
</defs>
</svg>
