<svg width="56" height="56" viewBox="0 0 56 56" fill="none" xmlns="http://www.w3.org/2000/svg">
<path d="M53 23H45.2275C43.3301 22.9996 41.4512 22.6268 39.6975 21.9025C37.9705 21.1874 36.1846 20.6236 34.36 20.2175C34.8102 19.5005 35.134 18.7116 35.3175 17.885C35.6975 17.8225 36.0775 17.7525 36.4525 17.68C36.5627 17.9266 36.7178 18.1504 36.91 18.34C37.3317 18.7617 37.9036 18.9986 38.5 18.9986C39.0964 18.9986 39.6683 18.7617 40.09 18.34C40.5117 17.9183 40.7486 17.3464 40.7486 16.75C40.7486 16.1537 40.5117 15.5817 40.09 15.16C40.0061 15.0738 39.914 14.9959 39.815 14.9275C40.0777 13.987 40.2666 13.0274 40.38 12.0575C40.3949 11.9257 40.3569 11.7933 40.2745 11.6893C40.192 11.5853 40.0718 11.5182 39.94 11.5025C39.8908 11.4979 39.8413 11.4996 39.7925 11.5075C39.687 11.527 39.5905 11.5797 39.5172 11.658C39.4439 11.7363 39.3975 11.836 39.385 11.9425C39.2633 12.9798 39.0517 14.0045 38.7525 15.005C38.75 15.0075 38.75 15.0125 38.7475 15.0175C38.7399 15.0402 38.7348 15.0637 38.7325 15.0875C38.7284 15.114 38.7267 15.1408 38.7275 15.1675C38.7275 15.1919 38.73 15.2162 38.735 15.24C38.7402 15.2836 38.7529 15.3259 38.7725 15.365C38.7776 15.3799 38.7843 15.3941 38.7925 15.4075C38.8019 15.4243 38.8128 15.4402 38.825 15.455C38.8398 15.4773 38.8574 15.4975 38.8775 15.515C38.8932 15.5328 38.9108 15.5487 38.93 15.5625C38.9325 15.565 38.9375 15.5675 38.94 15.57C38.955 15.58 38.9725 15.59 38.99 15.6C39.0009 15.6074 39.0126 15.6132 39.025 15.6175H39.0275C39.1608 15.6774 39.282 15.7613 39.385 15.865C39.5232 16.0026 39.6273 16.1705 39.6891 16.3554C39.7509 16.5403 39.7686 16.7371 39.7409 16.93C39.7132 17.123 39.6408 17.3068 39.5294 17.4668C39.4181 17.6269 39.2709 17.7587 39.0996 17.8517C38.9283 17.9448 38.7376 17.9966 38.5428 18.0029C38.3479 18.0092 38.1543 17.9699 37.9773 17.8882C37.8003 17.8064 37.6449 17.6845 37.5234 17.532C37.4019 17.3795 37.3177 17.2008 37.2775 17.01V17.005C37.255 16.8908 37.193 16.7882 37.1025 16.715C37.09 16.705 37.0775 16.695 37.0625 16.685C37.0083 16.6489 36.9475 16.6239 36.8835 16.6114C36.8196 16.599 36.7538 16.5994 36.69 16.6125H36.6875C36.2875 16.695 35.8825 16.7725 35.475 16.8425C35.4925 16.6475 35.5 16.45 35.5 16.25V14.0825C35.7225 13.425 36.9575 9.40004 35.1225 6.52254C34.09 4.90504 32.2975 3.97254 29.795 3.75254C23.1075 3.16254 21.5875 7.16504 21.31 8.19004C20.3806 8.82862 19.7157 9.78409 19.44 10.8775C19.135 12.205 19.495 13.6425 20.5 15.1525V16.25C20.5 16.45 20.5075 16.6475 20.525 16.8425C20.0475 16.76 19.56 16.665 19.075 16.5625C19.0685 16.5605 19.0618 16.5596 19.055 16.56C19.0278 16.5551 19.0002 16.5526 18.9725 16.5525C18.9153 16.5523 18.8586 16.5625 18.805 16.5825C18.7787 16.5911 18.7535 16.6028 18.73 16.6175C18.7094 16.6277 18.6901 16.6403 18.6725 16.655C18.6455 16.6733 18.6211 16.6952 18.6 16.72C18.5851 16.7357 18.5725 16.7534 18.5625 16.7725C18.5508 16.7849 18.5414 16.7993 18.535 16.815C18.5207 16.8357 18.5097 16.8585 18.5025 16.8825C18.4947 16.9047 18.488 16.9272 18.4825 16.95C18.4804 16.9565 18.4796 16.9633 18.48 16.97V16.975C18.4443 17.1675 18.3638 17.3488 18.2452 17.5045C18.1265 17.6602 17.973 17.7858 17.7969 17.8713C17.6208 17.9568 17.4271 17.9997 17.2314 17.9966C17.0357 17.9936 16.8434 17.9446 16.6701 17.8536C16.4968 17.7627 16.3473 17.6323 16.2336 17.4729C16.1199 17.3136 16.0452 17.1298 16.0155 16.9364C15.9858 16.7429 16.002 16.5452 16.0627 16.3591C16.1234 16.173 16.2269 16.0038 16.365 15.865C16.5092 15.7192 16.6881 15.6125 16.885 15.555H16.8875C16.9517 15.5355 17.0112 15.5032 17.0625 15.46C17.0745 15.4514 17.0854 15.4413 17.095 15.43C17.1595 15.3665 17.2056 15.2867 17.2285 15.1992C17.2513 15.1116 17.2501 15.0195 17.225 14.9325C17.225 14.93 17.2225 14.9275 17.2225 14.925C16.265 11.7115 16.265 8.28856 17.2225 5.07504C17.2225 5.07254 17.225 5.07004 17.225 5.06754C17.2501 4.98059 17.2513 4.88847 17.2285 4.8009C17.2056 4.71333 17.1595 4.63357 17.095 4.57004C17.0854 4.55878 17.0745 4.54871 17.0625 4.54004C17.0112 4.49687 16.9517 4.46455 16.8875 4.44504H16.885C16.6881 4.38759 16.5092 4.28089 16.365 4.13504C16.2266 3.99716 16.1225 3.82881 16.0609 3.64346C15.9992 3.45812 15.9818 3.26092 16.0101 3.06764C16.0383 2.87437 16.1114 2.69039 16.2235 2.53042C16.3356 2.37046 16.4835 2.23895 16.6556 2.14642C16.8276 2.05389 17.0189 2.00291 17.2141 1.99755C17.4094 1.99219 17.6032 2.03262 17.78 2.11558C17.9568 2.19854 18.1118 2.32174 18.2325 2.47532C18.3531 2.62891 18.4362 2.8086 18.475 3.00004C18.4775 3.01004 18.4775 3.02004 18.48 3.03004C18.4797 3.0368 18.4806 3.04355 18.4825 3.05004C18.488 3.07286 18.4947 3.09539 18.5025 3.11754C18.5097 3.1416 18.5207 3.16438 18.535 3.18504C18.5784 3.26921 18.6464 3.33812 18.73 3.38254C18.7535 3.39724 18.7787 3.409 18.805 3.41754C18.8586 3.43758 18.9153 3.44775 18.9725 3.44754C19.0002 3.44752 19.0278 3.44501 19.055 3.44004C19.06 3.44004 19.0625 3.43754 19.0675 3.43754H19.075C24.8799 2.20979 30.8757 2.19277 36.6875 3.38754H36.69C36.7538 3.40072 36.8196 3.40109 36.8835 3.38865C36.9475 3.3762 37.0083 3.35118 37.0625 3.31504C37.1738 3.2411 37.2511 3.12599 37.2775 2.99504V2.99004C37.3183 2.80009 37.4029 2.62226 37.5244 2.47069C37.646 2.31911 37.8012 2.19796 37.9777 2.11684C38.1542 2.03572 38.3473 1.99687 38.5414 2.00338C38.7356 2.00988 38.9256 2.06156 39.0963 2.15431C39.2671 2.24706 39.4138 2.37833 39.5249 2.5377C39.6361 2.69707 39.7085 2.88015 39.7365 3.07241C39.7645 3.26467 39.7474 3.46081 39.6863 3.64527C39.6253 3.82973 39.5221 3.99742 39.385 4.13504C39.2811 4.23881 39.1591 4.32269 39.025 4.38254C38.92 4.42884 38.8341 4.50987 38.7817 4.61202C38.7294 4.71416 38.7138 4.8312 38.7375 4.94349C38.7613 5.05579 38.823 5.15649 38.9122 5.22869C39.0014 5.3009 39.1127 5.34022 39.2275 5.34004C39.2972 5.33944 39.366 5.325 39.43 5.29754C39.6765 5.18737 39.9003 5.03222 40.09 4.84004C40.4969 4.41501 40.7211 3.8475 40.7145 3.25915C40.708 2.6708 40.4713 2.10841 40.055 1.69252C39.6388 1.27663 39.0763 1.04033 38.4879 1.03425C37.8995 1.02818 37.3322 1.25282 36.9075 1.66004C36.7161 1.84979 36.5618 2.07363 36.4525 2.32004C30.7935 1.21614 24.9731 1.23143 19.32 2.36504C19.2074 2.10107 19.0443 1.8616 18.84 1.66004C18.6135 1.43011 18.3403 1.2516 18.0387 1.1366C17.7372 1.0216 17.4145 0.972808 17.0924 0.99354C16.7704 1.01427 16.4565 1.10404 16.1723 1.25675C15.888 1.40946 15.6398 1.62155 15.4447 1.87861C15.2496 2.13567 15.1121 2.43169 15.0415 2.74659C14.9709 3.06149 14.9688 3.38789 15.0355 3.70365C15.1021 4.01941 15.236 4.31713 15.4278 4.57662C15.6197 4.8361 15.8651 5.05128 16.1475 5.20754C15.29 8.345 15.29 11.6551 16.1475 14.7925C15.9685 14.8915 15.8044 15.0152 15.66 15.16C15.4512 15.3688 15.2856 15.6167 15.1726 15.8895C15.0596 16.1624 15.0014 16.4548 15.0014 16.75C15.0014 17.0453 15.0596 17.3377 15.1726 17.6105C15.2856 17.8834 15.4512 18.1312 15.66 18.34C15.8688 18.5488 16.1167 18.7145 16.3895 18.8275C16.6623 18.9405 16.9547 18.9986 17.25 18.9986C17.5453 18.9986 17.8377 18.9405 18.1105 18.8275C18.3833 18.7145 18.6312 18.5488 18.84 18.34C19.0443 18.1385 19.2073 17.899 19.32 17.635C19.7775 17.7275 20.2317 17.8109 20.6825 17.885C20.866 18.7116 21.1898 19.5005 21.64 20.2175C19.8154 20.6236 18.0295 21.1874 16.3025 21.9025C14.5488 22.6267 12.6699 22.9996 10.7725 23H3C2.20455 23.0007 1.44188 23.317 0.879411 23.8795C0.316945 24.4419 0.000662045 25.2046 0 26V55.5C0.000395682 55.6325 0.0532009 55.7595 0.146883 55.8532C0.240566 55.9468 0.367513 55.9997 0.5 56H55.5C55.6325 55.9997 55.7594 55.9468 55.8531 55.8532C55.9468 55.7595 55.9996 55.6325 56 55.5V26C55.9993 25.2046 55.6831 24.4419 55.1206 23.8795C54.5581 23.317 53.7954 23.0007 53 23ZM17.5 49.48C15.8972 50.1085 14.2141 50.5091 12.5 50.67V43.9226C14.2091 43.7719 15.8905 43.3944 17.5 42.8V49.48ZM43.5 27.9225V35.17C41.7859 35.0091 40.1028 34.6085 38.5 33.98V26.7975C40.109 27.3941 41.7906 27.7725 43.5 27.9225ZM5 36.25H10.7725C11.015 36.25 11.2575 36.245 11.5 36.235V42.9851C11.2575 42.995 11.015 43 10.7725 43H5V36.25ZM31 31.9375C29.0078 31.6875 26.9922 31.6875 25 31.9375V24.695C26.9916 24.435 29.0084 24.435 31 24.695V31.9375ZM32 33.095C33.8837 33.4201 35.7274 33.9447 37.5 34.66V41.335C35.7236 40.6448 33.8804 40.1405 32 39.83V33.095ZM44.5 36.235C44.7425 36.245 44.985 36.25 45.2275 36.25H51V43H45.2275C44.985 43 44.7425 42.995 44.5 42.9851V36.235ZM17.5 33.98C15.8972 34.6085 14.2141 35.0091 12.5 35.17V27.9225C14.2091 27.7719 15.8905 27.3944 17.5 26.8V33.98ZM18.5 41.335V34.66C20.2726 33.9447 22.1163 33.4201 24 33.095V39.83C22.1196 40.1405 20.2764 40.6448 18.5 41.335ZM28 47.25C26.9971 47.2505 25.9952 47.3132 25 47.4375V40.695C26.9916 40.4351 29.0084 40.4351 31 40.695V47.4375C30.0048 47.3132 29.0029 47.2505 28 47.25ZM38.5 49.48V42.7976C40.109 43.3941 41.7906 43.7725 43.5 43.9226V50.67C41.7859 50.5091 40.1028 50.1085 38.5 49.48ZM21.5975 17.3625V17.355C21.532 16.9904 21.4994 16.6205 21.5 16.25V14C21.5811 13.3114 21.7701 12.6399 22.06 12.01C23.0325 12.055 26.025 12.265 28.3075 13.2125C30.264 14.0536 32.3704 14.4899 34.5 14.495V16.25C34.5001 16.6188 34.4683 16.9868 34.405 17.35C34.405 17.355 34.4025 17.3575 34.4025 17.3625V17.3675C34.2362 18.3163 33.8613 19.2163 33.305 20.0025C29.7987 19.3475 26.2013 19.3475 22.695 20.0025C22.1382 19.2147 21.7633 18.313 21.5975 17.3625ZM5 51.75H10.7725C11.015 51.75 11.2575 51.7451 11.5 51.7351V55H5V51.75ZM18.5 50.16C20.2726 49.4447 22.1163 48.9201 24 48.5951V55H18.5V50.16ZM32 48.5951C33.8837 48.9201 35.7274 49.4447 37.5 50.16V55H32V48.5951ZM44.5 51.7351C44.7425 51.7451 44.985 51.75 45.2275 51.75H51V55H44.5V51.7351Z" fill="#F76C1E"/>
<path d="M46.5 1H47.535L46.78 3.08C46.7496 3.16422 46.7424 3.25504 46.7591 3.34299C46.7758 3.43095 46.8159 3.5128 46.875 3.58C46.9216 3.63364 46.9792 3.67659 47.0439 3.70593C47.1087 3.73527 47.1789 3.7503 47.25 3.75C47.2862 3.74955 47.3222 3.74536 47.3575 3.7375L49.6075 3.2375C49.7305 3.20303 49.8357 3.12279 49.9014 3.01323C49.9671 2.90368 49.9884 2.77313 49.9609 2.64837C49.9334 2.52362 49.8591 2.41413 49.7534 2.34237C49.6478 2.27062 49.5186 2.24204 49.3925 2.2625L48.0325 2.565L48.72 0.670002C48.7476 0.594516 48.7565 0.513478 48.7461 0.43379C48.7356 0.354102 48.706 0.278124 48.6599 0.212327C48.6137 0.146529 48.5523 0.0928609 48.481 0.0558921C48.4096 0.0189233 48.3304 -0.000250955 48.25 2.48001e-06H46.5C46.3674 2.48001e-06 46.2402 0.052681 46.1464 0.146449C46.0527 0.240217 46 0.367394 46 0.500002C46 0.632611 46.0527 0.759787 46.1464 0.853556C46.2402 0.947324 46.3674 1 46.5 1Z" fill="#F76C1E"/>
<path d="M42.7625 5.86504C42.7825 5.94809 42.8232 6.02469 42.881 6.08766C42.9387 6.15063 43.0115 6.1979 43.0924 6.22505L45.3424 6.97505C45.3932 6.99186 45.4464 7.0003 45.4999 7.00004C45.619 7.00037 45.7342 6.95823 45.8249 6.8812C45.9157 6.80416 45.976 6.69728 45.9949 6.57978C46.0139 6.46228 45.9904 6.34186 45.9285 6.24018C45.8666 6.13849 45.7705 6.06221 45.6575 6.02504L44.1749 5.53254L45.8525 3.85254C45.9193 3.78646 45.9661 3.70276 45.9873 3.61116C46.0086 3.51957 46.0034 3.42382 45.9724 3.33504C45.9411 3.246 45.8853 3.16759 45.8115 3.10878C45.7377 3.04998 45.6487 3.01316 45.5549 3.00254L43.305 2.75254C43.173 2.73796 43.0407 2.77638 42.9371 2.85937C42.8334 2.94235 42.767 3.0631 42.7524 3.19504C42.7379 3.32699 42.7763 3.45933 42.8593 3.56294C42.9423 3.66655 43.063 3.73296 43.195 3.74754L44.4099 3.88254L42.8974 5.39754C42.8368 5.4574 42.7926 5.53182 42.7689 5.61367C42.7453 5.69553 42.7431 5.78208 42.7625 5.86504Z" fill="#F76C1E"/>
<path d="M38 5.75C37.8674 5.75 37.7402 5.80268 37.6464 5.89645C37.5527 5.99021 37.5 6.11739 37.5 6.25C37.5 6.38261 37.5527 6.50979 37.6464 6.60355C37.7402 6.69732 37.8674 6.75 38 6.75H40.67L38.8075 10.265C38.7669 10.3413 38.7467 10.4268 38.749 10.5132C38.7513 10.5995 38.7759 10.6839 38.8205 10.7579C38.865 10.8319 38.928 10.8931 39.0033 10.9356C39.0786 10.978 39.1636 11.0002 39.25 11C39.3216 10.9998 39.3923 10.9844 39.4575 10.955L39.5275 10.9225L42.2075 9.705C42.2673 9.67775 42.3211 9.639 42.3658 9.59096C42.4106 9.54292 42.4455 9.48653 42.4685 9.42501C42.4914 9.36349 42.5021 9.29805 42.4998 9.23242C42.4975 9.16679 42.4823 9.10225 42.455 9.0425C42.4278 8.98275 42.389 8.92895 42.341 8.88417C42.2929 8.8394 42.2365 8.80452 42.175 8.78154C42.1135 8.75856 42.048 8.74792 41.9824 8.75023C41.9168 8.75254 41.8523 8.76775 41.7925 8.795L40.3775 9.4375L41.9425 6.485C41.9825 6.40865 42.0022 6.32329 41.9996 6.23713C41.9971 6.15097 41.9724 6.06692 41.9279 5.99307C41.8835 5.91923 41.8207 5.85807 41.7458 5.8155C41.6708 5.77293 41.5862 5.75037 41.5 5.75H38Z" fill="#F76C1E"/>
<path d="M29.8775 16.985C30.3075 17.0998 30.7499 17.1619 31.195 17.17C32.395 17.17 32.6725 16.5625 32.725 16.4075C32.7632 16.2873 32.7546 16.1571 32.7008 16.043C32.6471 15.9289 32.5523 15.8393 32.4353 15.7922C32.3183 15.7451 32.1878 15.7439 32.07 15.7889C31.9522 15.834 31.8557 15.9218 31.8 16.035C31.7525 16.075 31.4 16.335 30.1225 16.015C29.9939 15.9825 29.8576 16.0024 29.7437 16.0704C29.6297 16.1384 29.5475 16.2488 29.515 16.3775C29.4825 16.5061 29.5024 16.6424 29.5704 16.7563C29.6384 16.8702 29.7489 16.9525 29.8775 16.985Z" fill="#F76C1E"/>
<path d="M25.8775 16.015C24.5975 16.335 24.2475 16.075 24.2 16.035C24.1442 15.9218 24.0478 15.834 23.93 15.7889C23.8122 15.7439 23.6817 15.7451 23.5647 15.7922C23.4477 15.8393 23.3528 15.9289 23.2991 16.043C23.2454 16.1571 23.2368 16.2873 23.275 16.4075C23.3275 16.5625 23.605 17.17 24.805 17.17C25.25 17.1619 25.6924 17.0998 26.1225 16.985C26.2511 16.9525 26.3616 16.8702 26.4295 16.7563C26.4975 16.6424 26.5175 16.5061 26.485 16.3775C26.4525 16.2488 26.3702 16.1384 26.2563 16.0704C26.1424 16.0024 26.0061 15.9825 25.8775 16.015Z" fill="#F76C1E"/>
</svg>
