<svg width="56" height="56" viewBox="0 0 56 56" fill="none" xmlns="http://www.w3.org/2000/svg">
<path d="M51.8925 47.0175L42.4275 46.19C42.3622 46.1834 42.2962 46.1899 42.2335 46.2093C42.1707 46.2286 42.1124 46.2602 42.0621 46.3024C42.0118 46.3446 41.9704 46.3964 41.9404 46.4548C41.9105 46.5132 41.8925 46.577 41.8875 46.6425L41.845 47.1425L29.6725 46.0775L26.8025 45.825L14.7925 44.775L14.8375 44.275C14.8489 44.1428 14.8074 44.0114 14.7221 43.9097C14.6368 43.808 14.5147 43.7443 14.3825 43.7325L13.73 43.675C13.7197 43.6318 13.7028 43.5905 13.68 43.5525C9.37252 36.175 9.08252 30.81 9.59752 27.61C9.80405 26.251 10.2367 24.9361 10.8775 23.72C11.0962 23.3081 11.3488 22.9151 11.6325 22.545L25.81 27.7875C25.882 27.8145 25.9593 27.8245 26.0358 27.8165C26.1123 27.8086 26.1859 27.7831 26.2509 27.7419C26.3158 27.7007 26.3703 27.645 26.4101 27.5791C26.4498 27.5133 26.4738 27.4391 26.48 27.3625L26.685 25.0125C26.6933 24.9189 26.6749 24.8248 26.632 24.7412C26.5891 24.6576 26.5234 24.5878 26.4425 24.54L16.5273 18.675L11.2023 7.24999C11.1452 7.13014 11.0439 7.03698 10.9198 6.98999C10.7949 6.94558 10.6576 6.95186 10.5373 7.00749L8.72502 7.85249C8.6046 7.90884 8.51121 8.01032 8.46502 8.13499C8.44242 8.19672 8.43232 8.26233 8.43533 8.328C8.43833 8.39367 8.45437 8.45808 8.48252 8.51749L10.9725 13.8575C10.0675 14.5525 7.82002 16.8175 7.33502 22.46C7.32784 22.5365 7.33898 22.6136 7.36752 22.685C3.63752 27.845 2.44002 32.31 2.17502 35.47C1.82502 39.6375 2.94502 42.37 3.26252 43.05C2.38916 43.297 1.61155 43.8037 1.03288 44.503C0.454211 45.2022 0.101838 46.0608 0.0225175 46.965L0.0175174 47.02C-0.0520273 47.8207 0.0953662 48.6254 0.444213 49.3495C0.793059 50.0736 1.33048 50.6903 2.00002 51.135V55.5C2.00041 55.6325 2.05322 55.7594 2.1469 55.8531C2.24058 55.9468 2.36753 55.9996 2.50002 56H52C52.0829 55.9997 52.1644 55.9791 52.2375 55.94C52.2382 55.94 52.2388 55.9397 52.2393 55.9393C52.2398 55.9388 52.24 55.9382 52.24 55.9375C53.2235 55.7723 54.1243 55.2856 54.8016 54.5537C55.4788 53.8217 55.8941 52.8858 55.9825 51.8925C55.995 51.76 56 51.63 56 51.4975C55.9983 50.3728 55.5758 49.2894 54.8157 48.4603C54.0556 47.6313 53.0129 47.1166 51.8925 47.0175ZM29.1348 47.0325L41.7573 48.1375L41.3198 53.12L14.2698 50.7525L14.7073 45.77L29.1348 47.0325ZM25.5423 26.6225L11.6098 21.47L10.0473 20.8925C10.9198 19.865 11.8973 18.815 12.9948 17.745L15.8723 19.4475L25.6623 25.24L25.5423 26.6225ZM1.01227 47.1075L1.01727 47.0525C1.086 46.2835 1.40845 45.5591 1.93388 44.9934C2.45932 44.4277 3.15791 44.0527 3.91977 43.9275C4.10322 43.8973 4.28885 43.8823 4.47477 43.8825C4.57477 43.8825 4.67727 43.8875 4.77977 43.895L13.7973 44.685L13.7523 45.1875L13.2298 51.165L13.1873 51.6575L4.16977 50.87C3.70384 50.8302 3.25111 50.6949 2.83977 50.4725C2.2393 50.152 1.74608 49.6623 1.42123 49.0641C1.09638 48.466 0.954188 47.7857 1.01227 47.1075ZM54.9873 51.805C54.9091 52.6765 54.5081 53.4873 53.8629 54.0784C53.2178 54.6695 52.375 54.9982 51.5 55C51.4 55 51.2975 54.9975 51.195 54.9875L42.23 54.2025L42.2725 53.705L42.795 47.7275L42.8 47.6825L42.84 47.23L51.805 48.0125C52.7295 48.0946 53.5836 48.5399 54.1802 49.2509C54.7768 49.9618 55.0671 50.8803 54.9875 51.805H54.9873Z" fill="#F76C1E"/>
<path d="M48.5875 35.56L47.17 29.73C47.1543 29.6659 47.1261 29.6056 47.087 29.5524C47.048 29.4992 46.9989 29.4542 46.9425 29.42C46.8866 29.3856 46.8244 29.3627 46.7596 29.3528C46.6947 29.343 46.6285 29.3462 46.565 29.3625L45.1075 29.7175C45.0117 29.7402 44.9247 29.7906 44.8575 29.8625L44.245 30.525C44.2319 30.5398 44.2202 30.5557 44.21 30.5725L40.36 31.0098L40.3012 31.02L39.0012 31.3225L38.0762 27.66C38.2926 26.9956 38.4023 26.3012 38.4012 25.6025V24.7975C38.4149 24.7814 38.4266 24.7638 38.4362 24.745C38.4768 24.6702 38.4981 24.5864 38.4981 24.5012C38.4981 24.4161 38.4768 24.3323 38.4362 24.2575L37.4387 22.4575C37.3424 22.2316 37.2671 21.9972 37.2137 21.7575L39.4162 21.3025C39.5025 21.2843 39.5826 21.2438 39.6484 21.185C39.7142 21.1263 39.7635 21.0513 39.7912 20.9675L40.2612 19.505C40.292 19.4075 40.2929 19.303 40.2637 19.205C39.7412 17.5025 38.7662 14.8625 38.0862 13.32C38.0819 13.3076 38.076 13.2959 38.0687 13.285C38.0231 13.0106 37.9199 12.7489 37.7661 12.5172C37.6123 12.2854 37.4113 12.0887 37.1762 11.94C36.6927 10.724 36.5117 9.40887 36.6487 8.1075C36.6487 8.1005 36.6487 8.0935 36.6502 8.0865C36.6539 7.99212 36.6898 7.90184 36.7519 7.83063C36.8139 7.75943 36.8985 7.71157 36.9915 7.695C38.1902 7.483 39.4772 6.83975 39.646 5.31775L39.6535 5.25275C39.6875 4.87614 39.6622 4.49651 39.5785 4.12775C39.6785 4.11218 39.7771 4.08877 39.8735 4.05775C40.001 4.28525 40.2485 4.96275 40.2485 6.75025C40.2485 9.31525 41.2985 10.9903 42.2735 11.4628C42.449 11.551 42.642 11.5989 42.8385 11.6027C43.0467 11.6052 43.2496 11.5364 43.4135 11.4078C43.6685 11.2052 43.9335 10.7778 43.736 9.89275C43.5755 9.08537 43.5585 8.25601 43.686 7.44275C43.8744 6.00983 43.8075 4.55485 43.4885 3.14525C43.2535 2.05275 42.7585 1.35025 42.021 1.06025C41.051 0.67775 39.9835 1.16275 39.506 1.43275C39.4257 1.40403 39.3428 1.3831 39.2585 1.37025C38.8857 1.32328 38.5078 1.40061 38.1835 1.59025C37.245 0.5775 36.09 0 35 0C33.3775 0 31.54 -2.38419e-07 30.7575 1.1575C30.2525 1.9075 30.285 2.9975 30.865 4.48C30.5775 5.0175 30.08 6.4625 30.925 9.205C30.981 9.43554 31.0952 9.64785 31.2567 9.82162C31.4182 9.99539 31.6216 10.1248 31.8475 10.1975C31.9942 10.2418 32.1467 10.2637 32.3 10.2625C32.6815 10.2491 33.0565 10.159 33.4025 9.9975C33.4135 10.8397 33.4761 11.6805 33.59 12.515C32.8745 12.988 32.276 13.6176 31.8399 14.3561C31.4037 15.0945 31.1413 15.9226 31.0725 16.7775L30.9175 19.7575C29.155 20.1225 29.1875 20.6575 29.1975 20.845C29.235 21.4775 29.7375 22.1725 30.3425 22.9525L30.4975 23.1525C30.5624 23.2367 30.641 23.3093 30.73 23.3675L30.6575 24.7225L28.38 33.755L28.365 33.8643C28.2975 36.4393 27.77 39.2472 26.7425 42.4325L26.3125 42.3125C25.9645 42.2147 25.6006 42.1865 25.2416 42.2296C24.8827 42.2727 24.5358 42.3862 24.2209 42.5636C23.9059 42.7411 23.6291 42.979 23.4063 43.2636C23.1835 43.5483 23.0191 43.8741 22.9225 44.2225C22.9046 44.2859 22.8994 44.3521 22.9072 44.4175C22.915 44.4829 22.9357 44.5461 22.9679 44.6034C23.0002 44.6608 23.0435 44.7112 23.0954 44.7518C23.1472 44.7924 23.2065 44.8224 23.27 44.84L26.8025 45.825L29.05 46.4525C29.0942 46.4634 29.1394 46.4693 29.185 46.47C29.2938 46.4697 29.3995 46.4339 29.4862 46.368C29.5728 46.3021 29.6356 46.2098 29.665 46.105L29.6725 46.0775L30.0675 44.6575C30.0946 44.5633 30.0928 44.4632 30.0625 44.37L29.7825 43.5125C29.7773 43.4953 29.7706 43.4785 29.7625 43.4625L32.11 38.2625C32.1376 38.203 32.1521 38.1381 32.1525 38.0725L32.2475 34.885L34.17 32.7825L36.0125 35.4075C36.1504 35.6051 36.334 35.7665 36.5478 35.878C36.7615 35.9894 36.9989 36.0476 37.24 36.0475C37.4497 36.0479 37.6569 36.0026 37.8475 35.915C40.0746 34.9292 42.4025 34.189 44.79 33.7075L44.895 34.1425C45.0405 34.741 45.3828 35.2733 45.867 35.654C46.3511 36.0348 46.949 36.242 47.565 36.2425C47.7839 36.2422 48.0021 36.2162 48.215 36.165C48.3451 36.1334 48.4574 36.0516 48.5275 35.9375C48.5967 35.8246 48.6182 35.6888 48.5875 35.56ZM38.4025 16.8425C38.73 17.7375 39.0375 18.6275 39.2625 19.3475L38.9275 20.3825L36.565 20.8725C36.5344 20.8762 36.5042 20.8829 36.475 20.8925L34.0625 21.39L33.985 21.1775L33.73 20.475L37.41 19.2225C37.4762 19.205 37.5381 19.174 37.5919 19.1315C37.6456 19.0891 37.6901 19.036 37.7225 18.9757C37.7549 18.9153 37.7746 18.8489 37.7803 18.7807C37.786 18.7124 37.7776 18.6437 37.7556 18.5788C37.7336 18.5139 37.6985 18.4542 37.6525 18.4034C37.6065 18.3527 37.5506 18.3119 37.4882 18.2836C37.4258 18.2554 37.3582 18.2403 37.2897 18.2392C37.2212 18.2382 37.1532 18.2512 37.09 18.2775L36.63 18.4325L36.2775 17.81L38.4025 16.8425ZM32.1425 9.2425C32.09 9.225 31.9675 9.1875 31.8825 8.91C31.03 6.135 31.7275 4.97 31.795 4.87C33.125 4.7825 34.41 4.8325 34.87 4.9825C34.42 6.1675 35.1875 7.4675 35.2225 7.525C35.2631 7.59391 35.3197 7.65196 35.3877 7.69419C35.4556 7.73642 35.5327 7.76157 35.6125 7.7675C35.6525 7.77 35.695 7.775 35.74 7.775C35.6909 7.84326 35.6615 7.92368 35.655 8.0075C35.5314 9.22693 35.6495 10.4587 36.0025 11.6325C35.9269 11.6321 35.8515 11.6396 35.7775 11.655C35.3509 11.7257 34.9339 11.8457 34.535 12.0125C34.4375 11.2029 34.3932 10.3879 34.4025 9.5725C34.405 9.5278 34.4 9.48299 34.3875 9.44C34.5425 9.3325 34.655 9.245 34.715 9.1975C34.771 9.15837 34.8184 9.10816 34.8543 9.04997C34.8902 8.99179 34.9138 8.92687 34.9236 8.85922C34.9333 8.79157 34.9292 8.72263 34.9113 8.65666C34.8934 8.59068 34.8622 8.52908 34.8195 8.47566C34.7769 8.42223 34.7237 8.37811 34.6634 8.34603C34.603 8.31395 34.5367 8.29459 34.4686 8.28914C34.4004 8.28369 34.3319 8.29226 34.2672 8.31434C34.2025 8.33642 34.143 8.37153 34.0925 8.4175C33.57 8.8325 32.5897 9.38 32.1425 9.2425ZM30.25 21.0025C30.6546 20.8589 31.0701 20.7477 31.4925 20.67C31.5225 20.665 31.55 20.66 31.5775 20.655C31.7076 20.6345 31.8244 20.5636 31.9025 20.4575L32.1775 20.08L32.6625 20.47L33.115 21.7125L31.4025 22.53C31.3864 22.5394 31.3685 22.5454 31.35 22.5476C31.3315 22.5497 31.3128 22.548 31.295 22.5425C31.2931 22.5422 31.2913 22.5414 31.29 22.54L31.1325 22.3375C30.7872 21.9285 30.491 21.4804 30.25 21.0025ZM24.09 44.03C24.2474 43.7796 24.4657 43.573 24.7245 43.4297C24.9833 43.2863 25.2741 43.2107 25.57 43.21C25.7296 43.2107 25.8885 43.2326 26.0425 43.275L26.9075 43.5175L28.915 44.0775V44.08L29.065 44.535L28.8375 45.355L24.09 44.03ZM31.385 34.3475C31.3041 34.4358 31.2579 34.5503 31.255 34.67L31.1575 37.9425L28.8625 43.025L27.7075 42.7025C28.745 39.465 29.2875 36.595 29.3625 33.945L30.575 29.14C31.5452 30.1916 32.8032 30.9349 34.1925 31.2775L31.385 34.3475ZM37.4375 35.005C37.332 35.0519 37.2135 35.0603 37.1025 35.0288C36.9915 34.9973 36.895 34.9278 36.83 34.8325L35.0075 32.235L36.1875 30.58C36.2875 30.4925 36.3825 30.4 36.475 30.305C36.525 30.255 36.575 30.2025 36.6225 30.15C36.665 30.105 36.7075 30.055 36.7525 30.0075C36.7624 29.9965 36.7716 29.9848 36.78 29.9725C36.8225 29.925 36.8625 29.8775 36.9 29.83C37.0393 29.6613 37.1695 29.4852 37.29 29.3025C37.3325 29.24 37.3725 29.175 37.4125 29.11L38.1525 32.0425C38.1853 32.1695 38.2663 32.2786 38.3784 32.3468C38.4904 32.415 38.6246 32.4367 38.7525 32.4075L40.5 32L44.27 31.57L44.5525 32.735C42.1054 33.2312 39.7197 33.9923 37.4375 35.005ZM45.8675 33.905L45.6475 33.0025L45.1625 31.0075V31.005L45.49 30.6525L46.315 30.4525L47.48 35.24C47.1032 35.221 46.7427 35.0808 46.4521 34.8402C46.1615 34.5996 45.9564 34.2716 45.8675 33.905Z" fill="#F76C1E"/>
</svg>
