<svg width="113" height="98" viewBox="0 0 113 98" fill="none" xmlns="http://www.w3.org/2000/svg">
<path d="M95.7465 49.9374L91.2933 61.5249C91.2247 61.7016 91.1043 61.8534 90.9479 61.9605C90.7915 62.0676 90.6063 62.1249 90.4168 62.1249H90.4027C90.2111 62.1225 90.0248 62.0615 89.8689 61.95C89.713 61.8386 89.595 61.682 89.5308 61.5014L81.8527 39.7374L78.609 46.5905C78.5319 46.7501 78.4114 46.8849 78.2614 46.9794C78.1114 47.0739 77.9378 47.1243 77.7605 47.1249H74.9996L70.5886 54.1842C70.4986 54.3322 70.3685 54.4518 70.2134 54.5289C70.0583 54.606 69.8844 54.6377 69.7121 54.6202C69.5397 54.6063 69.3746 54.5446 69.2354 54.4419C69.0963 54.3391 68.9886 54.1996 68.9246 54.0389L59.4183 30.7092L52.8277 44.7108C52.7516 44.8716 52.6316 45.0076 52.4814 45.103C52.3313 45.1984 52.1572 45.2493 51.9793 45.2499H49.0496L42.5105 58.7827C42.4362 58.9343 42.3227 59.0634 42.1818 59.1565C42.0409 59.2497 41.8776 59.3035 41.709 59.3124C41.5404 59.3198 41.3729 59.2815 41.2243 59.2015C41.0758 59.1214 40.9517 59.0026 40.8652 58.8577L35.5121 49.9374H30.4168C30.2553 49.937 30.0967 49.895 29.9563 49.8153C29.8158 49.7356 29.6984 49.6211 29.6152 49.4827L24.7824 41.4342L19.8511 49.4873C19.7674 49.6249 19.6497 49.7385 19.5093 49.8173C19.3689 49.8962 19.2106 49.9375 19.0496 49.9374H12.6136C12.8515 61.4636 17.5972 72.4376 25.8329 80.5051C34.0686 88.5726 45.1381 93.091 56.6668 93.091C68.1955 93.091 79.265 88.5726 87.5006 80.5051C95.7363 72.4376 100.482 61.4636 100.72 49.9374H95.7465ZM81.9793 66.8124C81.9793 66.5637 82.078 66.3253 82.2539 66.1494C82.4297 65.9736 82.6681 65.8749 82.9168 65.8749C83.1654 65.8749 83.4039 65.9736 83.5797 66.1494C83.7555 66.3253 83.8543 66.5637 83.8543 66.8124V74.3124C83.8543 74.561 83.7555 74.7994 83.5797 74.9753C83.4039 75.1511 83.1654 75.2499 82.9168 75.2499C82.6681 75.2499 82.4297 75.1511 82.2539 74.9753C82.078 74.7994 81.9793 74.561 81.9793 74.3124V66.8124ZM75.4168 70.5624C75.4168 70.3137 75.5155 70.0753 75.6914 69.8994C75.8672 69.7236 76.1056 69.6249 76.3543 69.6249C76.6029 69.6249 76.8414 69.7236 77.0172 69.8994C77.193 70.0753 77.2918 70.3137 77.2918 70.5624V74.3124C77.2918 74.561 77.193 74.7994 77.0172 74.9753C76.8414 75.1511 76.6029 75.2499 76.3543 75.2499C76.1056 75.2499 75.8672 75.1511 75.6914 74.9753C75.5155 74.7994 75.4168 74.561 75.4168 74.3124V70.5624ZM68.8543 66.8124C68.8543 66.5637 68.953 66.3253 69.1289 66.1494C69.3047 65.9736 69.5431 65.8749 69.7918 65.8749C70.0404 65.8749 70.2789 65.9736 70.4547 66.1494C70.6305 66.3253 70.7293 66.5637 70.7293 66.8124V74.3124C70.7293 74.561 70.6305 74.7994 70.4547 74.9753C70.2789 75.1511 70.0404 75.2499 69.7918 75.2499C69.5431 75.2499 69.3047 75.1511 69.1289 74.9753C68.953 74.7994 68.8543 74.561 68.8543 74.3124V66.8124ZM62.2918 70.5624C62.2918 70.3137 62.3905 70.0753 62.5664 69.8994C62.7422 69.7236 62.9806 69.6249 63.2293 69.6249C63.4779 69.6249 63.7164 69.7236 63.8922 69.8994C64.068 70.0753 64.1668 70.3137 64.1668 70.5624V74.3124C64.1668 74.561 64.068 74.7994 63.8922 74.9753C63.7164 75.1511 63.4779 75.2499 63.2293 75.2499C62.9806 75.2499 62.7422 75.1511 62.5664 74.9753C62.3905 74.7994 62.2918 74.561 62.2918 74.3124V70.5624ZM55.7293 66.8124C55.7293 66.5637 55.828 66.3253 56.0039 66.1494C56.1797 65.9736 56.4181 65.8749 56.6668 65.8749C56.9154 65.8749 57.1539 65.9736 57.3297 66.1494C57.5055 66.3253 57.6043 66.5637 57.6043 66.8124V74.3124C57.6043 74.561 57.5055 74.7994 57.3297 74.9753C57.1539 75.1511 56.9154 75.2499 56.6668 75.2499C56.4181 75.2499 56.1797 75.1511 56.0039 74.9753C55.828 74.7994 55.7293 74.561 55.7293 74.3124V66.8124ZM49.1668 70.5624C49.1668 70.3137 49.2655 70.0753 49.4414 69.8994C49.6172 69.7236 49.8556 69.6249 50.1043 69.6249C50.3529 69.6249 50.5914 69.7236 50.7672 69.8994C50.943 70.0753 51.0418 70.3137 51.0418 70.5624V74.3124C51.0418 74.561 50.943 74.7994 50.7672 74.9753C50.5914 75.1511 50.3529 75.2499 50.1043 75.2499C49.8556 75.2499 49.6172 75.1511 49.4414 74.9753C49.2655 74.7994 49.1668 74.561 49.1668 74.3124V70.5624ZM42.6043 66.8124C42.6043 66.5637 42.703 66.3253 42.8789 66.1494C43.0547 65.9736 43.2931 65.8749 43.5418 65.8749C43.7904 65.8749 44.0289 65.9736 44.2047 66.1494C44.3805 66.3253 44.4793 66.5637 44.4793 66.8124V74.3124C44.4793 74.561 44.3805 74.7994 44.2047 74.9753C44.0289 75.1511 43.7904 75.2499 43.5418 75.2499C43.2931 75.2499 43.0547 75.1511 42.8789 74.9753C42.703 74.7994 42.6043 74.561 42.6043 74.3124V66.8124ZM36.0418 70.5624C36.0418 70.3137 36.1405 70.0753 36.3164 69.8994C36.4922 69.7236 36.7306 69.6249 36.9793 69.6249C37.2279 69.6249 37.4664 69.7236 37.6422 69.8994C37.818 70.0753 37.9168 70.3137 37.9168 70.5624V74.3124C37.9168 74.561 37.818 74.7994 37.6422 74.9753C37.4664 75.1511 37.2279 75.2499 36.9793 75.2499C36.7306 75.2499 36.4922 75.1511 36.3164 74.9753C36.1405 74.7994 36.0418 74.561 36.0418 74.3124V70.5624ZM29.4793 66.8124C29.4793 66.5637 29.578 66.3253 29.7539 66.1494C29.9297 65.9736 30.1681 65.8749 30.4168 65.8749C30.6654 65.8749 30.9039 65.9736 31.0797 66.1494C31.2555 66.3253 31.3543 66.5637 31.3543 66.8124V74.3124C31.3543 74.561 31.2555 74.7994 31.0797 74.9753C30.9039 75.1511 30.6654 75.2499 30.4168 75.2499C30.1681 75.2499 29.9297 75.1511 29.7539 74.9753C29.578 74.7994 29.4793 74.561 29.4793 74.3124V66.8124Z" fill="black"/>
<path d="M110.104 46.1874C109.523 46.1868 108.956 46.3669 108.481 46.7028C108.007 47.0387 107.648 47.5139 107.456 48.0624H105.407C105.255 39.7738 102.984 31.6619 98.8121 24.4984L103.692 19.6984C104.534 18.8734 105.204 17.8885 105.661 16.8015C106.118 15.7144 106.353 14.5471 106.353 13.3679C106.353 12.1887 106.118 11.0213 105.661 9.93428C105.204 8.84724 104.534 7.86237 103.692 7.03742C101.976 5.36592 99.6748 4.43054 97.2793 4.43054C94.8837 4.43054 92.5828 5.36592 90.8668 7.03742L88.073 9.78898L85.2793 7.03742C84.1917 5.97267 82.8555 5.19634 81.3919 4.77887C79.9283 4.36139 78.3836 4.316 76.898 4.64679C70.5527 1.73217 63.6495 0.231901 56.6668 0.249916C43.9042 0.264191 31.655 5.27715 22.5441 14.2145C13.4333 23.1519 8.18578 35.3025 7.92616 48.0624H5.87772C5.65657 47.4369 5.22141 46.9097 4.64915 46.574C4.07689 46.2383 3.40438 46.1157 2.75047 46.2279C2.09657 46.3401 1.50338 46.6799 1.07575 47.1871C0.648118 47.6944 0.413574 48.3365 0.413574 48.9999C0.413574 49.6634 0.648118 50.3055 1.07575 50.8127C1.50338 51.32 2.09657 51.6597 2.75047 51.7719C3.40438 51.8841 4.07689 51.7615 4.64915 51.4258C5.22141 51.0901 5.65657 50.5629 5.87772 49.9374H7.92616C8.17647 62.6987 13.4216 74.8528 22.535 83.7892C31.6484 92.7256 43.9031 97.7314 56.6668 97.7314C69.4305 97.7314 81.6852 92.7256 90.7986 83.7892C99.9119 74.8528 105.157 62.6987 105.407 49.9374H107.456C107.628 50.4237 107.93 50.8533 108.33 51.1793C108.729 51.5053 109.211 51.7151 109.722 51.7859C110.233 51.8566 110.753 51.7854 111.226 51.5802C111.7 51.375 112.107 51.0437 112.405 50.6224C112.702 50.2011 112.878 49.7061 112.913 49.1916C112.949 48.677 112.842 48.1627 112.604 47.7049C112.367 47.247 112.008 46.8633 111.567 46.5957C111.126 46.3281 110.62 46.1868 110.104 46.1874V46.1874ZM83.9621 8.37804L87.4168 11.7718C87.5912 11.9451 87.8271 12.0424 88.073 12.0424C88.3189 12.0424 88.5549 11.9451 88.7293 11.7718L92.184 8.37804C93.5467 7.04826 95.3753 6.3039 97.2793 6.3039C99.1833 6.3039 101.012 7.04826 102.375 8.37804C103.041 9.02719 103.57 9.80313 103.932 10.6601C104.293 11.5171 104.479 12.4378 104.479 13.3679C104.479 14.298 104.293 15.2187 103.932 16.0757C103.57 16.9326 103.041 17.7086 102.375 18.3577L96.9512 23.6921L93.5199 27.0718L88.073 32.4296L73.7715 18.3577C72.5841 17.2011 71.8483 15.6589 71.6962 14.0084C71.5441 12.3578 71.9858 10.7071 72.9418 9.35304C73.1884 9.00367 73.4661 8.67734 73.7715 8.37804C74.6833 7.47801 75.8195 6.83867 77.0621 6.52648C77.652 6.37676 78.2582 6.30118 78.8668 6.30148C80.7724 6.29579 82.6033 7.04198 83.9621 8.37804V8.37804ZM48.2293 33.0624V34.9374H31.3543V33.0624H48.2293ZM31.3543 27.4374V25.5624H48.2293V27.4374H31.3543ZM56.6668 95.8749C44.4015 95.8605 32.6292 91.045 23.87 82.4593C15.1108 73.8736 10.0609 62.2 9.80116 49.9374C9.79648 49.6234 9.79179 49.314 9.79179 48.9999C9.79179 48.6859 9.79648 48.3765 9.80116 48.0624C10.0609 35.7999 15.1108 24.1262 23.87 15.5405C32.6292 6.9548 44.4015 2.13932 56.6668 2.12492C62.7433 2.10906 68.7636 3.28765 74.3855 5.59367C73.6794 5.9852 73.0297 6.4709 72.4543 7.03742C72.2574 7.23429 72.0699 7.43585 71.8965 7.6421C65.3094 5.22201 58.2398 4.40924 51.2754 5.27136C44.3111 6.13349 37.6531 8.6456 31.855 12.5989C26.0569 16.5521 21.2862 21.8323 17.9396 28.0005C14.593 34.1686 12.7671 41.0465 12.6137 48.0624H18.5246L23.9902 39.1374C24.0739 38.9999 24.1917 38.8862 24.3321 38.8074C24.4725 38.7286 24.6308 38.6873 24.7918 38.6874H24.7965C24.9574 38.6871 25.1156 38.729 25.2554 38.8087C25.3952 38.8885 25.5117 39.0034 25.5933 39.1421L30.9465 48.0624H36.0418C36.2032 48.0628 36.3619 48.1048 36.5023 48.1845C36.6427 48.2641 36.7602 48.3787 36.8433 48.5171L41.5777 56.4062L47.6199 43.9046C47.6962 43.7457 47.816 43.6116 47.9653 43.5179C48.1146 43.4242 48.2874 43.3746 48.4637 43.3749H51.384L58.6308 27.9765C58.7086 27.812 58.8326 27.6737 58.9876 27.5785C59.1427 27.4832 59.3221 27.4352 59.504 27.4401C59.6858 27.4451 59.8623 27.5029 60.0119 27.6065C60.1615 27.71 60.2778 27.8549 60.3465 28.0234L69.9699 51.6343L73.6824 45.6905C73.7676 45.5561 73.8852 45.4453 74.0245 45.3683C74.1638 45.2913 74.3202 45.2506 74.4793 45.2499H77.1652L81.1308 36.878C81.2125 36.712 81.3405 36.5732 81.4994 36.4783C81.6583 36.3835 81.8413 36.3367 82.0262 36.3437C82.2119 36.3532 82.3907 36.4175 82.54 36.5284C82.6893 36.6394 82.8025 36.792 82.8652 36.9671L90.4543 58.478L94.2277 48.6624C94.2963 48.4857 94.4167 48.3339 94.5732 48.2268C94.7296 48.1197 94.9147 48.0624 95.1043 48.0624H100.72C100.572 41.0076 98.7314 34.0916 95.3527 27.8968L97.4293 25.8577C101.287 32.6331 103.385 40.2672 103.532 48.0624C103.537 48.3765 103.542 48.6859 103.542 48.9999C103.542 49.314 103.537 49.6234 103.532 49.9374C103.273 62.2 98.2227 73.8736 89.4636 82.4593C80.7044 91.045 68.9321 95.8605 56.6668 95.8749V95.8749Z" fill="black"/>
</svg>
