<svg width="56" height="56" viewBox="0 0 56 56" fill="none" xmlns="http://www.w3.org/2000/svg">
<path d="M55.7 43.247C54.925 42.912 50.9875 41.2645 49.4225 41.8495C48.2499 42.3122 47.1443 42.9293 46.135 43.6845C44.3275 41.652 42.0625 41.087 40 41.142V28.65L40.8525 27.7975C40.8994 27.7516 40.9366 27.6967 40.9619 27.6362C40.9872 27.5756 41.0002 27.5106 41 27.445V22.0585C41.0002 21.9929 40.9872 21.9279 40.9619 21.8673C40.9366 21.8068 40.8994 21.7519 40.8525 21.706L40 20.8535V5.5C39.9989 4.8373 39.7351 4.20207 39.2665 3.73347C38.7979 3.26488 38.1627 3.00112 37.5 3H32.5V2.5C32.4996 2.36751 32.4468 2.24057 32.3531 2.14688C32.2594 2.0532 32.1325 2.0004 32 2H23.95C23.834 1.43568 23.527 0.928625 23.0807 0.564303C22.6344 0.199981 22.0761 0.000680447 21.5 0H18.5C17.9239 0.000680447 17.3656 0.199981 16.9193 0.564303C16.473 0.928625 16.166 1.43568 16.05 2H8C7.86751 2.0004 7.74057 2.0532 7.64688 2.14688C7.5532 2.24057 7.5004 2.36751 7.5 2.5V3H2.5C1.8373 3.00112 1.20207 3.26488 0.733474 3.73347C0.264877 4.20207 0.00112372 4.8373 0 5.5V47.502C0.00112372 48.1647 0.264877 48.7999 0.733474 49.2685C1.20207 49.7371 1.8373 50.0009 2.5 50.002H33.6575C38.84 53.3472 43.03 54.0348 45.6025 54.0348C46.4851 54.0484 47.3659 53.9528 48.225 53.75C48.57 54.105 48.915 54.4675 49.245 54.8225C50.2525 55.83 51.195 56 51.715 56C51.8263 55.9998 51.9374 55.9914 52.0475 55.975H55.5C55.6325 55.9746 55.7594 55.9218 55.8531 55.8281C55.9468 55.7344 55.9996 55.6075 56 55.475V43.707C56.0003 43.6094 55.9721 43.5139 55.9188 43.4321C55.8655 43.3504 55.7894 43.286 55.7 43.247ZM34.7575 37.9043C33.44 35.5993 33.0875 31.894 33.085 31.859C33.0826 31.8223 33.075 31.7861 33.0625 31.7515H36V41.932C35.7 42.037 35.4325 42.1445 35.2 42.242C35.445 40.8518 35.4875 39.1843 34.7575 37.9043V37.9043ZM27.3125 46.002C27.3725 46.4295 27.425 46.7745 27.4575 47.002H3.5C3.36751 47.0016 3.24057 46.9488 3.14688 46.8551C3.0532 46.7614 3.0004 46.6345 3 46.502V6.5C3.0004 6.36751 3.0532 6.24057 3.14688 6.14688C3.24057 6.0532 3.36751 6.0004 3.5 6H8.0025C8.14641 6.34875 8.32216 6.6835 8.5275 7C9.11411 7.91962 9.92302 8.67657 10.8795 9.20091C11.836 9.72525 12.9092 10.0001 14 10H26C27.0908 10.0001 28.164 9.72525 29.1205 9.20091C30.077 8.67657 30.8859 7.91962 31.4725 7C31.6778 6.6835 31.8536 6.34875 31.9975 6H36.5C36.6325 6.0004 36.7594 6.0532 36.8531 6.14688C36.9468 6.24057 36.9996 6.36751 37 6.5V17.8608C36.9138 17.7887 36.8048 17.7497 36.6925 17.7507H31.3075C31.2419 17.7506 31.1769 17.7635 31.1163 17.7888C31.0558 17.8142 31.0009 17.8514 30.955 17.8983L27.1475 21.706C27.1006 21.7519 27.0634 21.8068 27.0381 21.8673C27.0128 21.9279 26.9998 21.9929 27 22.0585V27.4438C26.9998 27.5094 27.0128 27.5744 27.0381 27.6349C27.0634 27.6955 27.1006 27.7503 27.1475 27.7962L28.915 29.5638C28.585 30.6988 27.1925 35.534 26.8125 37.719C26.4925 39.575 27.01 43.8395 27.3125 46.002V46.002ZM18.5 4V3C18.5004 2.86751 18.5532 2.74057 18.6469 2.64688C18.7406 2.5532 18.8675 2.5004 19 2.5H21C21.1325 2.5004 21.2594 2.5532 21.3531 2.64688C21.4468 2.74057 21.4996 2.86751 21.5 3V4H18.5ZM55 54.975H52C51.9605 54.9753 51.9212 54.9795 51.8825 54.9875C51.845 54.9975 51.005 55.17 49.965 54.13C49.5525 53.685 49.1125 53.2275 48.6825 52.7875C47.195 51.2725 45.7925 49.9548 45.775 49.9398C45.6782 49.8489 45.5493 49.8003 45.4166 49.8045C45.2839 49.8087 45.1583 49.8654 45.0675 49.9622C44.9767 50.0591 44.928 50.188 44.9322 50.3207C44.9364 50.4533 44.9932 50.5789 45.09 50.6698C45.1075 50.6823 46.1475 51.6572 47.3825 52.8947C45.595 53.1647 40.615 53.3623 34.005 49.0345C33.745 48.8645 33.485 48.6895 33.22 48.5045C32.3239 47.8851 31.2944 47.486 30.215 47.3395C29.6136 47.2407 29.0233 47.0832 28.4525 46.8695C28.4325 46.7445 28.4075 46.5795 28.38 46.382C28.1075 44.5195 27.4775 39.7493 27.7975 37.8918C28.1175 36.0343 29.2425 32.044 29.725 30.374L30.955 31.604C31.0009 31.6509 31.0558 31.6881 31.1163 31.7134C31.1769 31.7387 31.2419 31.7517 31.3075 31.7515H32.115C32.0914 31.8145 32.0828 31.8821 32.09 31.949C32.105 32.109 32.4625 35.9042 33.89 38.4017C34.6375 39.7117 34.36 41.647 34.015 42.9945C33.8795 43.5248 33.7126 44.0466 33.515 44.557C33.4896 44.6175 33.4764 44.6825 33.4763 44.7482C33.4761 44.8138 33.489 44.8788 33.5141 44.9395C33.5392 45.0002 33.576 45.0553 33.6225 45.1016C33.669 45.1479 33.7243 45.1846 33.785 45.2095C33.8449 45.2359 33.9096 45.2495 33.975 45.2495C34.0739 45.2499 34.1707 45.2209 34.253 45.1661C34.3354 45.1114 34.3996 45.0334 34.4375 44.942C34.6301 44.4589 34.7938 43.9646 34.9275 43.462C36.0725 42.872 42.03 40.1192 45.66 44.6695C45.805 44.852 45.9475 45.0445 46.085 45.252C46.1307 45.3202 46.1924 45.3761 46.2648 45.4149C46.3371 45.4537 46.4179 45.4742 46.5 45.4745C46.5904 45.4743 46.6791 45.4496 46.7566 45.4031C46.8342 45.3565 46.8976 45.2897 46.9402 45.2099C46.9828 45.1302 47.0029 45.0403 46.9985 44.95C46.994 44.8597 46.9652 44.7722 46.915 44.697C46.8625 44.6195 46.81 44.5445 46.7575 44.4695C47.6844 43.7789 48.6981 43.2132 49.7725 42.787C50.64 42.462 53.315 43.337 55 44.037V54.975Z" fill="#F76C1E"/>
<path d="M43.18 48.5072C39.9225 48.9722 36.815 46.8622 36.785 46.8397C36.6759 46.7641 36.5413 46.735 36.4107 46.7586C36.2801 46.7823 36.1643 46.8569 36.0887 46.966C36.0132 47.075 35.984 47.2097 36.0077 47.3402C36.0313 47.4708 36.1059 47.5866 36.215 47.6622C36.34 47.7497 39.0175 49.5747 42.2025 49.5747C42.5764 49.5759 42.9499 49.55 43.32 49.4972C43.4495 49.4766 43.5657 49.406 43.6436 49.3005C43.7215 49.1951 43.7548 49.0632 43.7365 48.9334C43.7181 48.8036 43.6495 48.6862 43.5454 48.6065C43.4413 48.5268 43.3101 48.4911 43.18 48.5072Z" fill="#F76C1E"/>
<path d="M27.5575 11.75C27.4911 11.6354 27.3819 11.5518 27.254 11.5176C27.126 11.4834 26.9897 11.5013 26.875 11.5675C25.8975 12.1275 24.3525 13.04 22.895 14C21.96 13.6725 20.77 14.005 19.8375 14.4075C20.2925 13.375 20.29 12.725 19.8625 12.33C19.415 11.9175 18.555 11.7325 15.5675 13.485C14.03 14.3875 12.64 15.3875 12.5825 15.43C12.5263 15.4672 12.4782 15.5153 12.4411 15.5716C12.404 15.6278 12.3786 15.691 12.3665 15.7573C12.3544 15.8236 12.3559 15.8916 12.3707 15.9573C12.3856 16.0231 12.4136 16.0851 12.4531 16.1397C12.4925 16.1944 12.5426 16.2404 12.6003 16.2752C12.658 16.31 12.7222 16.3328 12.7889 16.3421C12.8556 16.3515 12.9236 16.3473 12.9886 16.3297C13.0537 16.3122 13.1145 16.2817 13.1675 16.24C15.8225 14.3225 18.6 12.8573 19.1725 13.065C19.1925 13.1675 19.2125 13.6825 18.1975 15.35C18.139 15.4466 18.1149 15.5602 18.1291 15.6723C18.1434 15.7843 18.1952 15.8882 18.2761 15.9671C18.357 16.046 18.4622 16.0951 18.5746 16.1065C18.687 16.1179 18.7999 16.091 18.895 16.03C19.7124 15.5058 20.6152 15.1285 21.5625 14.915C20.2325 15.8725 19.1925 16.785 19.09 17.3575C19.0688 17.4628 19.0713 17.5714 19.0972 17.6756C19.1232 17.7798 19.1719 17.877 19.24 17.96C19.4006 18.1421 19.6003 18.2857 19.824 18.3801C20.0478 18.4744 20.2899 18.5171 20.5325 18.505C21.3325 18.505 22.265 18.1075 23.0025 17.51C24.1275 16.5975 24.4275 15.47 23.775 14.6323C24.9025 13.8973 26.165 13.1273 27.375 12.4323C27.4895 12.3659 27.5731 12.2568 27.6073 12.1289C27.6415 12.001 27.6236 11.8647 27.5575 11.75ZM22.3725 16.7333C21.6 17.3608 20.575 17.6583 20.135 17.4208C20.415 16.9908 21.5075 16.1508 22.935 15.1883C22.9521 15.2054 22.968 15.2238 22.9825 15.2433C23.44 15.8208 22.555 16.5858 22.3725 16.7333Z" fill="#F76C1E"/>
<path d="M25.5 18.0007C25.7761 18.0007 26 17.7769 26 17.5007C26 17.2246 25.7761 17.0007 25.5 17.0007C25.2239 17.0007 25 17.2246 25 17.5007C25 17.7769 25.2239 18.0007 25.5 18.0007Z" fill="#F76C1E"/>
<path d="M24.5 36.0015H10.5C10.2239 36.0015 10 36.2253 10 36.5015V39.5017C10 39.7779 10.2239 40.0017 10.5 40.0017H24.5C24.7761 40.0017 25 39.7779 25 39.5017V36.5015C25 36.2253 24.7761 36.0015 24.5 36.0015Z" fill="#F76C1E"/>
<path d="M22.57 22.001H10.5C10.2239 22.001 10 22.2248 10 22.501V25.5012C10 25.7774 10.2239 26.0012 10.5 26.0012H22.57C22.8461 26.0012 23.07 25.7774 23.07 25.5012V22.501C23.07 22.2248 22.8461 22.001 22.57 22.001Z" fill="#F76C1E"/>
<path d="M20.155 29.0012H10.5C10.2239 29.0012 10 29.2251 10 29.5012V32.5015C10 32.7776 10.2239 33.0015 10.5 33.0015H20.155C20.4311 33.0015 20.655 32.7776 20.655 32.5015V29.5012C20.655 29.2251 20.4311 29.0012 20.155 29.0012Z" fill="#F76C1E"/>
<path d="M8.32501 37.5517C8.21682 37.4606 8.09434 37.3879 7.96251 37.3367L8.38751 36.8192C8.44774 36.7459 8.48588 36.657 8.49749 36.5629C8.5091 36.4688 8.49369 36.3733 8.45306 36.2875C8.41244 36.2018 8.34826 36.1294 8.26804 36.0788C8.18782 36.0282 8.09486 36.0015 8.00001 36.0017H6.25001C6.1174 36.0017 5.99022 36.0544 5.89645 36.1482C5.80268 36.2419 5.75001 36.3691 5.75001 36.5017C5.75001 36.6343 5.80268 36.7615 5.89645 36.8553C5.99022 36.949 6.1174 37.0017 6.25001 37.0017H6.94501L6.61251 37.4092C6.54824 37.4878 6.50942 37.5841 6.50121 37.6853C6.493 37.7864 6.51578 37.8877 6.56652 37.9757C6.61727 38.0636 6.69358 38.134 6.7853 38.1775C6.87702 38.221 6.97981 38.2355 7.08001 38.2192C7.28338 38.1836 7.49283 38.217 7.67501 38.3142C7.69751 38.3317 7.75001 38.3767 7.75001 38.5417C7.7414 38.6879 7.68479 38.8272 7.58897 38.9379C7.49314 39.0487 7.36345 39.1247 7.22001 39.1542C6.99251 39.1992 6.82501 39.0867 6.71251 38.8117C6.68755 38.751 6.65089 38.6957 6.60459 38.6492C6.5583 38.6026 6.50328 38.5656 6.44269 38.5403C6.3821 38.515 6.31712 38.5019 6.25146 38.5017C6.1858 38.5015 6.12074 38.5143 6.06001 38.5392C5.99927 38.5642 5.94404 38.6008 5.89748 38.6471C5.85091 38.6934 5.81392 38.7484 5.78862 38.809C5.76331 38.8696 5.75019 38.9346 5.75 39.0003C5.74981 39.0659 5.76256 39.131 5.78751 39.1917C5.8818 39.4712 6.06023 39.7147 6.29834 39.8888C6.53645 40.0629 6.82258 40.1591 7.11751 40.1642C7.21651 40.1649 7.31533 40.1557 7.41251 40.1367C7.78371 40.0628 8.11858 39.8645 8.36177 39.5744C8.60497 39.2844 8.74192 38.9201 8.75001 38.5417C8.7577 38.3554 8.72351 38.1698 8.64996 37.9984C8.57641 37.8271 8.46537 37.6744 8.32501 37.5517Z" fill="#F76C1E"/>
<path d="M6.44499 29.2288C6.28612 29.309 6.14469 29.4199 6.02885 29.5551C5.913 29.6902 5.82503 29.847 5.77 30.0163C5.75161 30.0793 5.74582 30.1453 5.75296 30.2106C5.76009 30.2759 5.78002 30.3391 5.81159 30.3967C5.84316 30.4542 5.88576 30.505 5.93696 30.5461C5.98816 30.5873 6.04696 30.6179 6.10999 30.6363C6.17303 30.6546 6.23907 30.6604 6.30434 30.6533C6.36961 30.6462 6.43284 30.6262 6.49041 30.5947C6.54798 30.5631 6.59877 30.5205 6.63988 30.4693C6.68099 30.4181 6.71161 30.3593 6.72999 30.2963C6.7586 30.2281 6.80862 30.171 6.8725 30.1338C7.00004 30.0962 7.13716 30.1097 7.255 30.1713C7.2225 30.5038 6.6025 31.4113 5.89 32.1563C5.82187 32.2267 5.77602 32.3157 5.75819 32.4121C5.74037 32.5085 5.75135 32.608 5.78976 32.6981C5.82818 32.7883 5.89233 32.8652 5.97419 32.9191C6.05604 32.973 6.15198 33.0016 6.25 33.0013H8C8.1326 33.0013 8.25978 32.9486 8.35355 32.8548C8.44732 32.761 8.5 32.6339 8.5 32.5013C8.5 32.3687 8.44732 32.2415 8.35355 32.1477C8.25978 32.0539 8.1326 32.0013 8 32.0013H7.3475C7.86 31.3438 8.3575 30.5213 8.235 29.9188C8.20601 29.7744 8.14144 29.6396 8.04714 29.5265C7.95284 29.4134 7.8318 29.3257 7.695 29.2713C7.50248 29.173 7.29073 29.1183 7.07472 29.111C6.85872 29.1036 6.64374 29.1438 6.44499 29.2288Z" fill="#F76C1E"/>
<path d="M6.19753 23.3885L6.50003 23.2585V25.5C6.50003 25.6327 6.5527 25.7598 6.64647 25.8536C6.74024 25.9474 6.86742 26 7.00003 26C7.13263 26 7.25981 25.9474 7.35358 25.8536C7.44735 25.7598 7.50003 25.6327 7.50003 25.5V22.5C7.50013 22.4172 7.47966 22.3356 7.44043 22.2627C7.4012 22.1897 7.34446 22.1276 7.2753 22.082C7.20614 22.0364 7.12673 22.0087 7.04421 22.0013C6.96168 21.994 6.87863 22.0073 6.80252 22.04L5.80252 22.47C5.73924 22.4939 5.68144 22.5303 5.63262 22.5771C5.58381 22.6239 5.545 22.6801 5.51853 22.7423C5.49206 22.8045 5.47849 22.8715 5.47864 22.9391C5.47879 23.0067 5.49265 23.0736 5.51939 23.1357C5.54613 23.1978 5.58519 23.2539 5.63421 23.3005C5.68323 23.347 5.74118 23.3832 5.80458 23.4067C5.86797 23.4303 5.93547 23.4407 6.00302 23.4374C6.07056 23.4341 6.13673 23.4172 6.19753 23.3875V23.3885Z" fill="#F76C1E"/>
</svg>
