<svg width="106" height="106" viewBox="0 0 106 106" fill="none" xmlns="http://www.w3.org/2000/svg">
<path d="M104.938 81.5881C103.484 80.96 96.1016 77.8709 93.1672 78.9678C90.9686 79.8354 88.8956 80.9925 87.0031 82.4084C83.6141 78.5975 79.3672 77.5381 75.5 77.6412V54.2188L77.0984 52.6203C77.1863 52.5342 77.2561 52.4313 77.3036 52.3178C77.3511 52.2043 77.3754 52.0824 77.375 51.9594V41.8597C77.3754 41.7366 77.3511 41.6148 77.3036 41.5012C77.2561 41.3877 77.1863 41.2849 77.0984 41.1987L75.5 39.6003V10.8125C75.4979 9.56994 75.0034 8.37888 74.1247 7.50026C73.2461 6.62164 72.0551 6.12711 70.8125 6.125H61.4375V5.1875C61.4368 4.93909 61.3377 4.70106 61.1621 4.52541C60.9864 4.34975 60.7484 4.25074 60.5 4.25H45.4063C45.1887 3.19191 44.6131 2.24117 43.7763 1.55807C42.9395 0.874965 41.8927 0.501276 40.8125 0.5H35.1875C34.1073 0.501276 33.0605 0.874965 32.2237 1.55807C31.3869 2.24117 30.8113 3.19191 30.5937 4.25H15.5C15.2516 4.25074 15.0136 4.34975 14.8379 4.52541C14.6623 4.70106 14.5632 4.93909 14.5625 5.1875V6.125H5.1875C3.94494 6.12711 2.75388 6.62164 1.87526 7.50026C0.996644 8.37888 0.502107 9.56994 0.5 10.8125V89.5662C0.502107 90.8088 0.996644 91.9999 1.87526 92.8785C2.75388 93.7571 3.94494 94.2516 5.1875 94.2537H63.6078C73.325 100.526 81.1813 101.815 86.0047 101.815C87.6595 101.841 89.3111 101.661 90.9219 101.281C91.5687 101.947 92.2156 102.627 92.8344 103.292C94.7234 105.181 96.4906 105.5 97.4656 105.5C97.6743 105.5 97.8827 105.484 98.0891 105.453H104.562C104.811 105.452 105.049 105.353 105.225 105.178C105.4 105.002 105.499 104.764 105.5 104.516V82.4506C105.501 82.2677 105.448 82.0885 105.348 81.9352C105.248 81.782 105.105 81.6613 104.938 81.5881ZM65.6703 71.5705C63.2 67.2486 62.5391 60.3013 62.5344 60.2356C62.5298 60.1668 62.5156 60.0989 62.4922 60.0341H68V79.1225C67.4375 79.3194 66.9359 79.5209 66.5 79.7038C66.9594 77.097 67.0391 73.9705 65.6703 71.5705V71.5705ZM51.7109 86.7537C51.8234 87.5553 51.9219 88.2022 51.9828 88.6287H7.0625C6.81409 88.628 6.57606 88.529 6.40041 88.3533C6.22475 88.1777 6.12574 87.9397 6.125 87.6912V12.6875C6.12574 12.4391 6.22475 12.2011 6.40041 12.0254C6.57606 11.8498 6.81409 11.7507 7.0625 11.75H15.5047C15.7745 12.4039 16.104 13.0316 16.4891 13.625C17.589 15.3493 19.1057 16.7686 20.8991 17.7517C22.6925 18.7349 24.7048 19.2502 26.75 19.25H49.25C51.2952 19.2502 53.3075 18.7349 55.1009 17.7517C56.8943 16.7686 58.411 15.3493 59.5109 13.625C59.896 13.0316 60.2255 12.4039 60.4953 11.75H68.9375C69.1859 11.7507 69.4239 11.8498 69.5996 12.0254C69.7752 12.2011 69.8743 12.4391 69.875 12.6875V33.9889C69.7134 33.8539 69.509 33.7808 69.2984 33.7827H59.2016C59.0785 33.7823 58.9566 33.8066 58.8431 33.8541C58.7296 33.9016 58.6268 33.9713 58.5406 34.0592L51.4016 41.1987C51.3137 41.2849 51.2439 41.3877 51.1964 41.5012C51.1489 41.6148 51.1246 41.7366 51.125 41.8597V51.957C51.1246 52.0801 51.1489 52.202 51.1964 52.3155C51.2439 52.429 51.3137 52.5318 51.4016 52.618L54.7156 55.932C54.0969 58.0602 51.4859 67.1263 50.7734 71.2231C50.1734 74.7031 51.1437 82.6991 51.7109 86.7537V86.7537ZM35.1875 8V6.125C35.1882 5.87659 35.2873 5.63856 35.4629 5.46291C35.6386 5.28725 35.8766 5.18824 36.125 5.1875H39.875C40.1234 5.18824 40.3614 5.28725 40.5371 5.46291C40.7127 5.63856 40.8118 5.87659 40.8125 6.125V8H35.1875ZM103.625 103.578H98C97.926 103.579 97.8522 103.587 97.7797 103.602C97.7094 103.62 96.1344 103.944 94.1844 101.994C93.4109 101.159 92.5859 100.302 91.7797 99.4766C88.9906 96.6359 86.3609 94.1652 86.3281 94.137C86.1466 93.9667 85.9049 93.8755 85.6561 93.8834C85.4073 93.8913 85.1719 93.9977 85.0016 94.1792C84.8312 94.3607 84.74 94.6025 84.7479 94.8512C84.7558 95.1 84.8622 95.3355 85.0438 95.5058C85.0766 95.5292 87.0266 97.3573 89.3422 99.6777C85.9906 100.184 76.6531 100.554 64.2594 92.4397C63.7719 92.1209 63.2844 91.7928 62.7875 91.4459C61.1074 90.2846 59.177 89.5362 57.1531 89.2616C56.0255 89.0762 54.9186 88.7811 53.8484 88.3803C53.8109 88.1459 53.7641 87.8366 53.7125 87.4662C53.2016 83.9741 52.0203 75.0298 52.6203 71.547C53.2203 68.0642 55.3297 60.5825 56.2344 57.4513L58.5406 59.7575C58.6268 59.8454 58.7296 59.9151 58.8431 59.9626C58.9566 60.0101 59.0785 60.0344 59.2016 60.0341H60.7156C60.6714 60.1522 60.6553 60.279 60.6688 60.4044C60.6969 60.7044 61.3672 67.8205 64.0437 72.5033C65.4453 74.9595 64.925 78.5881 64.2781 81.1147C64.0241 82.109 63.7111 83.0873 63.3406 84.0444C63.293 84.1579 63.2683 84.2797 63.268 84.4028C63.2677 84.5259 63.2918 84.6478 63.3389 84.7616C63.3859 84.8753 63.4551 84.9786 63.5422 85.0655C63.6294 85.1524 63.733 85.2211 63.8469 85.2678C63.9591 85.3173 64.0805 85.3428 64.2031 85.3428C64.3886 85.3436 64.57 85.2892 64.7245 85.1865C64.8789 85.0838 64.9993 84.9375 65.0703 84.7663C65.4315 83.8604 65.7383 82.9337 65.9891 81.9913C68.1359 80.885 79.3062 75.7236 86.1125 84.2553C86.3844 84.5975 86.6516 84.9584 86.9094 85.3475C86.9951 85.4754 87.1108 85.5803 87.2465 85.653C87.3821 85.7257 87.5336 85.7641 87.6875 85.7647C87.8571 85.7644 88.0234 85.7181 88.1687 85.6307C88.3141 85.5434 88.433 85.4182 88.5128 85.2686C88.5927 85.119 88.6305 84.9506 88.6221 84.7812C88.6138 84.6119 88.5597 84.4479 88.4656 84.3069C88.3672 84.1616 88.2687 84.0209 88.1703 83.8803C89.9082 82.5855 91.8089 81.5248 93.8234 80.7256C95.45 80.1162 100.466 81.7569 103.625 83.0694V103.578Z" fill="black"/>
<path d="M81.4626 91.4511C75.3547 92.323 69.5282 88.3667 69.4719 88.3245C69.2674 88.1828 69.015 88.1281 68.7702 88.1725C68.5253 88.2169 68.3082 88.3567 68.1665 88.5613C68.0247 88.7658 67.9701 89.0182 68.0144 89.263C68.0588 89.5078 68.1987 89.725 68.4032 89.8667C68.6376 90.0308 73.6579 93.4527 79.6297 93.4527C80.3308 93.455 81.0311 93.4064 81.7251 93.3073C81.9678 93.2687 82.1857 93.1363 82.3318 92.9385C82.4779 92.7408 82.5404 92.4936 82.506 92.2502C82.4716 92.0068 82.3429 91.7867 82.1478 91.6372C81.9526 91.4877 81.7065 91.4209 81.4626 91.4511V91.4511Z" fill="black"/>
<path d="M52.1703 22.5313C52.0458 22.3164 51.8411 22.1597 51.6012 22.0955C51.3613 22.0314 51.1057 22.0651 50.8906 22.1891C49.0578 23.2391 46.1609 24.9501 43.4281 26.7501C41.675 26.136 39.4437 26.7595 37.6953 27.5141C38.5484 25.5782 38.5437 24.3595 37.7422 23.6188C36.9031 22.8454 35.2906 22.4985 29.689 25.7845C26.8062 27.4766 24.2 29.3516 24.0922 29.4313C23.9868 29.5011 23.8966 29.5914 23.827 29.6968C23.7574 29.8023 23.7099 29.9207 23.6872 30.045C23.6645 30.1693 23.6672 30.2969 23.6951 30.4201C23.723 30.5433 23.7755 30.6596 23.8495 30.7621C23.9235 30.8645 24.0174 30.9509 24.1256 31.0161C24.2338 31.0813 24.3541 31.124 24.4792 31.1416C24.6043 31.1591 24.7317 31.1512 24.8537 31.1183C24.9757 31.0854 25.0897 31.0282 25.189 30.9501C30.1672 27.3548 35.375 24.6074 36.4484 24.997C36.4859 25.1891 36.5234 26.1548 34.6203 29.2813C34.5105 29.4625 34.4654 29.6755 34.4921 29.8856C34.5189 30.0957 34.616 30.2905 34.7677 30.4384C34.9193 30.5862 35.1166 30.6784 35.3273 30.6998C35.538 30.7212 35.7498 30.6706 35.9281 30.5563C37.4608 29.5735 39.1534 28.866 40.9297 28.4657C38.4359 30.261 36.4859 31.972 36.2937 33.0454C36.254 33.2428 36.2587 33.4465 36.3073 33.6419C36.3559 33.8372 36.4474 34.0194 36.575 34.1751C36.8762 34.5166 37.2505 34.7858 37.67 34.9627C38.0896 35.1396 38.5436 35.2197 38.9984 35.197C40.4984 35.197 42.2469 34.4516 43.6297 33.3313C45.739 31.6204 46.3015 29.5063 45.0781 27.9356C47.1922 26.5574 49.5593 25.1137 51.8281 23.8106C52.0429 23.6861 52.1995 23.4815 52.2637 23.2417C52.3278 23.0019 52.2942 22.7464 52.1703 22.5313ZM42.4484 31.8749C41 33.0515 39.0781 33.6093 38.2531 33.164C38.7781 32.3577 40.8265 30.7827 43.5031 28.9781C43.5352 29.0102 43.565 29.0447 43.5922 29.0812C44.45 30.164 42.7906 31.5984 42.4484 31.8749Z" fill="black"/>
<path d="M48.3125 34.2515C48.8303 34.2515 49.25 33.8317 49.25 33.314C49.25 32.7962 48.8303 32.3765 48.3125 32.3765C47.7947 32.3765 47.375 32.7962 47.375 33.314C47.375 33.8317 47.7947 34.2515 48.3125 34.2515Z" fill="black"/>
<path d="M46.4375 68.0029H20.1875C19.6697 68.0029 19.25 68.4227 19.25 68.9404V74.5659C19.25 75.0837 19.6697 75.5034 20.1875 75.5034H46.4375C46.9553 75.5034 47.375 75.0837 47.375 74.5659V68.9404C47.375 68.4227 46.9553 68.0029 46.4375 68.0029Z" fill="black"/>
<path d="M42.8187 41.752H20.1875C19.6697 41.752 19.25 42.1717 19.25 42.6895V48.3149C19.25 48.8327 19.6697 49.2524 20.1875 49.2524H42.8187C43.3365 49.2524 43.7562 48.8327 43.7562 48.3149V42.6895C43.7562 42.1717 43.3365 41.752 42.8187 41.752Z" fill="black"/>
<path d="M38.2906 54.8774H20.1875C19.6697 54.8774 19.25 55.2972 19.25 55.8149V61.4404C19.25 61.9582 19.6697 62.3779 20.1875 62.3779H38.2906C38.8084 62.3779 39.2281 61.9582 39.2281 61.4404V55.8149C39.2281 55.2972 38.8084 54.8774 38.2906 54.8774Z" fill="black"/>
<path d="M16.1094 70.9094C15.9065 70.7386 15.6769 70.6024 15.4297 70.5063L16.2266 69.536C16.3395 69.3986 16.411 69.2319 16.4328 69.0554C16.4546 68.8789 16.4257 68.6998 16.3495 68.5391C16.2733 68.3784 16.153 68.2427 16.0026 68.1478C15.8522 68.0529 15.6779 68.0027 15.5 68.0032H12.2188C11.9701 68.0032 11.7317 68.1019 11.5558 68.2778C11.38 68.4536 11.2813 68.692 11.2813 68.9407C11.2813 69.1893 11.38 69.4278 11.5558 69.6036C11.7317 69.7794 11.9701 69.8782 12.2188 69.8782H13.5219L12.8984 70.6422C12.778 70.7896 12.7052 70.9701 12.6898 71.1598C12.6744 71.3496 12.7171 71.5395 12.8122 71.7043C12.9074 71.8692 13.0505 72.0012 13.2224 72.0827C13.3944 72.1643 13.5871 72.1916 13.775 72.161C14.1563 72.0942 14.5491 72.1569 14.8906 72.3391C14.9328 72.3719 15.0313 72.4563 15.0313 72.7657C15.0151 73.0398 14.909 73.3009 14.7293 73.5086C14.5496 73.7162 14.3065 73.8588 14.0375 73.9141C13.6109 73.9985 13.2969 73.7875 13.0859 73.2719C13.0392 73.158 12.9704 73.0545 12.8836 72.9672C12.7968 72.8799 12.6937 72.8105 12.58 72.7631C12.4664 72.7156 12.3446 72.691 12.2215 72.6907C12.0984 72.6903 11.9764 72.7142 11.8625 72.761C11.7486 72.8078 11.6451 72.8765 11.5578 72.9633C11.4705 73.0501 11.4011 73.1533 11.3537 73.2669C11.3062 73.3805 11.2816 73.5023 11.2813 73.6255C11.2809 73.7486 11.3048 73.8705 11.3516 73.9844C11.5284 74.5085 11.8629 74.965 12.3094 75.2915C12.7558 75.6179 13.2923 75.7983 13.8453 75.8079C14.031 75.8091 14.2162 75.7918 14.3984 75.7563C15.0945 75.6177 15.7223 75.2458 16.1783 74.702C16.6343 74.1583 16.8911 73.4752 16.9063 72.7657C16.9207 72.4164 16.8566 72.0683 16.7187 71.747C16.5808 71.4258 16.3726 71.1396 16.1094 70.9094V70.9094Z" fill="black"/>
<path d="M12.5844 55.304C12.2865 55.4545 12.0213 55.6625 11.8041 55.9159C11.5869 56.1693 11.4219 56.4632 11.3187 56.7806C11.2843 56.8988 11.2734 57.0226 11.2868 57.145C11.3002 57.2674 11.3375 57.3859 11.3967 57.4939C11.4559 57.6018 11.5358 57.697 11.6318 57.7741C11.7278 57.8512 11.838 57.9086 11.9562 57.9431C12.0744 57.9775 12.1982 57.9884 12.3206 57.975C12.443 57.9616 12.5616 57.9243 12.6695 57.8651C12.7775 57.8059 12.8727 57.726 12.9498 57.63C13.0268 57.534 13.0843 57.4238 13.1187 57.3056C13.1724 57.1777 13.2661 57.0708 13.3859 57.0009C13.6251 56.9306 13.8822 56.9558 14.1031 57.0712C14.0422 57.6946 12.8797 59.3962 11.5437 60.7931C11.416 60.9252 11.33 61.0921 11.2966 61.2728C11.2632 61.4535 11.2838 61.64 11.3558 61.8091C11.4278 61.9782 11.5481 62.1223 11.7016 62.2234C11.8551 62.3245 12.0349 62.3781 12.2187 62.3775H15.5C15.7486 62.3775 15.9871 62.2787 16.1629 62.1029C16.3387 61.9271 16.4375 61.6886 16.4375 61.44C16.4375 61.1913 16.3387 60.9529 16.1629 60.777C15.9871 60.6012 15.7486 60.5025 15.5 60.5025H14.2765C15.2375 59.2696 16.1703 57.7275 15.9406 56.5978C15.8863 56.3271 15.7652 56.0743 15.5884 55.8623C15.4116 55.6503 15.1846 55.4858 14.9281 55.3837C14.5671 55.1995 14.1701 55.0969 13.7651 55.0831C13.3601 55.0694 12.957 55.1448 12.5844 55.304Z" fill="black"/>
<path d="M12.1203 44.3535L12.6874 44.1097V48.3125C12.6874 48.5612 12.7862 48.7996 12.962 48.9754C13.1378 49.1512 13.3763 49.25 13.6249 49.25C13.8736 49.25 14.112 49.1512 14.2879 48.9754C14.4637 48.7996 14.5624 48.5612 14.5624 48.3125V42.6875C14.5626 42.5322 14.5242 42.3792 14.4507 42.2424C14.3772 42.1056 14.2708 41.9892 14.1411 41.9037C14.0114 41.8181 13.8625 41.7662 13.7078 41.7524C13.5531 41.7387 13.3973 41.7637 13.2546 41.825L11.3796 42.6313C11.261 42.6759 11.1526 42.7442 11.0611 42.8319C10.9695 42.9197 10.8968 43.0251 10.8471 43.1417C10.7975 43.2584 10.7721 43.3839 10.7723 43.5107C10.7726 43.6375 10.7986 43.7629 10.8487 43.8794C10.8989 43.9959 10.9721 44.1009 11.064 44.1883C11.1559 44.2756 11.2646 44.3434 11.3835 44.3875C11.5023 44.4317 11.6289 44.4513 11.7555 44.4451C11.8822 44.4389 12.0063 44.4071 12.1203 44.3516V44.3535Z" fill="black"/>
</svg>
