<svg width="106" height="106" viewBox="0 0 106 106" fill="none" xmlns="http://www.w3.org/2000/svg">
<path d="M99.0992 54.2455L105.118 43.8261C105.341 43.4402 105.469 43.0069 105.491 42.5619C105.514 42.1169 105.431 41.6728 105.248 41.2664C105.065 40.8599 104.789 40.5027 104.441 40.2241C104.093 39.9455 103.684 39.7536 103.248 39.664L102.587 39.5328C101.589 39.329 100.572 39.2331 99.5539 39.2469C100.412 26.5694 102.392 13.9929 105.469 1.66483C105.509 1.50724 105.506 1.34216 105.463 1.18576C105.419 1.02935 105.335 0.886999 105.22 0.772636C105.105 0.658273 104.962 0.575826 104.805 0.533371C104.648 0.490916 104.483 0.489911 104.326 0.530454C70.6837 9.40804 35.3143 9.40804 1.6723 0.530454C1.51442 0.489048 1.34839 0.490225 1.19112 0.533866C1.03385 0.577507 0.890952 0.662052 0.776987 0.778891C0.66111 0.89351 0.57722 1.03644 0.53364 1.19349C0.490059 1.35054 0.488305 1.51626 0.52855 1.6742C4.48939 16.7575 6.71011 32.2448 7.1473 47.8334L5.75042 45.4147C5.37539 44.7704 4.76057 44.3008 4.04033 44.1084C3.3201 43.916 2.553 44.0166 1.90667 44.3881C1.26233 44.7617 0.792132 45.3753 0.598884 46.0946C0.405637 46.8139 0.505064 47.5805 0.875425 48.2267L7.12386 59.0492C6.62355 74.3394 4.41131 89.5255 0.52855 104.323C0.492745 104.462 0.489186 104.607 0.518148 104.747C0.54711 104.887 0.607822 105.019 0.695624 105.132C0.783426 105.245 0.895984 105.337 1.02466 105.4C1.15333 105.463 1.29471 105.495 1.43792 105.495C1.51534 105.495 1.59246 105.485 1.66761 105.467C13.4 102.467 25.3689 100.483 37.4417 99.5375L38.7589 102.087C39.149 102.847 39.6904 103.519 40.3498 104.061C41.0093 104.604 41.7727 105.006 42.5932 105.242C43.1737 105.411 43.7748 105.497 44.3792 105.5C45.7916 105.493 47.1612 105.015 48.2709 104.141C49.3807 103.267 50.1672 102.048 50.5057 100.677C50.6437 100.113 50.7036 99.5325 50.6839 98.952C54.3823 98.9051 58.1042 98.9614 61.774 99.1301C61.4479 100.308 61.5625 101.565 62.0962 102.664C62.63 103.764 63.5463 104.631 64.6736 105.103C65.8009 105.576 67.0617 105.621 68.22 105.231C69.3782 104.841 70.3544 104.041 70.9657 102.983L72.7423 99.9031C83.3968 100.954 93.9559 102.814 104.328 105.467C104.485 105.507 104.65 105.505 104.806 105.462C104.962 105.419 105.104 105.337 105.219 105.222C105.333 105.108 105.416 104.966 105.46 104.81C105.504 104.654 105.506 104.49 105.467 104.333C101.368 87.9482 99.2305 71.1345 99.0992 54.2455V54.2455ZM99.7695 41.1205C100.59 41.12 101.408 41.2032 102.212 41.3689L102.873 41.5001C103.018 41.53 103.154 41.594 103.27 41.6868C103.386 41.7797 103.479 41.8988 103.539 42.0343C103.6 42.1698 103.628 42.3178 103.621 42.4662C103.613 42.6146 103.57 42.759 103.496 42.8876L97.3367 53.5555L82.7656 78.7925L77.8953 75.98L72.3687 72.7878C72.2554 72.7235 72.1567 72.6361 72.0793 72.5313C72.0018 72.4265 71.9471 72.3067 71.9189 72.1794C71.8906 72.0522 71.8893 71.9205 71.9151 71.7927C71.9409 71.665 71.9932 71.5441 72.0687 71.4378L89.8104 46.2819C90.8181 44.8551 92.1204 43.6614 93.6294 42.7816C95.1384 41.9018 96.8188 41.3564 98.5568 41.1823C98.6178 41.1776 98.6787 41.1683 98.7349 41.1636C99.0781 41.1355 99.4226 41.1214 99.7695 41.1214V41.1205ZM65.9257 53.3398C65.3659 53.4926 64.7832 53.5434 64.2054 53.4898C63.4407 53.4047 62.7069 53.1405 62.0635 52.7186C61.4201 52.2967 60.8852 51.7291 60.5023 51.0617C60.3767 50.8515 60.1739 50.6987 59.9372 50.6361C59.7005 50.5735 59.4487 50.606 59.2356 50.7266C59.0225 50.8472 58.8651 51.0464 58.797 51.2816C58.7288 51.5168 58.7554 51.7693 58.871 51.9851C59.403 52.9124 60.1465 53.701 61.0409 54.2867C61.9352 54.8723 62.9553 55.2385 64.0179 55.3554C64.2281 55.3781 64.4394 55.389 64.6507 55.3883C64.7304 55.3883 64.8148 55.3883 64.8945 55.3836C64.7378 55.9319 64.4872 56.449 64.1539 56.9117C63.9094 57.2679 63.5936 57.5693 63.2264 57.7969C62.8593 58.0245 62.4488 58.1732 62.021 58.2336C61.7469 58.2553 61.4711 58.2219 61.2101 58.1351C61.2804 58.1164 61.346 58.0976 61.4164 58.0742C61.5339 58.0376 61.6431 57.9782 61.7378 57.8993C61.8324 57.8205 61.9105 57.7238 61.9678 57.6148C62.025 57.5057 62.0602 57.3865 62.0713 57.2638C62.0825 57.1412 62.0694 57.0176 62.0328 56.9C61.9961 56.7824 61.9367 56.6732 61.8579 56.5786C61.779 56.484 61.6824 56.4058 61.5733 56.3486C61.4643 56.2914 61.345 56.2562 61.2224 56.245C61.0998 56.2338 60.9761 56.247 60.8585 56.2836C59.5364 56.6814 58.1167 56.6034 56.8461 56.0633H56.8414C56.8367 56.0633 56.8367 56.0586 56.832 56.0586C56.1335 55.7725 55.498 55.3521 54.9617 54.8211C54.3358 54.1739 53.8576 53.3988 53.5598 52.5492C53.262 51.6996 53.1518 50.7955 53.2367 49.8992C53.7483 50.0785 54.284 50.1797 54.8257 50.1992H54.8585C55.0956 50.1864 55.319 50.0841 55.4836 49.9129C55.6482 49.7418 55.7417 49.5146 55.7453 49.2772C55.7488 49.0398 55.6622 48.8098 55.5028 48.6338C55.3435 48.4578 55.1233 48.3488 54.8867 48.3289C54.2535 48.3022 53.6381 48.1116 53.1007 47.7758C52.6433 47.5034 52.2442 47.1433 51.9264 46.7161C51.6086 46.2889 51.3785 45.8032 51.2492 45.2867C51.0895 44.4805 51.1752 43.645 51.4953 42.888C51.8153 42.1311 52.3549 41.4874 53.0445 41.0403C53.0643 41.0295 53.0831 41.0169 53.1007 41.0028C53.1335 40.9835 53.1634 40.9598 53.1898 40.9325C53.1945 40.9325 53.1992 40.9278 53.2039 40.9231C53.2809 40.8548 53.3458 40.7739 53.3961 40.684C53.4151 40.649 53.4323 40.6131 53.4476 40.5762C53.4751 40.5021 53.494 40.425 53.5039 40.3465C53.5093 40.3077 53.5125 40.2686 53.5132 40.2294C53.5132 40.1872 53.5085 40.1403 53.5039 40.0934L53.4898 40.0231C53.481 39.9865 53.4701 39.9505 53.457 39.9153C53.456 39.9053 53.4528 39.8957 53.4476 39.8872C53.428 39.837 53.4045 39.7884 53.3773 39.7419C53.3443 39.6928 53.3083 39.6458 53.2695 39.6012C53.255 39.583 53.2394 39.5658 53.2226 39.5497C53.12 39.4337 53.0245 39.3116 52.9367 39.184C52.5117 38.4944 52.2763 37.7048 52.2541 36.895C52.2318 36.0853 52.4236 35.284 52.8101 34.572C52.9522 34.7664 53.1089 34.9498 53.2789 35.1205C53.4535 35.2976 53.6914 35.3981 53.9402 35.3999C54.189 35.4016 54.4283 35.3045 54.6054 35.1298C54.7826 34.9552 54.8831 34.7173 54.8849 34.4685C54.8866 34.2197 54.7895 33.9804 54.6148 33.8033C54.264 33.4433 53.9925 33.0137 53.8179 32.5423C53.8179 32.5376 53.8132 32.5376 53.8132 32.533C53.6238 32.0385 53.5361 31.5108 53.5554 30.9816C53.5747 30.4524 53.7007 29.9326 53.9257 29.4533C54.1933 28.9458 54.5707 28.5045 55.0305 28.1614C55.4903 27.8184 56.0209 27.5824 56.5836 27.4705C56.9723 27.3897 57.3722 27.3785 57.7648 27.4376C58.011 27.4749 58.2618 27.4129 58.4623 27.2652C58.6627 27.1176 58.7963 26.8963 58.8336 26.6501C58.8708 26.404 58.8088 26.1531 58.6611 25.9527C58.5135 25.7522 58.2922 25.6187 58.046 25.5814C57.821 25.5477 57.5939 25.5305 57.3664 25.5298C57.4201 25.1702 57.5243 24.8198 57.6757 24.4892C57.9555 23.8956 58.375 23.3787 58.8983 22.9827C59.4216 22.5868 60.0331 22.3236 60.6804 22.2158C60.6945 22.2158 60.7085 22.2111 60.7179 22.2111H60.7414C61.7944 22.0888 62.8529 22.3888 63.6851 23.0455C63.6898 23.0501 63.6945 23.0548 63.6992 23.0548C63.7058 23.0625 63.7137 23.0688 63.7226 23.0736H63.7273C63.7557 23.0967 63.7873 23.1157 63.821 23.1298C63.8462 23.1481 63.875 23.1609 63.9054 23.1673C63.9307 23.1811 63.9575 23.1921 63.9851 23.2001C64.0262 23.214 64.0686 23.2234 64.1117 23.2283C64.1611 23.2378 64.2113 23.2425 64.2617 23.2423C64.331 23.2415 64.4001 23.2336 64.4679 23.2189C64.5018 23.2139 64.5349 23.2044 64.5664 23.1908C64.6341 23.1698 64.6988 23.1399 64.7585 23.1017C64.7878 23.083 64.8159 23.0626 64.8429 23.0408C64.871 23.0173 64.8992 22.9939 64.9226 22.9705C64.9524 22.9469 64.9777 22.9184 64.9976 22.8861C65.0109 22.8759 65.0221 22.8631 65.0304 22.8486C65.2202 22.5702 65.4509 22.3221 65.7148 22.1126C66.1792 21.7714 66.7144 21.539 67.2807 21.4327C67.8471 21.3264 68.4302 21.3489 68.9867 21.4986C69.7739 21.7217 70.4833 22.16 71.0351 22.7642C71.0561 22.7899 71.0797 22.8135 71.1054 22.8345C71.1538 22.8783 71.2073 22.9161 71.2648 22.947C71.3023 22.9658 71.3445 22.9845 71.3867 23.0033H71.396C71.4415 23.0216 71.4886 23.0357 71.5367 23.0455C71.5518 23.0508 71.5676 23.054 71.5835 23.0548C71.6304 23.0595 71.6773 23.0642 71.7242 23.0642C71.7617 23.065 71.7993 23.0634 71.8367 23.0595C71.846 23.0548 71.8601 23.0548 71.8695 23.0501H71.8976C72.3331 23.0197 72.7692 23.098 73.1669 23.2781C73.5646 23.4581 73.9113 23.7341 74.1757 24.0814C73.4915 24.4868 72.9182 25.0553 72.507 25.7361C72.3813 25.9497 72.3448 26.2042 72.4053 26.4446C72.4658 26.685 72.6185 26.8918 72.8304 27.0205C72.9769 27.1061 73.1435 27.1514 73.3132 27.1517C73.4755 27.1522 73.6351 27.1105 73.7764 27.0308C73.9177 26.9511 74.0359 26.8361 74.1195 26.697C74.5037 26.0726 75.0965 25.6044 75.7929 25.3751C75.8023 25.3705 75.8117 25.3705 75.821 25.3658C76.4211 25.1465 77.0767 25.1315 77.6861 25.323C78.2956 25.5146 78.8247 25.902 79.1914 26.4251C79.6307 26.9872 79.8685 27.6805 79.8664 28.3939C79.8639 28.5168 79.8858 28.6389 79.9307 28.7533C79.9756 28.8677 80.0427 28.9721 80.1281 29.0605C80.2134 29.149 80.3154 29.2196 80.4282 29.2685C80.5409 29.3174 80.6622 29.3436 80.7851 29.3455H80.8039C81.0493 29.3455 81.2849 29.2493 81.4602 29.0775C81.6355 28.9057 81.7365 28.6721 81.7414 28.4267C81.7517 27.6037 81.555 26.7914 81.1695 26.0642C81.2398 26.022 81.3054 25.9845 81.371 25.947C81.8906 25.6773 82.4693 25.5417 83.0546 25.5523C83.6398 25.563 84.2132 25.7196 84.7226 26.008C85.5379 26.4926 86.1291 27.2792 86.3679 28.197C85.7658 28.029 85.1261 28.0553 84.5398 28.272C84.4247 28.3157 84.3193 28.3817 84.2297 28.4661C84.1401 28.5505 84.0679 28.6518 84.0175 28.7641C83.967 28.8764 83.9391 28.9975 83.9354 29.1206C83.9317 29.2437 83.9523 29.3663 83.996 29.4814C84.0398 29.5965 84.1057 29.7019 84.1901 29.7915C84.2746 29.8811 84.3758 29.9532 84.4881 30.0037C84.6004 30.0542 84.7216 30.0821 84.8446 30.0858C84.9677 30.0895 85.0903 30.0688 85.2054 30.0251C85.4908 29.9435 85.7953 29.9595 86.0705 30.0708C86.3457 30.1821 86.5758 30.3821 86.7242 30.6392C86.8783 30.9366 86.952 31.2691 86.938 31.6037C86.924 31.9383 86.8229 32.2635 86.6445 32.547L86.6398 32.5517C86.6208 32.5835 86.6036 32.6164 86.5882 32.6501C86.5737 32.6805 86.5612 32.7119 86.5507 32.7439C86.5376 32.7871 86.5266 32.8309 86.5179 32.8751C86.5084 32.9293 86.5037 32.9842 86.5039 33.0392C86.5044 33.107 86.5123 33.1746 86.5273 33.2408C86.5275 33.2589 86.5324 33.2766 86.5414 33.2923C86.547 33.3195 86.5549 33.3461 86.5648 33.372C86.5872 33.4309 86.6155 33.4875 86.6492 33.5408C86.6637 33.5661 86.681 33.5896 86.7007 33.6111C86.7248 33.6429 86.7514 33.6727 86.7804 33.7001C86.8093 33.7322 86.8407 33.762 86.8742 33.7892C87.3743 34.1944 87.7067 34.7705 87.807 35.4064C87.8875 36.109 87.6869 36.815 87.2492 37.3705C87.2167 37.4113 87.1885 37.4552 87.1648 37.5017C87.0729 37.6672 87.0352 37.8574 87.057 38.0455V38.0501C87.061 38.0849 87.0672 38.1193 87.0757 38.1533C87.0807 38.1887 87.0902 38.2233 87.1039 38.2564C87.3063 38.8373 87.3748 39.4566 87.3042 40.0677C87.2335 40.6789 87.0256 41.2661 86.696 41.7856C86.3142 42.3512 85.7921 42.8079 85.1808 43.1111C84.5694 43.4143 83.8899 43.5536 83.2085 43.5153C82.9263 43.4947 82.6477 43.4396 82.3789 43.3512C82.4638 43.1256 82.4585 42.8759 82.3641 42.6541C82.2698 42.4322 82.0936 42.2553 81.8722 42.1599C81.6507 42.0646 81.4011 42.0582 81.1751 42.1422C80.9491 42.2261 80.7641 42.3939 80.6585 42.6106C80.555 42.8457 80.4343 43.0728 80.2976 43.2903C80.2927 43.2955 80.2894 43.302 80.2882 43.309C79.8177 44.0598 79.1797 44.6913 78.4242 45.1541C77.6686 45.6169 76.8161 45.8983 75.9335 45.9762C75.7698 45.9888 75.6055 45.992 75.4414 45.9856C75.4253 45.9766 75.4079 45.9702 75.3898 45.9669C75.2623 45.9357 75.1296 45.9325 75.0007 45.9575C74.147 45.8606 73.3261 45.5726 72.599 45.1149C71.8719 44.6573 71.2572 44.0416 70.8007 43.3137C70.7403 43.2017 70.6577 43.1031 70.5579 43.024C70.4582 42.9448 70.3433 42.8869 70.2204 42.8536C70.0975 42.8204 69.9692 42.8125 69.8431 42.8304C69.7171 42.8484 69.596 42.8919 69.4873 42.9582C69.3786 43.0245 69.2845 43.1122 69.2109 43.2161C69.1372 43.3199 69.0854 43.4377 69.0588 43.5622C69.0321 43.6867 69.0311 43.8153 69.0558 43.9402C69.0804 44.0651 69.1303 44.1837 69.2023 44.2887C69.2351 44.3403 69.2632 44.3872 69.3007 44.4387C68.6662 45.5072 67.82 46.4346 66.814 47.164C65.808 47.8935 64.6635 48.4095 63.4507 48.6805C63.3283 48.7042 63.2119 48.7522 63.1083 48.8215C63.0046 48.8908 62.9159 48.9801 62.8471 49.0841C62.7784 49.1881 62.7312 49.3048 62.7081 49.4274C62.685 49.5499 62.6866 49.6758 62.7128 49.7977C62.739 49.9196 62.7893 50.035 62.8606 50.1373C62.932 50.2395 63.023 50.3265 63.1284 50.3931C63.2338 50.4598 63.3514 50.5047 63.4743 50.5253C63.5973 50.546 63.7231 50.5419 63.8445 50.5133C64.7283 50.3226 65.5839 50.0185 66.3898 49.6086C67.1788 50.2023 67.8686 50.9175 68.4335 51.7273C68.3869 51.7631 68.3444 51.8039 68.307 51.8492C67.6771 52.5692 66.8493 53.0879 65.9267 53.3408L65.9257 53.3398ZM68.0726 48.5637C69.0479 47.8293 69.8939 46.9374 70.5757 45.9247C71.5618 46.807 72.7604 47.4176 74.0539 47.6965C73.8655 49.2418 74.1465 50.8079 74.8601 52.1914C75.1817 52.8069 75.5871 53.3748 76.0648 53.8789C74.9422 54.9377 73.626 55.7701 72.1882 56.3304C71.8062 53.3278 70.3434 50.5671 68.0735 48.5647L68.0726 48.5637ZM59.0693 20.7369C58.0434 21.1567 57.1585 21.8604 56.5184 22.7653C55.8782 23.6703 55.5095 24.7391 55.4553 25.8462C54.0634 26.3141 52.9117 27.3109 52.249 28.6212C51.6501 29.8715 51.5204 31.2953 51.8834 32.6333C51.0322 33.6566 50.5163 34.9169 50.4056 36.2433C50.2949 37.5698 50.5948 38.8982 51.2646 40.0484C50.4913 40.7492 49.9146 41.6399 49.5914 42.6322C49.2683 43.6245 49.2101 44.684 49.4225 45.7058C49.7267 46.9826 50.4535 48.1191 51.485 48.9308C51.3399 49.6524 51.2973 50.391 51.3584 51.1245C51.1677 51.1193 50.9799 51.1716 50.8193 51.2745C49.7971 51.9691 48.5811 52.322 47.3459 52.2823C46.9258 52.2563 46.5118 52.1679 46.1178 52.0198C46.0322 51.9254 45.9281 51.8496 45.812 51.7972C45.6959 51.7448 45.5702 51.7168 45.4428 51.7151C45.201 51.579 44.9747 51.4172 44.7678 51.2323C44.7612 51.2247 44.7532 51.2183 44.7443 51.2136C44.5912 51.0775 44.4501 50.9285 44.3225 50.7683C43.9798 50.3291 43.7547 49.8098 43.6686 49.2594C43.5825 48.7091 43.6381 48.1458 43.8303 47.623C43.9107 47.3966 43.9011 47.148 43.8035 46.9285C43.7059 46.7089 43.5278 46.5353 43.3059 46.4432C43.084 46.3512 42.8352 46.3479 42.6109 46.434C42.3867 46.5201 42.204 46.6889 42.1006 46.9058C41.7839 47.7184 41.6806 48.5987 41.8004 49.4626C41.9202 50.3265 42.2591 51.1454 42.785 51.8412C41.7243 52.6999 40.4246 53.2106 39.0631 53.3037C38.5552 53.3643 38.0404 53.2815 37.5771 53.0647C37.4225 52.9906 37.2895 52.8779 37.191 52.7375C37.0925 52.5971 37.0317 52.4338 37.0146 52.2631C37.0179 52.1384 36.9958 52.0143 36.9499 51.8983C36.904 51.7824 36.8352 51.6768 36.7475 51.5881C36.6618 51.4976 36.5586 51.4256 36.4442 51.3764C36.3297 51.3273 36.2064 51.302 36.0818 51.3022C35.4048 51.2586 34.7677 50.9666 34.2928 50.4821C33.8179 49.9977 33.5385 49.3549 33.5084 48.6772C33.5266 48.2047 33.6649 47.7446 33.9101 47.3403C34.1553 46.936 34.4994 46.6008 34.91 46.3662C35.2587 46.1559 35.656 46.0396 36.0631 46.0287C36.1862 46.0275 36.3079 46.002 36.4211 45.9538C36.5344 45.9055 36.6371 45.8355 36.7233 45.7475C36.8094 45.6596 36.8775 45.5556 36.9234 45.4413C36.9694 45.3271 36.9924 45.205 36.9912 45.0819C36.9853 44.8335 36.8825 44.5973 36.7046 44.4238C36.5268 44.2504 36.2881 44.1534 36.0396 44.1537C35.6035 44.1609 35.1714 44.2384 34.76 44.3834C34.3629 43.7722 34.0432 43.1141 33.8084 42.424C33.4826 41.5325 33.3381 40.585 33.3831 39.6369C33.4282 38.6888 33.662 37.7592 34.0709 36.9026C34.627 35.855 35.5375 35.0393 36.6396 34.6011C36.6467 34.5999 36.6532 34.5966 36.6584 34.5917C37.2024 34.3794 37.7869 34.2914 38.3693 34.3339C38.4957 34.3516 38.6243 34.3433 38.7473 34.3095C38.8703 34.2758 38.9851 34.2173 39.0848 34.1376C39.1844 34.058 39.2667 33.9588 39.3267 33.8462C39.3866 33.7337 39.423 33.61 39.4336 33.4829C39.4441 33.3558 39.4286 33.2278 39.388 33.1069C39.3474 32.986 39.2825 32.8746 39.1973 32.7797C39.1122 32.6847 39.0086 32.6081 38.8928 32.5545C38.777 32.501 38.6515 32.4716 38.524 32.4683C38.0434 32.4262 37.5592 32.4499 37.085 32.5386C37.0351 31.7062 37.1947 30.8746 37.549 30.1198C37.9101 29.3674 38.4758 28.7318 39.1812 28.2858C39.8867 27.8398 40.7035 27.6014 41.5381 27.598H41.5709C41.6618 27.5994 41.7525 27.6056 41.8428 27.6167C42.6927 27.7376 43.4767 28.1424 44.0673 28.7654C44.6579 29.3884 45.0204 30.1928 45.0959 31.048C45.1044 31.2909 45.2069 31.521 45.3818 31.6898C45.5567 31.8585 45.7903 31.9528 46.0334 31.9526H46.0662C46.3146 31.9432 46.5492 31.8359 46.7187 31.6541C46.8882 31.4723 46.9789 31.2308 46.9709 30.9823C46.8842 29.7861 46.4226 28.6476 45.6518 27.7288C44.881 26.8099 43.8401 26.1574 42.6771 25.864C42.9766 24.5923 43.6647 23.4455 44.6459 22.5828C45.2799 22.0544 46.0354 21.692 46.8443 21.5281C46.5049 22.2718 46.285 23.0643 46.1928 23.8765C46.1667 24.1237 46.2392 24.3712 46.3945 24.5652C46.5499 24.7591 46.7756 24.884 47.0225 24.9125C47.0553 24.9125 47.0928 24.9172 47.1256 24.9172C47.3563 24.9165 47.5787 24.8312 47.7506 24.6774C47.9226 24.5236 48.0321 24.312 48.0584 24.0828C48.1903 23.0086 48.5971 21.9866 49.2396 21.1156C49.249 21.1015 49.2584 21.0922 49.2678 21.0781C49.8085 20.293 50.5257 19.6454 51.3617 19.1873C52.1977 18.7292 53.1294 18.4733 54.0822 18.44C55.0349 18.4067 55.9822 18.5971 56.8482 18.9958C57.7141 19.3945 58.4747 19.9904 59.0689 20.7359L59.0693 20.7369ZM46.8682 54.1189C46.9901 54.1329 47.112 54.1423 47.2339 54.1517C47.3557 54.1611 47.4917 54.1658 47.6182 54.1658C49.0689 54.1434 50.4846 53.7164 51.7057 52.933C52.0809 54.1448 52.7435 55.248 53.637 56.1486C54.0846 56.5928 54.5852 56.9801 55.1276 57.3017C54.1179 58.9664 53.4921 60.8353 53.2958 62.7723C53.0996 64.7094 53.3378 66.6659 53.9932 68.4992C52.4662 68.8662 50.8753 68.8774 49.3432 68.532C47.7333 68.166 46.233 67.4239 44.9651 66.3664C46.0808 64.5541 46.8238 62.5374 47.1506 60.4344C47.4773 58.3314 47.3814 56.1843 46.8682 54.1189V54.1189ZM21.9125 22.2322C21.4671 21.1587 20.4406 20.7556 19.6156 20.4322C19.3718 20.3384 19.1421 20.2494 18.9406 20.1509C17.675 19.5228 17.1171 18.6837 17.2812 17.6525C17.539 16.054 19.4656 14.3623 21.3171 14.104C21.797 14.0361 22.281 14.0016 22.7656 14.0009C24.2361 13.9344 25.6826 14.3911 26.8484 15.29C27.9734 16.2462 28.5734 17.6853 28.6203 19.5645C28.6482 21.0139 28.3322 22.4492 27.6983 23.7529C27.0644 25.0565 26.1306 26.1914 24.9734 27.0645C24.2984 27.5661 23.2906 28.138 22.2921 28.0301C21.5796 27.9551 20.8015 27.3551 20.8296 26.6661C20.9157 26.1775 21.1008 25.7118 21.3734 25.2973C21.8281 24.4531 22.3953 23.404 21.9125 22.2322ZM2.50199 47.2897C2.43967 47.184 2.39925 47.0669 2.38314 46.9453C2.36704 46.8237 2.37557 46.7001 2.40824 46.5819C2.45609 46.403 2.55582 46.2424 2.69485 46.1201C2.83388 45.9979 3.00598 45.9196 3.18947 45.895C3.37295 45.8704 3.5596 45.9007 3.72589 45.9821C3.89217 46.0635 4.03065 46.1922 4.12386 46.3522L7.33011 51.9017L7.37699 51.9814L11.1082 58.4501C11.4569 59.0912 11.985 59.6167 12.6278 59.962C13.2707 60.3074 14.0003 60.4577 14.7273 60.3945C15.4544 60.3313 16.1471 60.0573 16.7207 59.6062C17.2944 59.1551 17.7239 58.5464 17.9567 57.8548C18.1268 57.3508 18.1876 56.8162 18.135 56.2869C18.0825 55.7575 17.9178 55.2453 17.652 54.7845L10.6207 42.6026C10.5584 42.497 10.518 42.3799 10.5019 42.2583C10.4858 42.1367 10.4943 42.0131 10.527 41.8948C10.5748 41.716 10.6746 41.5553 10.8136 41.4331C10.9526 41.3109 11.1247 41.2325 11.3082 41.208C11.4917 41.1834 11.6784 41.2137 11.8446 41.2951C12.0109 41.3764 12.1494 41.5052 12.2426 41.6651L19.227 53.7626C19.5756 54.4037 20.1037 54.9292 20.7466 55.2745C21.3894 55.6199 22.1191 55.7702 22.8461 55.707C23.5731 55.6438 24.2659 55.3698 24.8395 54.9187C25.4131 54.4676 25.8426 53.8589 26.0754 53.1673C26.2456 52.6633 26.3064 52.1287 26.2538 51.5993C26.2013 51.0699 26.0366 50.5578 25.7707 50.097L18.7395 37.9151C18.6772 37.8095 18.6367 37.6924 18.6206 37.5708C18.6045 37.4492 18.6131 37.3256 18.6457 37.2073C18.6936 37.0285 18.7933 36.8678 18.9324 36.7456C19.0714 36.6234 19.2435 36.545 19.427 36.5205C19.6105 36.4959 19.7971 36.5262 19.9634 36.6076C20.1297 36.6889 20.2682 36.8177 20.3614 36.9776L31.1426 55.6512C31.8427 56.8249 32.3025 58.1259 32.4954 59.4788C32.6883 60.8317 32.6103 62.2095 32.2661 63.532C31.9218 64.8545 31.3182 66.0954 30.4902 67.1825C29.6622 68.2697 28.6263 69.1815 27.4429 69.8648C26.2594 70.5482 24.952 70.9895 23.5965 71.1631C22.241 71.3368 20.8645 71.2393 19.547 70.8763C18.2295 70.5133 16.9973 69.8921 15.922 69.0488C14.8467 68.2054 13.9497 67.1568 13.2832 65.9637L8.90511 58.3798L8.85355 58.2908L2.50199 47.2897ZM48.6818 100.231C48.4674 101.109 47.9901 101.901 47.3138 102.501C46.6374 103.101 45.7941 103.48 44.8965 103.588C43.999 103.696 43.0898 103.528 42.2904 103.106C41.4911 102.683 40.8396 102.027 40.4229 101.225L38.8292 98.1359L25.6015 72.5164C25.6812 72.493 25.7656 72.4695 25.8453 72.4414C26.0046 72.3945 26.164 72.3383 26.3234 72.282C26.4218 72.2492 26.5156 72.2117 26.614 72.1742C27.1977 71.9469 27.7634 71.6758 28.3062 71.3633C28.5078 71.2461 28.7093 71.1242 28.9015 70.993C28.9275 70.979 28.9526 70.9634 28.9765 70.9461C29.1687 70.8195 29.3562 70.6883 29.539 70.5476C29.7031 70.4258 29.8671 70.2945 30.0265 70.1633C30.0781 70.1211 30.1296 70.0742 30.1812 70.0273C30.3125 69.9148 30.4437 69.7976 30.5703 69.6758C30.6021 69.6517 30.6319 69.6251 30.6593 69.5961L48.1104 96.7864C48.3751 97.1985 48.5699 97.6515 48.687 98.127V98.1317C48.7057 98.1926 48.7151 98.2489 48.7292 98.3098V98.3145C48.8516 98.9495 48.8354 99.6035 48.6818 100.232V100.231ZM69.3392 102.045C69.0623 102.525 68.6639 102.923 68.1841 103.199C67.7043 103.476 67.1601 103.621 66.6064 103.62C65.8977 103.618 65.2104 103.377 64.6552 102.937C64.1 102.496 63.7091 101.882 63.5454 101.192C63.4494 100.783 63.4364 100.358 63.5073 99.9434C63.5781 99.5287 63.7313 99.1325 63.9579 98.7781C63.9673 98.7594 63.9814 98.7453 63.9907 98.7266L77.7199 78.0467L81.8262 80.4186L71.397 98.4781L69.3392 102.045Z" fill="black"/>
<path d="M69.0486 37.4093C69.8795 37.815 70.7911 38.028 71.7158 38.0328C72.7956 38.0417 73.8552 37.739 74.7673 37.1609C74.9617 37.0145 75.0915 36.7982 75.1293 36.5578C75.1671 36.3175 75.11 36.0718 74.97 35.8728C74.83 35.6737 74.6181 35.5369 74.3791 35.4913C74.1401 35.4456 73.8927 35.4947 73.6892 35.6281C73.1091 35.9665 72.4526 36.1522 71.7812 36.1678C71.1097 36.1833 70.4453 36.0283 69.8501 35.7171C69.7382 35.6567 69.615 35.6197 69.4883 35.6084C69.3616 35.5971 69.2338 35.6118 69.1129 35.6514C68.992 35.691 68.8804 35.7549 68.785 35.839C68.6896 35.9232 68.6122 36.0259 68.5578 36.1409C68.5033 36.2559 68.4728 36.3808 68.4682 36.5079C68.4635 36.6351 68.4848 36.7619 68.5307 36.8805C68.5766 36.9992 68.6462 37.1073 68.7352 37.1982C68.8243 37.2891 68.9309 37.3609 69.0486 37.4093V37.4093Z" fill="black"/>
<path d="M63.7193 29.4219C63.7628 29.3068 63.7832 29.1843 63.7791 29.0613C63.7751 28.9384 63.7468 28.8174 63.6958 28.7054C63.6448 28.5935 63.5722 28.4927 63.4821 28.4089C63.392 28.3251 63.2862 28.26 63.1709 28.2172C62.5884 27.9564 61.9559 27.8262 61.3178 27.836C60.6796 27.8457 60.0514 27.995 59.4771 28.2735C58.3799 28.9262 57.5797 29.9803 57.2459 31.2125C57.2158 31.3316 57.2096 31.4555 57.2275 31.5771C57.2454 31.6986 57.2872 31.8154 57.3503 31.9208C57.4134 32.0262 57.4968 32.118 57.5955 32.1912C57.6942 32.2643 57.8064 32.3172 57.9256 32.3469C58.0011 32.3653 58.0785 32.3747 58.1562 32.375C58.3656 32.3749 58.5689 32.3046 58.7337 32.1755C58.8985 32.0464 59.0153 31.8658 59.0656 31.6625C59.2681 30.9485 59.7249 30.3332 60.3499 29.9328C60.6927 29.7842 61.0633 29.7107 61.4368 29.7172C61.8103 29.7236 62.1782 29.81 62.5156 29.9703C62.6306 30.0137 62.753 30.0339 62.8759 30.0298C62.9988 30.0257 63.1196 29.9974 63.2315 29.9464C63.3433 29.8954 63.444 29.8229 63.5277 29.7328C63.6115 29.6428 63.6766 29.5372 63.7193 29.4219V29.4219Z" fill="black"/>
<path d="M49.9334 56.8282C49.8837 56.5839 49.739 56.3694 49.5311 56.2318C49.3232 56.0942 49.0691 56.0448 48.8248 56.0946C48.5806 56.1443 48.366 56.289 48.2285 56.4969C48.0909 56.7048 48.0415 56.9589 48.0912 57.2032C48.1006 57.2407 48.8366 61.0793 46.7225 63.9293C46.5739 64.1288 46.5107 64.3792 46.5468 64.6253C46.5828 64.8715 46.7152 65.0932 46.9147 65.2418C47.1142 65.3903 47.3646 65.4535 47.6107 65.4175C47.8569 65.3815 48.0786 65.2491 48.2272 65.0496C50.8475 61.5152 49.9709 57.0204 49.9334 56.8282Z" fill="black"/>
<path d="M46.2968 34.7797C45.714 34.52 45.0817 34.3905 44.4437 34.4002C43.8058 34.4099 43.1776 34.5586 42.6031 34.8359C41.5059 35.4887 40.7057 36.5427 40.3718 37.775C40.3368 37.8962 40.3266 38.0233 40.3418 38.1485C40.3571 38.2738 40.3974 38.3946 40.4605 38.5039C40.5236 38.6132 40.6081 38.7086 40.7089 38.7844C40.8097 38.8603 40.9248 38.915 41.0473 38.9453C41.1698 38.9756 41.2971 38.9809 41.4217 38.9608C41.5462 38.9407 41.6655 38.8957 41.7722 38.8285C41.879 38.7612 41.971 38.6731 42.0429 38.5694C42.1148 38.4657 42.165 38.3486 42.1906 38.225C42.3931 37.5109 42.8499 36.8957 43.4749 36.4953C43.8177 36.3468 44.1883 36.2732 44.5618 36.2797C44.9353 36.2862 45.3031 36.3725 45.6406 36.5328C45.7573 36.5843 45.8834 36.6115 46.011 36.6125C46.1387 36.6136 46.2652 36.5886 46.3828 36.5391C46.5004 36.4895 46.6067 36.4165 46.6951 36.3245C46.7835 36.2324 46.8522 36.1233 46.8969 36.0037C46.9417 35.8842 46.9615 35.7568 46.9553 35.6293C46.9491 35.5018 46.9169 35.377 46.8607 35.2624C46.8045 35.1478 46.7255 35.0458 46.6286 34.9628C46.5316 34.8799 46.4187 34.8175 46.2968 34.7797V34.7797Z" fill="black"/>
</svg>
