<svg width="60" height="52" viewBox="0 0 60 52" fill="none" xmlns="http://www.w3.org/2000/svg">
<path d="M57.5 32H56.5C55.959 31.9999 55.4327 32.1753 55 32.5C54.9989 31.8373 54.7352 31.2021 54.2666 30.7335C53.798 30.2648 53.1627 30.0011 52.5 30H49.5C48.8373 30.0011 48.202 30.2648 47.7334 30.7335C47.2648 31.2021 47.0011 31.8373 47 32.5V37.9376C46.6675 37.8976 46.3325 37.8626 46 37.8326V6.50004C45.9987 5.33506 45.5462 4.21587 44.7375 3.37732C43.9287 2.53877 42.8267 2.04604 41.6625 2.00254C41.3794 1.40376 40.932 0.897693 40.3725 0.543204C39.813 0.188715 39.1644 0.000384243 38.502 0.000122344C37.8397 -0.000139555 37.1909 0.187678 36.6311 0.541725C36.0713 0.895771 35.6236 1.40149 35.34 2.00004H31.66C31.3766 1.40174 30.9292 0.896174 30.3698 0.542146C29.8104 0.188118 29.162 0.00017575 28.5 0.00017575C27.838 0.00017575 27.1896 0.188118 26.6302 0.542146C26.0708 0.896174 25.6234 1.40174 25.34 2.00004H20.66C20.3766 1.40174 19.9292 0.896174 19.3698 0.542146C18.8104 0.188118 18.162 0.00017575 17.5 0.00017575C16.838 0.00017575 16.1896 0.188118 15.6302 0.542146C15.0708 0.896174 14.6234 1.40174 14.34 2.00004H10.66C10.3764 1.40149 9.92866 0.895771 9.36888 0.541725C8.8091 0.187678 8.1603 -0.000139555 7.49796 0.000122344C6.83562 0.000384243 6.18696 0.188715 5.62747 0.543204C5.06797 0.897693 4.62063 1.40376 4.3375 2.00254C3.17333 2.04604 2.07125 2.53877 1.26253 3.37732C0.453816 4.21587 0.00132062 5.33506 0 6.50004V43.5001C0.000926955 44.6932 0.47533 45.8373 1.31904 46.681C2.16276 47.5247 3.30681 47.9991 4.5 48.0001H20.05C20.1664 48.5642 20.4735 49.071 20.9197 49.4352C21.3659 49.7995 21.924 49.999 22.5 50.0001H23.5C24.041 50.0002 24.5673 49.8248 25 49.5001C25.0011 50.1628 25.2648 50.798 25.7334 51.2667C26.202 51.7353 26.8373 51.999 27.5 52.0001H30.5C31.1627 51.999 31.798 51.7353 32.2666 51.2667C32.7352 50.798 32.9989 50.1628 33 49.5001V48.0001H41.5C42.5714 47.9989 43.6073 47.616 44.422 46.92C45.2366 46.2241 45.7765 45.2606 45.945 44.2026C46.2975 44.1651 46.6475 44.1226 47 44.0726V49.5001C47.0011 50.1628 47.2648 50.798 47.7334 51.2667C48.202 51.7353 48.8373 51.999 49.5 52.0001H52.5C53.1627 51.999 53.798 51.7353 54.2666 51.2667C54.7352 50.798 54.9989 50.1628 55 49.5001C55.4327 49.8248 55.959 50.0002 56.5 50.0001H57.5C58.1627 49.999 58.798 49.7353 59.2666 49.2667C59.7352 48.798 59.9989 48.1628 60 47.5001V34.5001C59.9989 33.8373 59.7352 33.2021 59.2666 32.7335C58.798 32.2648 58.1627 32.0011 57.5 32V32ZM25 32.5C24.5673 32.1753 24.041 31.9999 23.5 32H22.5C21.8373 32.0011 21.202 32.2648 20.7334 32.7335C20.2648 33.2021 20.0011 33.8373 20 34.5001H19.5V28H26.5V30.21C26.0544 30.4045 25.6751 30.7248 25.4087 31.1315C25.1423 31.5382 25.0003 32.0138 25 32.5V32.5ZM10.5 42.0001H3.5V35.5001H10.5V42.0001ZM11.5 20.5H18.5V27H11.5V20.5ZM10.5 27H3.5V20.5H10.5V27ZM3.5 28H10.5V34.5001H3.5V28ZM11.5 35.5001H18.5V42.0001H11.5V35.5001ZM18.5 34.5001H11.5V28H18.5V34.5001ZM26.5 19.5H19.5V13H26.5V19.5ZM27.5 13H34.5V19.5H27.5V13ZM35.5 13H42.5V19.5H35.5V13ZM35.5 20.5H42.5V27H35.5V20.5ZM35.5 28H42.5V34.5001H35.5V28ZM19.5 20.5H26.5V27H19.5V20.5ZM27.5 20.5H34.5V27H27.5V20.5ZM27.5 28H34.5V34.5001H33V32.5C32.9989 31.8373 32.7352 31.2021 32.2666 30.7335C31.798 30.2648 31.1627 30.0011 30.5 30H27.5V28ZM38.5 1.00004C38.8877 1.00043 39.27 1.09098 39.6167 1.26453C39.9633 1.43809 40.2649 1.68989 40.4975 2.00004H36.5025C36.7349 1.6897 37.0365 1.43776 37.3832 1.26419C37.7299 1.09062 38.1123 1.00018 38.5 1.00004V1.00004ZM28.5 1.00004C28.8877 1.00043 29.27 1.09098 29.6167 1.26453C29.9633 1.43809 30.2649 1.68989 30.4975 2.00004H26.5025C26.7349 1.6897 27.0365 1.43776 27.3832 1.26419C27.7299 1.09062 28.1123 1.00018 28.5 1.00004V1.00004ZM17.5 1.00004C17.8877 1.00043 18.27 1.09098 18.6167 1.26453C18.9633 1.43809 19.2649 1.68989 19.4975 2.00004H15.5025C15.7349 1.6897 16.0365 1.43776 16.3832 1.26419C16.7299 1.09062 17.1123 1.00018 17.5 1.00004V1.00004ZM7.5 1.00004C7.88769 1.00043 8.26998 1.09098 8.61665 1.26453C8.96333 1.43809 9.26489 1.68989 9.4975 2.00004H5.5025C5.73494 1.6897 6.03646 1.43776 6.38318 1.26419C6.72989 1.09062 7.11227 1.00018 7.5 1.00004V1.00004ZM1 6.50004C1.00099 5.57209 1.37006 4.68243 2.02622 4.02627C2.68238 3.3701 3.57205 3.00104 4.5 3.00004H9.9475C9.98265 3.16438 10.0003 3.33199 10 3.50004C10.0004 3.89732 9.90599 4.28895 9.72468 4.64243C9.54337 4.99592 9.28037 5.30107 8.9575 5.53254C8.76955 5.24874 8.50276 5.02603 8.18994 4.89181C7.87712 4.75758 7.5319 4.71768 7.19671 4.77701C6.86152 4.83634 6.55097 4.99232 6.30323 5.22577C6.0555 5.45922 5.88137 5.75996 5.80225 6.09104C5.79119 6.12346 5.78373 6.157 5.78 6.19104C5.75994 6.29282 5.74989 6.39631 5.75 6.50004C5.76279 6.95284 5.95065 7.38304 6.27409 7.70018C6.59752 8.01732 7.03133 8.19669 7.48429 8.20057C7.93725 8.20446 8.37407 8.03256 8.7029 7.72101C9.03173 7.40947 9.22695 6.98255 9.2475 6.53004C9.78033 6.22379 10.2229 5.78238 10.5306 5.25038C10.8383 4.71838 11.0002 4.11462 11 3.50004C10.9998 3.33277 10.9881 3.16571 10.965 3.00004H19.9475C19.9827 3.16438 20.0003 3.33199 20 3.50004C20.0004 3.89732 19.906 4.28895 19.7247 4.64243C19.5434 4.99592 19.2804 5.30107 18.9575 5.53254C18.7695 5.24874 18.5028 5.02603 18.1899 4.89181C17.8771 4.75758 17.5319 4.71768 17.1967 4.77701C16.8615 4.83634 16.551 4.99232 16.3032 5.22577C16.0555 5.45922 15.8814 5.75996 15.8022 6.09104C15.7912 6.12346 15.7837 6.157 15.78 6.19104C15.7599 6.29282 15.7499 6.39631 15.75 6.50004C15.7628 6.95284 15.9507 7.38304 16.2741 7.70018C16.5975 8.01732 17.0313 8.19669 17.4843 8.20057C17.9373 8.20446 18.3741 8.03256 18.7029 7.72101C19.0317 7.40947 19.2269 6.98255 19.2475 6.53004C19.7803 6.22379 20.2229 5.78238 20.5306 5.25038C20.8383 4.71838 21.0002 4.11462 21 3.50004C20.9998 3.33277 20.9881 3.16571 20.965 3.00004H30.9475C30.9827 3.16438 31.0003 3.33199 31 3.50004C31.0004 3.89732 30.906 4.28895 30.7247 4.64243C30.5434 4.99592 30.2804 5.30107 29.9575 5.53254C29.7695 5.24874 29.5028 5.02603 29.1899 4.89181C28.8771 4.75758 28.5319 4.71768 28.1967 4.77701C27.8615 4.83634 27.551 4.99232 27.3032 5.22577C27.0555 5.45922 26.8814 5.75996 26.8022 6.09104C26.7912 6.12346 26.7837 6.157 26.78 6.19104C26.7599 6.29282 26.7499 6.39631 26.75 6.50004C26.7628 6.95284 26.9507 7.38304 27.2741 7.70018C27.5975 8.01732 28.0313 8.19669 28.4843 8.20057C28.9373 8.20446 29.3741 8.03256 29.7029 7.72101C30.0317 7.40947 30.2269 6.98255 30.2475 6.53004C30.7803 6.22379 31.2229 5.78238 31.5306 5.25038C31.8383 4.71838 32.0002 4.11462 32 3.50004C31.9998 3.33277 31.9881 3.16571 31.965 3.00004H40.9475C40.9827 3.16438 41.0003 3.33199 41 3.50004C41.0004 3.89732 40.906 4.28895 40.7247 4.64243C40.5434 4.99592 40.2804 5.30107 39.9575 5.53254C39.7695 5.24874 39.5028 5.02603 39.1899 4.89181C38.8771 4.75758 38.5319 4.71768 38.1967 4.77701C37.8615 4.83634 37.551 4.99232 37.3032 5.22577C37.0555 5.45922 36.8814 5.75996 36.8022 6.09104C36.7912 6.12346 36.7837 6.157 36.78 6.19104C36.7599 6.29282 36.7499 6.39631 36.75 6.50004C36.7628 6.95284 36.9507 7.38304 37.2741 7.70018C37.5975 8.01732 38.0313 8.19669 38.4843 8.20057C38.9373 8.20446 39.3741 8.03256 39.7029 7.72101C40.0317 7.40947 40.2269 6.98255 40.2475 6.53004C40.7803 6.22379 41.2229 5.78238 41.5306 5.25038C41.8383 4.71838 42.0002 4.11462 42 3.50004C42.0001 3.34372 41.9901 3.18756 41.97 3.03254C42.8086 3.1473 43.5773 3.56161 44.1343 4.19896C44.6912 4.8363 44.9987 5.65365 45 6.50004V9.50004H1V6.50004ZM7.5 7.00004C7.70103 6.99975 7.9017 6.98303 8.1 6.95004C8.03016 7.04336 7.93949 7.11908 7.83521 7.17115C7.73093 7.22322 7.61593 7.25021 7.49937 7.24997C7.38282 7.24973 7.26793 7.22226 7.16387 7.16975C7.0598 7.11724 6.96945 7.04115 6.9 6.94754C7.09807 6.9826 7.29885 7.00016 7.5 7.00004V7.00004ZM6.995 5.94754C7.13253 5.82059 7.31283 5.75009 7.5 5.75009C7.68717 5.75009 7.86747 5.82059 8.005 5.94754C7.67172 6.01505 7.32828 6.01505 6.995 5.94754V5.94754ZM17.5 7.00004C17.701 6.99975 17.9017 6.98303 18.1 6.95004C18.0302 7.04336 17.9395 7.11908 17.8352 7.17115C17.7309 7.22322 17.6159 7.25021 17.4994 7.24997C17.3828 7.24973 17.2679 7.22226 17.1639 7.16975C17.0598 7.11724 16.9694 7.04115 16.9 6.94754C17.0981 6.9826 17.2988 7.00016 17.5 7.00004V7.00004ZM16.995 5.94754C17.1325 5.82059 17.3128 5.75009 17.5 5.75009C17.6872 5.75009 17.8675 5.82059 18.005 5.94754C17.6717 6.01505 17.3283 6.01505 16.995 5.94754V5.94754ZM28.5 7.00004C28.701 6.99975 28.9017 6.98303 29.1 6.95004C29.0302 7.04336 28.9395 7.11908 28.8352 7.17115C28.7309 7.22322 28.6159 7.25021 28.4994 7.24997C28.3828 7.24973 28.2679 7.22226 28.1639 7.16975C28.0598 7.11724 27.9694 7.04115 27.9 6.94754C28.0981 6.9826 28.2988 7.00016 28.5 7.00004V7.00004ZM27.995 5.94754C28.1325 5.82059 28.3128 5.75009 28.5 5.75009C28.6872 5.75009 28.8675 5.82059 29.005 5.94754C28.6717 6.01505 28.3283 6.01505 27.995 5.94754V5.94754ZM38.5 7.00004C38.701 6.99975 38.9017 6.98303 39.1 6.95004C39.0302 7.04336 38.9395 7.11908 38.8352 7.17115C38.7309 7.22322 38.6159 7.25021 38.4994 7.24997C38.3828 7.24973 38.2679 7.22226 38.1639 7.16975C38.0598 7.11724 37.9694 7.04115 37.9 6.94754C38.0981 6.9826 38.2988 7.00016 38.5 7.00004V7.00004ZM37.995 5.94754C38.1325 5.82059 38.3128 5.75009 38.5 5.75009C38.6872 5.75009 38.8675 5.82059 39.005 5.94754C38.6717 6.01505 38.3283 6.01505 37.995 5.94754V5.94754ZM23.5 49.0001H22.5C22.1022 49.0001 21.7206 48.842 21.4393 48.5607C21.158 48.2794 21 47.8979 21 47.5001V34.5001C21 34.1022 21.158 33.7207 21.4393 33.4394C21.7206 33.1581 22.1022 33 22.5 33H23.5C23.8978 33 24.2794 33.1581 24.5607 33.4394C24.842 33.7207 25 34.1022 25 34.5001V47.5001C25 47.8979 24.842 48.2794 24.5607 48.5607C24.2794 48.842 23.8978 49.0001 23.5 49.0001ZM32 49.5001C32 49.8979 31.842 50.2794 31.5607 50.5607C31.2794 50.842 30.8978 51.0001 30.5 51.0001H27.5C27.1022 51.0001 26.7206 50.842 26.4393 50.5607C26.158 50.2794 26 49.8979 26 49.5001V32.5C26.0007 32.1024 26.159 31.7213 26.4401 31.4402C26.7213 31.159 27.1024 31.0008 27.5 31H30.5C30.8978 31 31.2794 31.1581 31.5607 31.4394C31.842 31.7207 32 32.1022 32 32.5V49.5001ZM45.49 43.2476C41.3345 43.6907 37.1407 43.6294 33 43.0651V38.9451C37.1331 38.4702 41.3037 38.4174 45.4475 38.7875C45.965 38.8325 46.4825 38.8851 47 38.9451V43.0651C46.4975 43.1326 45.995 43.1951 45.49 43.2476ZM54 49.5001C54 49.8979 53.842 50.2794 53.5607 50.5607C53.2794 50.842 52.8978 51.0001 52.5 51.0001H49.5C49.1022 51.0001 48.7206 50.842 48.4393 50.5607C48.158 50.2794 48 49.8979 48 49.5001V32.5C48 32.1022 48.158 31.7207 48.4393 31.4394C48.7206 31.1581 49.1022 31 49.5 31H52.5C52.8978 31 53.2794 31.1581 53.5607 31.4394C53.842 31.7207 54 32.1022 54 32.5V49.5001ZM59 47.5001C59 47.8979 58.842 48.2794 58.5607 48.5607C58.2794 48.842 57.8978 49.0001 57.5 49.0001H56.5C56.1022 49.0001 55.7206 48.842 55.4393 48.5607C55.158 48.2794 55 47.8979 55 47.5001V34.5001C55 34.1022 55.158 33.7207 55.4393 33.4394C55.7206 33.1581 56.1022 33 56.5 33H57.5C57.8978 33 58.2794 33.1581 58.5607 33.4394C58.842 33.7207 59 34.1022 59 34.5001V47.5001Z" fill="#F76C1E"/>
<path d="M41.2225 21.0525C41.1038 20.9936 40.9666 20.9842 40.8409 21.0264C40.7153 21.0686 40.6116 21.1589 40.5525 21.2775L38.82 24.74L37.3 23.6C37.1939 23.5205 37.0606 23.4863 36.9293 23.5051C36.798 23.5238 36.6796 23.594 36.6 23.7001C36.5204 23.8061 36.4863 23.9395 36.505 24.0708C36.5238 24.202 36.5939 24.3205 36.7 24.4L38.7 25.9C38.7867 25.9648 38.8919 25.9998 39 26C39.0387 25.9996 39.0772 25.9954 39.115 25.9875C39.1863 25.9701 39.253 25.9373 39.3104 25.8916C39.3678 25.8458 39.4146 25.7881 39.4475 25.7225L41.4475 21.7225C41.5064 21.6039 41.5159 21.4666 41.4737 21.341C41.4315 21.2154 41.3411 21.1116 41.2225 21.0525Z" fill="#F76C1E"/>
<path d="M41.3525 18.6026C41.3994 18.5567 41.4366 18.5018 41.4621 18.4413C41.4875 18.3807 41.5006 18.3158 41.5006 18.2501C41.5006 18.1844 41.4875 18.1194 41.4621 18.0589C41.4366 17.9984 41.3994 17.9435 41.3525 17.8976L39.705 16.2501L41.3525 14.6026C41.446 14.5091 41.4985 14.3823 41.4985 14.2501C41.4985 14.1179 41.446 13.9911 41.3525 13.8976C41.3062 13.8513 41.2512 13.8146 41.1907 13.7895C41.1303 13.7645 41.0654 13.7516 41 13.7516C40.8678 13.7516 40.741 13.8041 40.6475 13.8976L39 15.5451L37.3525 13.8976C37.259 13.8041 37.1322 13.7516 37 13.7516C36.8678 13.7516 36.741 13.8041 36.6475 13.8976C36.554 13.9911 36.5015 14.1179 36.5015 14.2501C36.5015 14.3823 36.554 14.5091 36.6475 14.6026L38.295 16.2501L36.6475 17.8976C36.554 17.9911 36.5015 18.1179 36.5015 18.2501C36.5015 18.3823 36.554 18.5091 36.6475 18.6026C36.741 18.6961 36.8678 18.7486 37 18.7486C37.1322 18.7486 37.259 18.6961 37.3525 18.6026L39 16.9551L40.6475 18.6026C40.6935 18.6493 40.7484 18.6864 40.8089 18.7117C40.8694 18.737 40.9344 18.7501 41 18.7501C41.0656 18.7501 41.1305 18.737 41.191 18.7117C41.2515 18.6864 41.3064 18.6493 41.3525 18.6026Z" fill="#F76C1E"/>
<path d="M33.2225 13.5525C33.1038 13.4936 32.9666 13.4842 32.8409 13.5264C32.7153 13.5686 32.6116 13.6589 32.5525 13.7775L30.82 17.24L29.3 16.1C29.1939 16.0205 29.0606 15.9863 28.9293 16.0051C28.798 16.0238 28.6796 16.094 28.6 16.2001C28.5204 16.3061 28.4863 16.4395 28.505 16.5708C28.5238 16.702 28.5939 16.8205 28.7 16.9L30.7 18.4C30.7867 18.4648 30.8919 18.4998 31 18.5C31.0386 18.4996 31.0772 18.4954 31.115 18.4875C31.1863 18.4701 31.253 18.4373 31.3104 18.3916C31.3678 18.3458 31.4146 18.2881 31.4475 18.2225L33.4475 14.2225C33.5064 14.1039 33.5159 13.9666 33.4737 13.841C33.4315 13.7154 33.3411 13.6116 33.2225 13.5525Z" fill="#F76C1E"/>
<path d="M33.2225 21.0525C33.1038 20.9936 32.9666 20.9842 32.8409 21.0264C32.7153 21.0686 32.6116 21.1589 32.5525 21.2775L30.82 24.74L29.3 23.6C29.2475 23.5607 29.1877 23.532 29.1241 23.5157C29.0605 23.4994 28.9943 23.4958 28.9293 23.5051C28.8643 23.5144 28.8018 23.5364 28.7453 23.5698C28.6888 23.6033 28.6394 23.6475 28.6 23.7001C28.5606 23.7526 28.5319 23.8124 28.5156 23.876C28.4993 23.9396 28.4957 24.0058 28.505 24.0708C28.5143 24.1358 28.5363 24.1983 28.5698 24.2548C28.6032 24.3113 28.6475 24.3607 28.7 24.4L30.7 25.9C30.7866 25.9648 30.8918 25.9998 31 26C31.0386 25.9996 31.0772 25.9954 31.115 25.9875C31.1863 25.9701 31.253 25.9373 31.3104 25.8916C31.3678 25.8458 31.4146 25.7881 31.4475 25.7225L33.4475 21.7225C33.5064 21.6039 33.5159 21.4666 33.4737 21.341C33.4315 21.2154 33.3411 21.1116 33.2225 21.0525Z" fill="#F76C1E"/>
<path d="M17.7225 21.0525C17.6038 20.9936 17.4666 20.9842 17.3409 21.0264C17.2153 21.0686 17.1116 21.1589 17.0525 21.2775L15.32 24.74L13.8 23.6C13.7475 23.5607 13.6877 23.532 13.6241 23.5157C13.5605 23.4994 13.4943 23.4958 13.4293 23.5051C13.3643 23.5144 13.3018 23.5364 13.2453 23.5698C13.1888 23.6033 13.1394 23.6475 13.1 23.7001C13.0606 23.7526 13.0319 23.8124 13.0156 23.876C12.9993 23.9396 12.9957 24.0058 13.005 24.0708C13.0143 24.1358 13.0363 24.1983 13.0698 24.2548C13.1032 24.3113 13.1475 24.3607 13.2 24.4L15.2 25.9C15.2867 25.9648 15.3919 25.9998 15.5 26C15.5386 25.9996 15.5772 25.9954 15.615 25.9875C15.6863 25.9701 15.753 25.9373 15.8104 25.8916C15.8678 25.8458 15.9146 25.7881 15.9475 25.7225L17.9475 21.7225C18.0064 21.6039 18.0159 21.4666 17.9737 21.341C17.9315 21.2154 17.8411 21.1116 17.7225 21.0525Z" fill="#F76C1E"/>
<path d="M4.7 24.4L6.7 25.9C6.78665 25.9647 6.89185 25.9998 7 26C7.03865 25.9996 7.07716 25.9954 7.115 25.9875C7.1863 25.97 7.25295 25.9373 7.31036 25.8915C7.36776 25.8458 7.41455 25.7881 7.4475 25.7225L9.4475 21.7225C9.47915 21.6635 9.49862 21.5987 9.50476 21.5321C9.5109 21.4654 9.50358 21.3982 9.48325 21.3344C9.46291 21.2706 9.42997 21.2115 9.38638 21.1607C9.34278 21.1099 9.28942 21.0683 9.22947 21.0385C9.16951 21.0087 9.10418 20.9912 9.03735 20.9871C8.97051 20.9831 8.90354 20.9924 8.8404 21.0147C8.77726 21.037 8.71924 21.0718 8.66979 21.1169C8.62033 21.162 8.58045 21.2167 8.5525 21.2775L6.82 24.74L5.3 23.6C5.24747 23.5606 5.1877 23.5319 5.12409 23.5156C5.06048 23.4994 4.99429 23.4957 4.92929 23.505C4.86429 23.5143 4.80175 23.5363 4.74525 23.5698C4.68875 23.6032 4.6394 23.6475 4.6 23.7C4.5606 23.7525 4.53194 23.8123 4.51564 23.8759C4.49935 23.9395 4.49574 24.0057 4.50503 24.0707C4.51431 24.1357 4.53631 24.1983 4.56976 24.2548C4.60322 24.3113 4.64747 24.3606 4.7 24.4Z" fill="#F76C1E"/>
<path d="M9.2225 28.5525C9.10381 28.4936 8.96657 28.4842 8.84093 28.5264C8.7153 28.5686 8.61156 28.6589 8.5525 28.7775L6.82 32.2401L5.3 31.1C5.19392 31.0205 5.06057 30.9863 4.92929 31.0051C4.79802 31.0238 4.67957 31.094 4.6 31.2C4.52044 31.3061 4.48627 31.4395 4.50503 31.5708C4.52378 31.702 4.59392 31.8205 4.7 31.9L6.7 33.4001C6.78665 33.4648 6.89185 33.4998 7 33.5C7.03865 33.4996 7.07716 33.4954 7.115 33.4875C7.1863 33.4701 7.25295 33.4373 7.31036 33.3916C7.36776 33.3458 7.41456 33.2881 7.4475 33.2225L9.4475 29.2225C9.50645 29.1039 9.51586 28.9666 9.47367 28.841C9.43148 28.7153 9.34114 28.6116 9.2225 28.5525Z" fill="#F76C1E"/>
</svg>
