<svg width="114" height="98" viewBox="0 0 114 98" fill="none" xmlns="http://www.w3.org/2000/svg">
<path d="M108.562 60.2501H106.688C105.673 60.2498 104.686 60.5788 103.875 61.1876C103.873 59.945 103.379 58.7539 102.5 57.8752C101.621 56.9966 100.43 56.5021 99.1875 56.5001H93.5625C92.3199 56.5021 91.1288 56.9966 90.2501 57.8752C89.3715 58.7539 88.877 59.945 88.875 61.1876V71.3829C88.2516 71.3079 87.6234 71.2423 87 71.186V12.4376C86.9975 10.2532 86.1491 8.15476 84.6327 6.58248C83.1164 5.0102 81.05 4.08635 78.8672 4.00478C78.3363 2.88207 77.4976 1.93319 76.4485 1.26852C75.3994 0.603856 74.1832 0.250736 72.9413 0.250245C71.6994 0.249754 70.4829 0.601912 69.4333 1.26575C68.3838 1.92959 67.5443 2.87781 67.0125 4.00009H60.1125C59.5812 2.87827 58.7423 1.93034 57.6934 1.26654C56.6446 0.602737 55.4288 0.250345 54.1875 0.250345C52.9462 0.250345 51.7304 0.602737 50.6816 1.26654C49.6327 1.93034 48.7938 2.87827 48.2625 4.00009H39.4875C38.9562 2.87827 38.1173 1.93034 37.0684 1.26654C36.0196 0.602737 34.8038 0.250345 33.5625 0.250345C32.3212 0.250345 31.1054 0.602737 30.0566 1.26654C29.0077 1.93034 28.1688 2.87827 27.6375 4.00009H20.7375C20.2057 2.87781 19.3662 1.92959 18.3167 1.26575C17.2671 0.601912 16.0506 0.249754 14.8087 0.250245C13.5668 0.250736 12.3506 0.603856 11.3015 1.26852C10.2524 1.93319 9.41369 2.88207 8.88281 4.00478C6.69999 4.08635 4.6336 5.0102 3.11725 6.58248C1.6009 8.15476 0.752476 10.2532 0.75 12.4376V81.8126C0.751738 84.0498 1.64124 86.1949 3.22321 87.7769C4.80517 89.3589 6.95027 90.2484 9.1875 90.2501H38.3437C38.562 91.3078 39.1379 92.2581 39.9745 92.9411C40.8112 93.6241 41.8575 93.998 42.9375 94.0001H44.8125C45.8268 94.0004 46.8138 93.6714 47.625 93.0626C47.627 94.3052 48.1215 95.4963 49.0001 96.375C49.8788 97.2536 51.0699 97.7481 52.3125 97.7501H57.9375C59.1801 97.7481 60.3712 97.2536 61.2499 96.375C62.1285 95.4963 62.623 94.3052 62.625 93.0626V90.2501H78.5625C80.5714 90.2479 82.5138 89.5299 84.0412 88.225C85.5686 86.9201 86.581 85.1137 86.8969 83.1298C87.5578 83.0595 88.2141 82.9798 88.875 82.886V93.0626C88.877 94.3052 89.3715 95.4963 90.2501 96.375C91.1288 97.2536 92.3199 97.7481 93.5625 97.7501H99.1875C100.43 97.7481 101.621 97.2536 102.5 96.375C103.379 95.4963 103.873 94.3052 103.875 93.0626C104.686 93.6714 105.673 94.0004 106.688 94.0001H108.562C109.805 93.9981 110.996 93.5036 111.875 92.625C112.754 91.7463 113.248 90.5552 113.25 89.3126V64.9376C113.248 63.695 112.754 62.5039 111.875 61.6252C110.996 60.7466 109.805 60.2521 108.562 60.2501V60.2501ZM47.625 61.1876C46.8138 60.5788 45.8268 60.2498 44.8125 60.2501H42.9375C41.6949 60.2521 40.5038 60.7466 39.6251 61.6252C38.7465 62.5039 38.252 63.695 38.25 64.9376H37.3125V52.7501H50.4375V56.8938C49.6019 57.2585 48.8909 57.8589 48.3913 58.6215C47.8918 59.3842 47.6255 60.2759 47.625 61.1876V61.1876ZM20.4375 79.0001H7.3125V66.8126H20.4375V79.0001ZM22.3125 38.6876H35.4375V50.8751H22.3125V38.6876ZM20.4375 50.8751H7.3125V38.6876H20.4375V50.8751ZM7.3125 52.7501H20.4375V64.9376H7.3125V52.7501ZM22.3125 66.8126H35.4375V79.0001H22.3125V66.8126ZM35.4375 64.9376H22.3125V52.7501H35.4375V64.9376ZM50.4375 36.8126H37.3125V24.6251H50.4375V36.8126ZM52.3125 24.6251H65.4375V36.8126H52.3125V24.6251ZM67.3125 24.6251H80.4375V36.8126H67.3125V24.6251ZM67.3125 38.6876H80.4375V50.8751H67.3125V38.6876ZM67.3125 52.7501H80.4375V64.9376H67.3125V52.7501ZM37.3125 38.6876H50.4375V50.8751H37.3125V38.6876ZM52.3125 38.6876H65.4375V50.8751H52.3125V38.6876ZM52.3125 52.7501H65.4375V64.9376H62.625V61.1876C62.623 59.945 62.1285 58.7539 61.2499 57.8752C60.3712 56.9966 59.1801 56.5021 57.9375 56.5001H52.3125V52.7501ZM72.9375 2.12509C73.6644 2.12582 74.3812 2.2956 75.0312 2.62101C75.6812 2.94643 76.2467 3.41856 76.6828 4.00009H69.1922C69.628 3.41821 70.1934 2.94582 70.8435 2.62037C71.4935 2.29492 72.2105 2.12535 72.9375 2.12509V2.12509ZM54.1875 2.12509C54.9144 2.12582 55.6312 2.2956 56.2812 2.62101C56.9312 2.94643 57.4967 3.41856 57.9328 4.00009H50.4422C50.878 3.41821 51.4434 2.94582 52.0935 2.62037C52.7435 2.29492 53.4605 2.12535 54.1875 2.12509V2.12509ZM33.5625 2.12509C34.2894 2.12582 35.0062 2.2956 35.6562 2.62101C36.3062 2.94643 36.8717 3.41856 37.3078 4.00009H29.8172C30.253 3.41821 30.8184 2.94582 31.4685 2.62037C32.1185 2.29492 32.8355 2.12535 33.5625 2.12509V2.12509ZM14.8125 2.12509C15.5394 2.12582 16.2562 2.2956 16.9062 2.62101C17.5562 2.94643 18.1217 3.41856 18.5578 4.00009H11.0672C11.503 3.41821 12.0684 2.94582 12.7185 2.62037C13.3685 2.29492 14.0855 2.12535 14.8125 2.12509V2.12509ZM2.625 12.4376C2.62686 10.6977 3.31886 9.02957 4.54917 7.79926C5.77947 6.56896 7.44759 5.87696 9.1875 5.87509H19.4016C19.4675 6.18323 19.5005 6.49749 19.5 6.81259C19.5007 7.55748 19.3237 8.29179 18.9838 8.95458C18.6438 9.61737 18.1507 10.1895 17.5453 10.6235C17.1929 10.0914 16.6927 9.67383 16.1061 9.42215C15.5196 9.17048 14.8723 9.09567 14.2438 9.20691C13.6154 9.31816 13.0331 9.61061 12.5686 10.0483C12.1041 10.486 11.7776 11.0499 11.6292 11.6707C11.6085 11.7315 11.5945 11.7944 11.5875 11.8582C11.5499 12.049 11.531 12.2431 11.5312 12.4376C11.5552 13.2866 11.9075 14.0932 12.5139 14.6878C13.1204 15.2825 13.9337 15.6188 14.783 15.6261C15.6323 15.6334 16.4514 15.3111 17.0679 14.7269C17.6845 14.1428 18.0505 13.3423 18.0891 12.4938C19.0881 11.9196 19.918 11.092 20.495 10.0945C21.0719 9.09698 21.3755 7.96492 21.375 6.81259C21.3746 6.49896 21.3527 6.18572 21.3094 5.87509H38.1516C38.2175 6.18323 38.2505 6.49749 38.25 6.81259C38.2507 7.55748 38.0737 8.29179 37.7338 8.95458C37.3938 9.61737 36.9007 10.1895 36.2953 10.6235C35.9429 10.0914 35.4427 9.67383 34.8561 9.42215C34.2696 9.17048 33.6223 9.09567 32.9938 9.20691C32.3654 9.31816 31.7831 9.61061 31.3186 10.0483C30.8541 10.486 30.5276 11.0499 30.3792 11.6707C30.3585 11.7315 30.3445 11.7944 30.3375 11.8582C30.2999 12.049 30.281 12.2431 30.2812 12.4376C30.3052 13.2866 30.6575 14.0932 31.2639 14.6878C31.8704 15.2825 32.6837 15.6188 33.533 15.6261C34.3823 15.6334 35.2014 15.3111 35.8179 14.7269C36.4345 14.1428 36.8005 13.3423 36.8391 12.4938C37.8381 11.9196 38.668 11.092 39.2449 10.0945C39.8219 9.09698 40.1255 7.96492 40.125 6.81259C40.1246 6.49896 40.1027 6.18572 40.0594 5.87509H58.7766C58.8425 6.18323 58.8755 6.49749 58.875 6.81259C58.8757 7.55748 58.6987 8.29179 58.3588 8.95458C58.0188 9.61737 57.5257 10.1895 56.9203 10.6235C56.5679 10.0914 56.0677 9.67383 55.4811 9.42215C54.8946 9.17048 54.2473 9.09567 53.6188 9.20691C52.9904 9.31816 52.4081 9.61061 51.9436 10.0483C51.4791 10.486 51.1526 11.0499 51.0042 11.6707C50.9835 11.7315 50.9695 11.7944 50.9625 11.8582C50.9249 12.049 50.906 12.2431 50.9062 12.4376C50.9302 13.2866 51.2825 14.0932 51.8889 14.6878C52.4954 15.2825 53.3087 15.6188 54.158 15.6261C55.0073 15.6334 55.8264 15.3111 56.4429 14.7269C57.0595 14.1428 57.4255 13.3423 57.4641 12.4938C58.4631 11.9196 59.293 11.092 59.8699 10.0945C60.4469 9.09698 60.7505 7.96492 60.75 6.81259C60.7496 6.49896 60.7277 6.18572 60.6844 5.87509H77.5266C77.5925 6.18323 77.6255 6.49749 77.625 6.81259C77.6257 7.55748 77.4487 8.29179 77.1088 8.95458C76.7688 9.61737 76.2757 10.1895 75.6703 10.6235C75.3179 10.0914 74.8177 9.67383 74.2311 9.42215C73.6446 9.17048 72.9973 9.09567 72.3688 9.20691C71.7404 9.31816 71.1581 9.61061 70.6936 10.0483C70.2291 10.486 69.9026 11.0499 69.7542 11.6707C69.7335 11.7315 69.7195 11.7944 69.7125 11.8582C69.6749 12.049 69.656 12.2431 69.6562 12.4376C69.6802 13.2866 70.0325 14.0932 70.6389 14.6878C71.2454 15.2825 72.0587 15.6188 72.908 15.6261C73.7573 15.6334 74.5764 15.3111 75.1929 14.7269C75.8095 14.1428 76.1755 13.3423 76.2141 12.4938C77.2131 11.9196 78.043 11.092 78.6199 10.0945C79.1969 9.09698 79.5005 7.96492 79.5 6.81259C79.5002 6.5195 79.4815 6.22669 79.4438 5.93603C81.0161 6.1512 82.4575 6.92802 83.5017 8.12305C84.546 9.31808 85.1226 10.8506 85.125 12.4376V18.0626H2.625V12.4376ZM14.8125 13.3751C15.1894 13.3745 15.5657 13.3432 15.9375 13.2813C15.8066 13.4563 15.6365 13.5983 15.441 13.6959C15.2455 13.7936 15.0299 13.8442 14.8113 13.8437C14.5928 13.8432 14.3774 13.7917 14.1822 13.6933C13.9871 13.5948 13.8177 13.4522 13.6875 13.2767C14.0589 13.3424 14.4353 13.3753 14.8125 13.3751V13.3751ZM13.8656 11.4017C14.1235 11.1636 14.4616 11.0314 14.8125 11.0314C15.1634 11.0314 15.5015 11.1636 15.7594 11.4017C15.1345 11.5282 14.4905 11.5282 13.8656 11.4017V11.4017ZM33.5625 13.3751C33.9394 13.3745 34.3157 13.3432 34.6875 13.2813C34.5566 13.4563 34.3865 13.5983 34.191 13.6959C33.9955 13.7936 33.7799 13.8442 33.5613 13.8437C33.3428 13.8432 33.1274 13.7917 32.9322 13.6933C32.7371 13.5948 32.5677 13.4522 32.4375 13.2767C32.8089 13.3424 33.1853 13.3753 33.5625 13.3751V13.3751ZM32.6156 11.4017C32.8735 11.1636 33.2116 11.0314 33.5625 11.0314C33.9134 11.0314 34.2515 11.1636 34.5094 11.4017C33.8845 11.5282 33.2405 11.5282 32.6156 11.4017V11.4017ZM54.1875 13.3751C54.5644 13.3745 54.9407 13.3432 55.3125 13.2813C55.1816 13.4563 55.0115 13.5983 54.816 13.6959C54.6205 13.7936 54.4049 13.8442 54.1863 13.8437C53.9678 13.8432 53.7524 13.7917 53.5572 13.6933C53.3621 13.5948 53.1927 13.4522 53.0625 13.2767C53.4339 13.3424 53.8103 13.3753 54.1875 13.3751V13.3751ZM53.2406 11.4017C53.4985 11.1636 53.8366 11.0314 54.1875 11.0314C54.5384 11.0314 54.8765 11.1636 55.1344 11.4017C54.5095 11.5282 53.8655 11.5282 53.2406 11.4017V11.4017ZM72.9375 13.3751C73.3144 13.3745 73.6907 13.3432 74.0625 13.2813C73.9316 13.4563 73.7615 13.5983 73.566 13.6959C73.3705 13.7936 73.1549 13.8442 72.9363 13.8437C72.7178 13.8432 72.5024 13.7917 72.3072 13.6933C72.1121 13.5948 71.9427 13.4522 71.8125 13.2767C72.1839 13.3424 72.5603 13.3753 72.9375 13.3751V13.3751ZM71.9906 11.4017C72.2485 11.1636 72.5866 11.0314 72.9375 11.0314C73.2884 11.0314 73.6265 11.1636 73.8844 11.4017C73.2595 11.5282 72.6155 11.5282 71.9906 11.4017V11.4017ZM44.8125 92.1251H42.9375C42.1916 92.1251 41.4762 91.8288 40.9488 91.3013C40.4213 90.7739 40.125 90.0585 40.125 89.3126V64.9376C40.125 64.1917 40.4213 63.4763 40.9488 62.9489C41.4762 62.4214 42.1916 62.1251 42.9375 62.1251H44.8125C45.5584 62.1251 46.2738 62.4214 46.8012 62.9489C47.3287 63.4763 47.625 64.1917 47.625 64.9376V89.3126C47.625 90.0585 47.3287 90.7739 46.8012 91.3013C46.2738 91.8288 45.5584 92.1251 44.8125 92.1251ZM60.75 93.0626C60.75 93.8085 60.4537 94.5239 59.9262 95.0513C59.3988 95.5788 58.6834 95.8751 57.9375 95.8751H52.3125C51.5666 95.8751 50.8512 95.5788 50.3238 95.0513C49.7963 94.5239 49.5 93.8085 49.5 93.0626V61.1876C49.5014 60.4421 49.7981 59.7275 50.3253 59.2004C50.8524 58.6732 51.567 58.3765 52.3125 58.3751H57.9375C58.6834 58.3751 59.3988 58.6714 59.9262 59.1989C60.4537 59.7263 60.75 60.4417 60.75 61.1876V93.0626ZM86.0438 81.3392C78.2523 82.17 70.3889 82.0551 62.625 80.997V73.272C70.3745 72.3816 78.1945 72.2827 85.9641 72.9767C86.9344 73.061 87.9047 73.1595 88.875 73.272V80.997C87.9328 81.1235 86.9906 81.2407 86.0438 81.3392ZM102 93.0626C102 93.8085 101.704 94.5239 101.176 95.0513C100.649 95.5788 99.9334 95.8751 99.1875 95.8751H93.5625C92.8166 95.8751 92.1012 95.5788 91.5738 95.0513C91.0463 94.5239 90.75 93.8085 90.75 93.0626V61.1876C90.75 60.4417 91.0463 59.7263 91.5738 59.1989C92.1012 58.6714 92.8166 58.3751 93.5625 58.3751H99.1875C99.9334 58.3751 100.649 58.6714 101.176 59.1989C101.704 59.7263 102 60.4417 102 61.1876V93.0626ZM111.375 89.3126C111.375 90.0585 111.079 90.7739 110.551 91.3013C110.024 91.8288 109.308 92.1251 108.562 92.1251H106.688C105.942 92.1251 105.226 91.8288 104.699 91.3013C104.171 90.7739 103.875 90.0585 103.875 89.3126V64.9376C103.875 64.1917 104.171 63.4763 104.699 62.9489C105.226 62.4214 105.942 62.1251 106.688 62.1251H108.562C109.308 62.1251 110.024 62.4214 110.551 62.9489C111.079 63.4763 111.375 64.1917 111.375 64.9376V89.3126Z" fill="black"/>
<path d="M78.0422 39.7236C77.8196 39.6131 77.5623 39.5954 77.3268 39.6745C77.0912 39.7536 76.8967 39.923 76.7859 40.1455L73.5375 46.6376L70.6875 44.5001C70.4886 44.351 70.2386 44.2869 69.9924 44.3221C69.7463 44.3572 69.5242 44.4887 69.375 44.6876C69.2258 44.8866 69.1618 45.1366 69.1969 45.3827C69.2321 45.6289 69.3636 45.851 69.5625 46.0001L73.3125 48.8126C73.475 48.934 73.6722 48.9997 73.875 49.0001C73.9475 48.9993 74.0197 48.9914 74.0906 48.9767C74.2243 48.9439 74.3493 48.8825 74.4569 48.7967C74.5646 48.711 74.6523 48.6028 74.7141 48.4798L78.4641 40.9798C78.5746 40.7573 78.5922 40.4999 78.5131 40.2644C78.434 40.0288 78.2646 39.8343 78.0422 39.7236Z" fill="black"/>
<path d="M78.2858 35.1298C78.3738 35.0437 78.4436 34.9408 78.4913 34.8273C78.539 34.7139 78.5636 34.592 78.5636 34.4689C78.5636 34.3458 78.539 34.2239 78.4913 34.1104C78.4436 33.9969 78.3738 33.8941 78.2858 33.8079L75.1968 30.7189L78.2858 27.6298C78.4611 27.4545 78.5596 27.2168 78.5596 26.9689C78.5596 26.721 78.4611 26.4832 78.2858 26.3079C78.199 26.2212 78.096 26.1523 77.9826 26.1053C77.8692 26.0584 77.7476 26.0342 77.6249 26.0342C77.377 26.0342 77.1392 26.1327 76.9639 26.3079L73.8749 29.397L70.7858 26.3079C70.6105 26.1327 70.3728 26.0342 70.1249 26.0342C69.877 26.0342 69.6392 26.1327 69.4639 26.3079C69.2887 26.4832 69.1902 26.721 69.1902 26.9689C69.1902 27.2168 69.2887 27.4545 69.4639 27.6298L72.553 30.7189L69.4639 33.8079C69.2887 33.9832 69.1902 34.221 69.1902 34.4689C69.1902 34.7168 69.2887 34.9545 69.4639 35.1298C69.6392 35.3051 69.877 35.4036 70.1249 35.4036C70.3728 35.4036 70.6105 35.3051 70.7858 35.1298L73.8749 32.0408L76.9639 35.1298C77.0503 35.2174 77.1532 35.287 77.2667 35.3344C77.3801 35.3819 77.5019 35.4064 77.6249 35.4064C77.7479 35.4064 77.8697 35.3819 77.9831 35.3344C78.0966 35.287 78.1995 35.2174 78.2858 35.1298V35.1298Z" fill="black"/>
<path d="M63.0422 25.6611C62.8196 25.5506 62.5623 25.5329 62.3267 25.612C62.0912 25.6911 61.8967 25.8605 61.7859 26.083L58.5375 32.5751L55.6875 30.4376C55.4886 30.2885 55.2386 30.2244 54.9924 30.2596C54.7463 30.2947 54.5242 30.4262 54.375 30.6251C54.2258 30.8241 54.1618 31.0741 54.1969 31.3202C54.2321 31.5664 54.3636 31.7885 54.5625 31.9376L58.3125 34.7501C58.475 34.8715 58.6722 34.9372 58.875 34.9376C58.9475 34.9368 59.0197 34.9289 59.0906 34.9142C59.2243 34.8814 59.3493 34.82 59.4569 34.7342C59.5646 34.6485 59.6523 34.5403 59.7141 34.4173L63.4641 26.9173C63.5746 26.6948 63.5922 26.4374 63.5131 26.2019C63.434 25.9663 63.2646 25.7718 63.0422 25.6611Z" fill="black"/>
<path d="M63.0422 39.7236C62.8196 39.6131 62.5623 39.5954 62.3267 39.6745C62.0912 39.7536 61.8967 39.923 61.7859 40.1455L58.5375 46.6376L55.6875 44.5001C55.589 44.4263 55.4769 44.3725 55.3577 44.342C55.2384 44.3114 55.1143 44.3046 54.9924 44.3221C54.8705 44.3395 54.7533 44.3807 54.6473 44.4434C54.5414 44.5062 54.4489 44.5891 54.375 44.6876C54.3011 44.7861 54.2474 44.8982 54.2168 45.0175C54.1863 45.1367 54.1795 45.2608 54.1969 45.3827C54.2143 45.5046 54.2556 45.6219 54.3183 45.7278C54.381 45.8337 54.464 45.9263 54.5625 46.0001L58.3125 48.8126C58.475 48.934 58.6722 48.9997 58.875 49.0001C58.9475 48.9993 59.0197 48.9914 59.0906 48.9767C59.2243 48.9439 59.3493 48.8825 59.4569 48.7967C59.5646 48.711 59.6523 48.6028 59.7141 48.4798L63.4641 40.9798C63.5746 40.7573 63.5922 40.4999 63.5131 40.2644C63.434 40.0288 63.2646 39.8343 63.0422 39.7236Z" fill="black"/>
<path d="M33.9797 39.7236C33.7571 39.6131 33.4998 39.5954 33.2643 39.6745C33.0287 39.7536 32.8342 39.923 32.7234 40.1455L29.475 46.6376L26.625 44.5001C26.5265 44.4263 26.4144 44.3725 26.2952 44.342C26.1759 44.3114 26.0518 44.3046 25.9299 44.3221C25.808 44.3395 25.6908 44.3807 25.5849 44.4434C25.4789 44.5062 25.3864 44.5891 25.3125 44.6876C25.2386 44.7861 25.1849 44.8982 25.1543 45.0175C25.1238 45.1367 25.117 45.2608 25.1344 45.3827C25.1518 45.5046 25.1931 45.6219 25.2558 45.7278C25.3185 45.8337 25.4015 45.9263 25.5 46.0001L29.25 48.8126C29.4125 48.934 29.6097 48.9997 29.8125 49.0001C29.885 48.9993 29.9572 48.9914 30.0281 48.9767C30.1618 48.9439 30.2868 48.8825 30.3944 48.7967C30.5021 48.711 30.5898 48.6028 30.6516 48.4798L34.4016 40.9798C34.5121 40.7573 34.5297 40.4999 34.4506 40.2644C34.3715 40.0288 34.2021 39.8343 33.9797 39.7236Z" fill="black"/>
<path d="M9.5625 46L13.3125 48.8125C13.475 48.9338 13.6722 48.9996 13.875 49C13.9475 48.9991 14.0197 48.9913 14.0906 48.9766C14.2243 48.9438 14.3493 48.8824 14.4569 48.7966C14.5646 48.7108 14.6523 48.6027 14.7141 48.4797L18.4641 40.9797C18.5234 40.869 18.5599 40.7476 18.5714 40.6226C18.5829 40.4976 18.5692 40.3715 18.5311 40.2519C18.493 40.1323 18.4312 40.0215 18.3495 39.9263C18.2677 39.831 18.1677 39.7531 18.0553 39.6972C17.9428 39.6413 17.8203 39.6085 17.695 39.6009C17.5697 39.5932 17.4441 39.6108 17.3257 39.6526C17.2074 39.6944 17.0986 39.7595 17.0059 39.8442C16.9131 39.9288 16.8383 40.0312 16.7859 40.1453L13.5375 46.6375L10.6875 44.5C10.589 44.4261 10.4769 44.3724 10.3577 44.3418C10.2384 44.3113 10.1143 44.3045 9.99242 44.3219C9.87054 44.3393 9.75329 44.3806 9.64735 44.4433C9.54141 44.506 9.44887 44.589 9.375 44.6875C9.30113 44.786 9.24739 44.8981 9.21683 45.0173C9.18628 45.1366 9.17951 45.2607 9.19692 45.3826C9.21433 45.5045 9.25558 45.6217 9.3183 45.7276C9.38103 45.8336 9.46401 45.9261 9.5625 46V46Z" fill="black"/>
<path d="M18.0422 53.7861C17.8196 53.6756 17.5623 53.6579 17.3268 53.737C17.0912 53.8161 16.8967 53.9855 16.7859 54.2079L13.5375 60.7001L10.6875 58.5626C10.4886 58.4134 10.2386 58.3494 9.99242 58.3846C9.74628 58.4197 9.52419 58.5512 9.375 58.7501C9.22582 58.949 9.16176 59.1991 9.19693 59.4452C9.23209 59.6914 9.36359 59.9135 9.5625 60.0626L13.3125 62.8751C13.475 62.9965 13.6722 63.0622 13.875 63.0626C13.9475 63.0618 14.0197 63.0539 14.0906 63.0392C14.2243 63.0064 14.3493 62.945 14.4569 62.8592C14.5646 62.7734 14.6523 62.6653 14.7141 62.5423L18.4641 55.0423C18.5746 54.8198 18.5922 54.5624 18.5131 54.3269C18.434 54.0913 18.2646 53.8968 18.0422 53.7861Z" fill="black"/>
</svg>
