<svg width="106" height="106" viewBox="0 0 106 106" fill="none" xmlns="http://www.w3.org/2000/svg">
<path d="M99.875 43.6249H85.3016C81.7439 43.6241 78.2211 42.925 74.9328 41.5671C71.6946 40.2262 68.3461 39.1691 64.925 38.4077C65.769 37.0632 66.3763 35.584 66.7203 34.0343C67.4328 33.9171 68.1453 33.7858 68.8484 33.6499C69.055 34.1121 69.3459 34.5318 69.7062 34.8874C70.4969 35.6781 71.5693 36.1223 72.6875 36.1223C73.8057 36.1223 74.8781 35.6781 75.6688 34.8874C76.4594 34.0967 76.9036 33.0243 76.9036 31.9062C76.9036 30.788 76.4594 29.7156 75.6688 28.9249C75.5114 28.7632 75.3387 28.6172 75.1531 28.489C75.6456 26.7255 75.9998 24.9263 76.2125 23.1077C76.2404 22.8605 76.1692 22.6122 76.0146 22.4172C75.8601 22.2222 75.6346 22.0964 75.3875 22.0671C75.2953 22.0584 75.2023 22.0616 75.1109 22.0765C74.9132 22.1129 74.7323 22.2118 74.5948 22.3586C74.4573 22.5054 74.3704 22.6923 74.3469 22.8921C74.1187 24.8369 73.7218 26.7582 73.1609 28.6343C73.1562 28.639 73.1563 28.6483 73.1516 28.6577C73.1373 28.7003 73.1278 28.7443 73.1234 28.789C73.1158 28.8386 73.1127 28.8888 73.1141 28.939C73.1141 28.9846 73.1188 29.0302 73.1281 29.0749C73.1378 29.1565 73.1616 29.2358 73.1984 29.3093C73.2081 29.3371 73.2207 29.3638 73.2359 29.389C73.2535 29.4204 73.2739 29.4502 73.2969 29.478C73.3245 29.5197 73.3576 29.5576 73.3953 29.5905C73.4248 29.6237 73.4578 29.6536 73.4938 29.6796C73.4984 29.6843 73.5078 29.689 73.5125 29.6937C73.5406 29.7124 73.5734 29.7312 73.6063 29.7499C73.6266 29.7636 73.6487 29.7746 73.6719 29.7827H73.6766C73.9265 29.895 74.1537 30.0523 74.3469 30.2468C74.6059 30.5046 74.8012 30.8195 74.917 31.1662C75.0329 31.5128 75.0662 31.8818 75.0142 32.2436C74.9622 32.6054 74.8264 32.9501 74.6176 33.2501C74.4089 33.5502 74.1329 33.7973 73.8117 33.9718C73.4905 34.1463 73.133 34.2434 72.7677 34.2552C72.4023 34.2671 72.0393 34.1934 71.7074 34.0402C71.3756 33.8869 71.0842 33.6582 70.8563 33.3723C70.6285 33.0865 70.4707 32.7513 70.3953 32.3937V32.3843C70.3531 32.1702 70.2369 31.9777 70.0672 31.8405C70.0438 31.8218 70.0203 31.803 69.9922 31.7843C69.8906 31.7165 69.7765 31.6696 69.6566 31.6463C69.5367 31.6229 69.4134 31.6236 69.2937 31.6483H69.2891C68.5391 31.803 67.7797 31.9483 67.0156 32.0796C67.0484 31.714 67.0625 31.3437 67.0625 30.9687V26.9046C67.4797 25.6718 69.7953 18.1249 66.3547 12.7296C64.4188 9.69678 61.0578 7.94834 56.3656 7.53584C43.8266 6.42959 40.9766 13.9343 40.4562 15.8562C38.7135 17.0535 37.467 18.845 36.95 20.8952C36.3781 23.3843 37.0531 26.0796 38.9375 28.9108V30.9687C38.9375 31.3437 38.9516 31.714 38.9844 32.0796C38.0891 31.9249 37.175 31.7468 36.2656 31.5546C36.2535 31.5507 36.2408 31.5491 36.2281 31.5499C36.1771 31.5406 36.1253 31.5359 36.0734 31.5358C35.9662 31.5355 35.8598 31.5545 35.7594 31.5921C35.71 31.6081 35.6628 31.6302 35.6187 31.6577C35.5801 31.6767 35.5439 31.7003 35.5109 31.728C35.4603 31.7622 35.4145 31.8032 35.375 31.8499C35.347 31.8792 35.3233 31.9124 35.3047 31.9483C35.2827 31.9714 35.2652 31.9985 35.2531 32.028C35.2263 32.0668 35.2057 32.1095 35.1922 32.1546C35.1775 32.1961 35.165 32.2384 35.1547 32.2812C35.1508 32.2933 35.1492 32.306 35.15 32.3187V32.328C35.083 32.6889 34.9322 33.0289 34.7097 33.3208C34.4872 33.6127 34.1993 33.8482 33.8692 34.0085C33.539 34.1688 33.1758 34.2493 32.8089 34.2435C32.4419 34.2378 32.0815 34.1459 31.7565 33.9753C31.4315 33.8048 31.1512 33.5603 30.938 33.2616C30.7248 32.9629 30.5847 32.6183 30.529 32.2555C30.4734 31.8928 30.5037 31.522 30.6175 31.1731C30.7313 30.8242 30.9255 30.5069 31.1844 30.2468C31.4547 29.9733 31.7903 29.7733 32.1594 29.6655H32.1641C32.2844 29.629 32.396 29.5684 32.4922 29.4874C32.5147 29.4712 32.5351 29.4523 32.5531 29.4312C32.674 29.312 32.7604 29.1625 32.8034 28.9983C32.8463 28.8341 32.844 28.6614 32.7969 28.4983C32.7969 28.4937 32.7922 28.489 32.7922 28.4843C30.9969 22.4589 30.9969 16.0409 32.7922 10.0155C32.7922 10.0108 32.7969 10.0062 32.7969 10.0015C32.844 9.83844 32.8463 9.66571 32.8034 9.50152C32.7604 9.33733 32.674 9.18777 32.5531 9.06865C32.5351 9.04754 32.5147 9.02866 32.4922 9.0124C32.396 8.93146 32.2844 8.87086 32.1641 8.83428H32.1594C31.7902 8.72656 31.4547 8.52651 31.1844 8.25303C30.925 7.9945 30.7297 7.67885 30.6141 7.33132C30.4986 6.9838 30.4659 6.61405 30.5189 6.25166C30.5718 5.88927 30.7089 5.54431 30.919 5.24438C31.1292 4.94444 31.4066 4.69786 31.7292 4.52437C32.0517 4.35087 32.4104 4.25528 32.7765 4.24524C33.1426 4.2352 33.5059 4.31099 33.8375 4.46654C34.169 4.6221 34.4596 4.8531 34.6859 5.14106C34.9122 5.42903 35.0679 5.76596 35.1406 6.1249C35.1453 6.14365 35.1453 6.1624 35.15 6.18115C35.1495 6.19382 35.1511 6.20649 35.1547 6.21865C35.165 6.26145 35.1775 6.30369 35.1922 6.34521C35.2057 6.39033 35.2263 6.43304 35.2531 6.47178C35.3344 6.62959 35.462 6.7588 35.6187 6.84209C35.6627 6.86966 35.71 6.8917 35.7594 6.90771C35.8598 6.9453 35.9662 6.96435 36.0734 6.96396C36.1253 6.96393 36.1771 6.95922 36.2281 6.9499C36.2375 6.9499 36.2422 6.94521 36.2516 6.94521H36.2656C47.1498 4.64318 58.3919 4.61127 69.2891 6.85146H69.2937C69.4134 6.87617 69.5367 6.87688 69.6566 6.85354C69.7765 6.83021 69.8906 6.7833 69.9922 6.71553C70.2008 6.57689 70.3458 6.36107 70.3953 6.11553V6.10615C70.4719 5.74999 70.6304 5.41658 70.8583 5.13238C71.0862 4.84817 71.3772 4.62101 71.7082 4.46891C72.0392 4.31681 72.4011 4.24397 72.7652 4.25616C73.1293 4.26836 73.4855 4.36526 73.8056 4.53917C74.1257 4.71308 74.4009 4.95921 74.6092 5.25802C74.8176 5.55684 74.9535 5.90012 75.006 6.2606C75.0585 6.62108 75.0263 6.98885 74.9119 7.33471C74.7975 7.68057 74.604 7.99499 74.3469 8.25303C74.1521 8.4476 73.9233 8.60488 73.6719 8.71709C73.475 8.80391 73.3139 8.95584 73.2158 9.14736C73.1176 9.33888 73.0884 9.55834 73.1329 9.76888C73.1774 9.97943 73.293 10.1682 73.4603 10.3036C73.6276 10.439 73.8364 10.5127 74.0516 10.5124C74.1822 10.5113 74.3112 10.4842 74.4313 10.4327C74.8935 10.2261 75.3131 9.93524 75.6688 9.5749C76.4316 8.77797 76.852 7.7139 76.8398 6.61073C76.8275 5.50757 76.3836 4.4531 75.6032 3.67331C74.8228 2.89351 73.768 2.45044 72.6648 2.43906C71.5616 2.42767 70.4979 2.84888 69.7016 3.6124C69.3426 3.9682 69.0533 4.38789 68.8484 4.8499C58.2378 2.7801 47.3246 2.80877 36.725 4.93428C36.5138 4.43933 36.2081 3.99032 35.825 3.6124C35.4004 3.1813 34.888 2.84657 34.3227 2.63095C33.7573 2.41533 33.1521 2.32385 32.5483 2.36272C31.9444 2.40159 31.356 2.56991 30.823 2.85624C30.2899 3.14258 29.8247 3.54023 29.4589 4.02222C29.093 4.50421 28.8352 5.05926 28.7028 5.64969C28.5704 6.24012 28.5666 6.85213 28.6915 7.44417C28.8165 8.03622 29.0674 8.59445 29.4272 9.08099C29.7869 9.56752 30.2471 9.97097 30.7766 10.264C29.1687 16.1467 29.1687 22.3531 30.7766 28.2358C30.4409 28.4213 30.1332 28.6533 29.8625 28.9249C29.471 29.3164 29.1604 29.7812 28.9486 30.2927C28.7367 30.8042 28.6276 31.3525 28.6276 31.9062C28.6276 32.4598 28.7367 33.0081 28.9486 33.5196C29.1604 34.0311 29.471 34.4959 29.8625 34.8874C30.254 35.2789 30.7188 35.5895 31.2303 35.8013C31.7418 36.0132 32.2901 36.1223 32.8438 36.1223C33.3974 36.1223 33.9457 36.0132 34.4572 35.8013C34.9687 35.5895 35.4335 35.2789 35.825 34.8874C36.2081 34.5095 36.5138 34.0605 36.725 33.5655C37.5828 33.739 38.4344 33.8952 39.2797 34.0343C39.6237 35.584 40.231 37.0632 41.075 38.4077C37.6539 39.1691 34.3053 40.2262 31.0672 41.5671C27.7789 42.925 24.2561 43.6241 20.6984 43.6249H6.125C4.63354 43.6261 3.20352 44.2192 2.1489 45.2738C1.09427 46.3284 0.501241 47.7584 0.5 49.2499V104.562C0.500742 104.811 0.599752 105.049 0.775407 105.224C0.951061 105.4 1.18909 105.499 1.4375 105.5H104.562C104.811 105.499 105.049 105.4 105.225 105.224C105.4 105.049 105.499 104.811 105.5 104.562V49.2499C105.499 47.7584 104.906 46.3284 103.851 45.2738C102.796 44.2192 101.366 43.6261 99.875 43.6249V43.6249ZM33.3125 93.2749C30.3072 94.4532 27.1514 95.2043 23.9375 95.5062V82.8546C27.142 82.5721 30.2947 81.8643 33.3125 80.7499V93.2749ZM82.0625 52.8546V66.4437C78.8486 66.1418 75.6928 65.3907 72.6875 64.2124V50.7452C75.7043 51.8638 78.8573 52.5732 82.0625 52.8546V52.8546ZM9.875 68.4687H20.6984C21.1531 68.4687 21.6078 68.4593 22.0625 68.4405V81.0968C21.6078 81.1155 21.1531 81.1249 20.6984 81.1249H9.875V68.4687ZM58.625 60.3827C54.8896 59.914 51.1104 59.914 47.375 60.3827V46.803C51.1092 46.3155 54.8908 46.3155 58.625 46.803V60.3827ZM60.5 62.553C64.0319 63.1625 67.4889 64.1461 70.8125 65.4874V78.003C67.4817 76.7088 64.0257 75.7632 60.5 75.1812V62.553ZM83.9375 68.4405C84.3922 68.4593 84.8469 68.4687 85.3016 68.4687H96.125V81.1249H85.3016C84.8469 81.1249 84.3922 81.1155 83.9375 81.0968V68.4405ZM33.3125 64.2124C30.3072 65.3907 27.1514 66.1418 23.9375 66.4437V52.8546C27.142 52.5721 30.2947 51.8643 33.3125 50.7499V64.2124ZM35.1875 78.003V65.4874C38.5111 64.1461 41.9681 63.1625 45.5 62.553V75.1812C41.9743 75.7632 38.5183 76.7088 35.1875 78.003V78.003ZM53 89.0937C51.1195 89.0946 49.2409 89.212 47.375 89.4452V76.803C51.1092 76.3155 54.8908 76.3155 58.625 76.803V89.4452C56.7591 89.212 54.8805 89.0946 53 89.0937V89.0937ZM72.6875 93.2749V80.7452C75.7043 81.8638 78.8573 82.5732 82.0625 82.8546V95.5062C78.8486 95.2043 75.6928 94.4532 72.6875 93.2749V93.2749ZM40.9953 33.0546V33.0405C40.8726 32.3567 40.8114 31.6634 40.8125 30.9687V26.7499C40.9645 25.4588 41.3189 24.1996 41.8625 23.0187C43.6859 23.103 49.2969 23.4968 53.5766 25.2733C57.2449 26.8503 61.1946 27.6683 65.1875 27.678V30.9687C65.1876 31.66 65.128 32.3501 65.0094 33.0312C65.0094 33.0405 65.0047 33.0452 65.0047 33.0546V33.064C64.6929 34.8428 63.99 36.5303 62.9469 38.0046C56.3725 36.7765 49.6275 36.7765 43.0531 38.0046C42.0091 36.5274 41.3062 34.8366 40.9953 33.0546V33.0546ZM9.875 97.5312H20.6984C21.1531 97.5312 21.6078 97.5218 22.0625 97.503V103.625H9.875V97.5312ZM35.1875 94.5499C38.5111 93.2086 41.9681 92.225 45.5 91.6155V103.625H35.1875V94.5499ZM60.5 91.6155C64.0319 92.225 67.4889 93.2086 70.8125 94.5499V103.625H60.5V91.6155ZM83.9375 97.503C84.3922 97.5218 84.8469 97.5312 85.3016 97.5312H96.125V103.625H83.9375V97.503Z" fill="black"/>
<path d="M87.6875 2.375H89.6281L88.2125 6.275C88.1555 6.43291 88.142 6.6032 88.1734 6.76811C88.2047 6.93302 88.2797 7.0865 88.3906 7.2125C88.478 7.31308 88.5861 7.39362 88.7074 7.44862C88.8287 7.50363 88.9605 7.53182 89.0938 7.53125C89.1616 7.53041 89.2291 7.52255 89.2953 7.50782L93.5141 6.57032C93.7447 6.50569 93.9419 6.35523 94.0651 6.14981C94.1883 5.9444 94.2282 5.69962 94.1766 5.4657C94.125 5.23179 93.9859 5.0265 93.7877 4.89195C93.5895 4.75741 93.3474 4.70382 93.1109 4.74219L90.5609 5.30938L91.85 1.75625C91.9017 1.61472 91.9185 1.46277 91.8989 1.31336C91.8793 1.16394 91.8238 1.02148 91.7373 0.898112C91.6507 0.774742 91.5356 0.674114 91.4018 0.604798C91.268 0.535481 91.1194 0.499529 90.9688 0.500005H87.6875C87.4389 0.500005 87.2004 0.598777 87.0246 0.774592C86.8488 0.950408 86.75 1.18886 86.75 1.4375C86.75 1.68615 86.8488 1.9246 87.0246 2.10042C87.2004 2.27623 87.4389 2.375 87.6875 2.375Z" fill="black"/>
<path d="M80.6796 11.4969C80.7172 11.6526 80.7936 11.7962 80.9019 11.9143C81.0101 12.0324 81.1465 12.121 81.2984 12.1719L85.5171 13.5781C85.6124 13.6097 85.7121 13.6255 85.8125 13.625C86.0356 13.6256 86.2517 13.5466 86.4218 13.4022C86.5919 13.2577 86.705 13.0573 86.7405 12.837C86.7761 12.6167 86.732 12.3909 86.616 12.2003C86.5 12.0096 86.3198 11.8666 86.1078 11.7969L83.3281 10.8735L86.4734 7.72346C86.5988 7.59954 86.6865 7.44261 86.7263 7.27087C86.7662 7.09912 86.7565 6.91961 86.6984 6.75315C86.6396 6.58619 86.535 6.43917 86.3966 6.32891C86.2581 6.21865 86.0914 6.14961 85.9156 6.12971L81.6968 5.66096C81.4494 5.63361 81.2013 5.70566 81.007 5.86125C80.8128 6.01685 80.6882 6.24325 80.6609 6.49065C80.6335 6.73804 80.7056 6.98617 80.8612 7.18045C81.0168 7.37473 81.2432 7.49923 81.4906 7.52658L83.7687 7.77971L80.9328 10.6203C80.8191 10.7326 80.7361 10.8721 80.6918 11.0256C80.6475 11.1791 80.6433 11.3413 80.6796 11.4969V11.4969Z" fill="black"/>
<path d="M71.75 11.2812C71.5014 11.2812 71.2629 11.38 71.0871 11.5558C70.9113 11.7317 70.8125 11.9701 70.8125 12.2188C70.8125 12.4674 70.9113 12.7058 71.0871 12.8817C71.2629 13.0575 71.5014 13.1562 71.75 13.1562H76.7562L73.2641 19.7469C73.1879 19.8899 73.1501 20.0502 73.1544 20.2122C73.1586 20.3741 73.2048 20.5322 73.2884 20.671C73.372 20.8099 73.4901 20.9246 73.6312 21.0042C73.7724 21.0838 73.9317 21.1254 74.0937 21.125C74.2279 21.1245 74.3605 21.0958 74.4828 21.0406L74.6141 20.9797L79.6391 18.6969C79.7511 18.6458 79.852 18.5731 79.9359 18.483C80.0199 18.393 80.0853 18.2872 80.1284 18.1719C80.1715 18.0565 80.1914 17.9338 80.1871 17.8108C80.1827 17.6877 80.1542 17.5667 80.1031 17.4547C80.052 17.3427 79.9794 17.2418 79.8893 17.1578C79.7992 17.0739 79.6935 17.0085 79.5781 16.9654C79.4628 16.9223 79.3401 16.9023 79.217 16.9067C79.094 16.911 78.973 16.9395 78.8609 16.9906L76.2078 18.1953L79.1422 12.6594C79.2172 12.5162 79.2541 12.3562 79.2493 12.1946C79.2445 12.0331 79.1982 11.8755 79.1149 11.737C79.0315 11.5986 78.9139 11.4839 78.7734 11.4041C78.6328 11.3242 78.4741 11.2819 78.3125 11.2812H71.75Z" fill="black"/>
<path d="M56.5203 32.3468C57.3266 32.5621 58.1561 32.6786 58.9906 32.6937C61.2406 32.6937 61.7609 31.5546 61.8593 31.264C61.931 31.0386 61.9148 30.7945 61.8141 30.5806C61.7133 30.3667 61.5354 30.1987 61.3161 30.1103C61.0967 30.022 60.8521 30.0198 60.6312 30.1043C60.4103 30.1887 60.2295 30.3535 60.1249 30.5656C60.0359 30.6406 59.375 31.1281 56.9796 30.5281C56.7385 30.4672 56.483 30.5045 56.2693 30.632C56.0557 30.7595 55.9015 30.9666 55.8406 31.2078C55.7797 31.4489 55.817 31.7044 55.9445 31.9181C56.072 32.1317 56.2791 32.2859 56.5203 32.3468V32.3468Z" fill="black"/>
<path d="M49.0203 30.5281C46.6203 31.1281 45.9641 30.6406 45.875 30.5656C45.7705 30.3535 45.5896 30.1887 45.3687 30.1043C45.1478 30.0198 44.9032 30.022 44.6839 30.1103C44.4645 30.1987 44.2866 30.3667 44.1859 30.5806C44.0851 30.7945 44.069 31.0386 44.1406 31.264C44.2391 31.5546 44.7594 32.6937 47.0094 32.6937C47.8438 32.6786 48.6733 32.5621 49.4797 32.3468C49.7209 32.2859 49.928 32.1317 50.0554 31.9181C50.1829 31.7044 50.2203 31.4489 50.1594 31.2078C50.0985 30.9666 49.9442 30.7595 49.7306 30.632C49.517 30.5045 49.2615 30.4672 49.0203 30.5281Z" fill="black"/>
</svg>
