<svg width="106" height="106" viewBox="0 0 106 106" fill="none" xmlns="http://www.w3.org/2000/svg">
<path d="M97.7984 88.6578L80.0516 87.1062C79.9291 87.0938 79.8054 87.1061 79.6877 87.1423C79.57 87.1785 79.4608 87.2379 79.3665 87.317C79.2721 87.396 79.1945 87.4932 79.1383 87.6027C79.0821 87.7122 79.0483 87.8319 79.0391 87.9546L78.9594 88.8921L56.1359 86.8953L50.7547 86.4218L28.2359 84.4531L28.3203 83.5156C28.3416 83.2677 28.2638 83.0214 28.1039 82.8307C27.944 82.64 27.715 82.5205 27.4672 82.4984L26.2438 82.3906C26.2244 82.3097 26.1928 82.2322 26.15 82.1609C18.0734 68.3281 17.5297 58.2687 18.4953 52.2687C18.8826 49.7205 19.6938 47.2552 20.8953 44.975C21.3054 44.2027 21.7789 43.4658 22.3109 42.7718L48.8938 52.6015C49.0288 52.6522 49.1737 52.6708 49.3171 52.656C49.4606 52.6411 49.5986 52.5932 49.7204 52.516C49.8421 52.4387 49.9443 52.3343 50.0189 52.2109C50.0934 52.0874 50.1383 51.9484 50.15 51.8046L50.5344 47.3984C50.5499 47.2229 50.5155 47.0465 50.435 46.8898C50.3545 46.733 50.2313 46.6022 50.0797 46.5125L31.4886 35.5156L21.5042 14.0937C21.3971 13.869 21.2074 13.6943 20.9745 13.6062C20.7404 13.5229 20.4829 13.5347 20.2573 13.639L16.8594 15.2234C16.6336 15.3291 16.4585 15.5193 16.3719 15.7531C16.3295 15.8688 16.3106 15.9918 16.3162 16.115C16.3218 16.2381 16.3519 16.3589 16.4047 16.4703L21.0734 26.4828C19.3766 27.7859 15.1625 32.0328 14.2531 42.6124C14.2397 42.7559 14.2606 42.9005 14.3141 43.0343C7.32032 52.7093 5.075 61.0812 4.57813 67.0062C3.92188 74.8203 6.02188 79.9437 6.61719 81.2187C4.97964 81.6818 3.52163 82.632 2.43662 83.943C1.35162 85.2541 0.690916 86.8641 0.54219 88.5593L0.532815 88.6625C0.402418 90.1638 0.678781 91.6726 1.33287 93.0302C1.98696 94.3879 2.99462 95.5443 4.25 96.3781V104.562C4.25074 104.811 4.34975 105.049 4.52541 105.225C4.70106 105.4 4.93909 105.499 5.1875 105.5H98C98.1554 105.499 98.3083 105.461 98.4453 105.387C98.4466 105.387 98.4478 105.387 98.4486 105.386C98.4495 105.385 98.45 105.384 98.45 105.383C100.294 105.073 101.983 104.161 103.253 102.788C104.523 101.416 105.301 99.6608 105.467 97.7984C105.491 97.55 105.5 97.3062 105.5 97.0578C105.497 94.9489 104.705 92.9175 103.279 91.3631C101.854 89.8087 99.8991 88.8436 97.7984 88.6578ZM55.1277 88.6859L78.7949 90.7578L77.9745 100.1L27.2558 95.6609L28.0761 86.3187L55.1277 88.6859ZM48.3917 50.4171L22.2683 40.7562L19.3386 39.6734C20.9745 37.7468 22.8073 35.7781 24.8652 33.7718L30.2605 36.964L48.6167 47.825L48.3917 50.4171ZM2.39797 88.8265L2.40735 88.7234C2.53622 87.2815 3.14081 85.9233 4.126 84.8626C5.11119 83.8019 6.42106 83.0989 7.84953 82.864C8.19351 82.8074 8.54156 82.7792 8.89016 82.7796C9.07766 82.7796 9.26985 82.789 9.46203 82.8031L26.3698 84.2843L26.2855 85.2265L25.3058 96.4343L25.2261 97.3578L8.31828 95.8812C7.44468 95.8066 6.59579 95.5529 5.82453 95.1359C4.69865 94.5349 3.77386 93.6167 3.16478 92.4952C2.55569 91.3737 2.28907 90.0981 2.39797 88.8265V88.8265ZM103.601 97.6343C103.455 99.2684 102.703 100.789 101.493 101.897C100.283 103.005 98.7031 103.622 97.0625 103.625C96.875 103.625 96.6828 103.62 96.4906 103.602L79.6813 102.13L79.7609 101.197L80.7406 89.989L80.75 89.9046L80.825 89.0562L97.6344 90.5234C99.3677 90.6773 100.969 91.5123 102.088 92.8454C103.207 94.1784 103.751 95.9006 103.602 97.6343H103.601Z" fill="black"/>
<path d="M91.6015 67.175L88.9437 56.2438C88.9143 56.1236 88.8614 56.0104 88.7883 55.9107C88.7151 55.811 88.6229 55.7266 88.5172 55.6625C88.4125 55.5979 88.2958 55.5551 88.1742 55.5366C88.0526 55.518 87.9285 55.5242 87.8093 55.5547L85.0765 56.2203C84.8969 56.2628 84.7339 56.3574 84.6078 56.4922L83.4593 57.7344C83.4348 57.762 83.4129 57.7918 83.3937 57.8234L76.175 58.6433L76.0648 58.6625L73.6273 59.2297L71.8929 52.3625C72.2986 51.1168 72.5043 49.8148 72.5023 48.5047V46.9953C72.5279 46.9651 72.5499 46.9321 72.5679 46.8969C72.6441 46.7566 72.684 46.5995 72.684 46.4398C72.684 46.2802 72.6441 46.1231 72.5679 45.9828L70.6976 42.6078C70.5171 42.1842 70.3759 41.7448 70.2757 41.2953L74.4054 40.4422C74.5673 40.4081 74.7174 40.3322 74.8408 40.222C74.9642 40.1118 75.0565 39.9711 75.1086 39.8141L75.9898 37.0719C76.0475 36.8891 76.0492 36.6931 75.9945 36.5094C75.0148 33.3172 73.1867 28.3672 71.9117 25.475C71.9036 25.4518 71.8926 25.4297 71.8789 25.4094C71.7933 24.8949 71.5999 24.4043 71.3116 23.9697C71.0232 23.5351 70.6462 23.1663 70.2054 22.8875C69.2989 20.6076 68.9595 18.1416 69.2164 15.7016C69.2164 15.6884 69.2164 15.6753 69.2192 15.6622C69.2262 15.4852 69.2934 15.3159 69.4098 15.1824C69.5262 15.0489 69.6847 14.9592 69.859 14.9281C72.1067 14.5306 74.5198 13.3245 74.8362 10.4708L74.8503 10.3489C74.9142 9.64276 74.8667 8.93095 74.7096 8.23953C74.8972 8.21033 75.0821 8.16644 75.2628 8.10828C75.5018 8.53484 75.9659 9.80516 75.9659 13.1567C75.9659 17.9661 77.9346 21.1067 79.7628 21.9927C80.0919 22.1582 80.4539 22.2479 80.8222 22.2552C81.2127 22.2597 81.5931 22.1307 81.9003 21.8895C82.3784 21.5098 82.8753 20.7083 82.505 19.0489C82.204 17.5351 82.1723 15.98 82.4112 14.4552C82.7645 11.7684 82.6391 9.04035 82.0409 6.39734C81.6003 4.34891 80.6722 3.03172 79.2893 2.48797C77.4706 1.77078 75.469 2.68016 74.5737 3.18641C74.4231 3.13255 74.2677 3.09331 74.1096 3.06922C73.4107 2.98114 72.7022 3.12614 72.094 3.48172C70.3343 1.58281 68.1687 0.5 66.125 0.5C63.0828 0.5 59.6375 0.5 58.1703 2.67031C57.2234 4.07656 57.2843 6.12031 58.3718 8.9C57.8328 9.90781 56.9 12.6172 58.4843 17.7594C58.5894 18.1916 58.8035 18.5897 59.1064 18.9155C59.4092 19.2414 59.7906 19.484 60.214 19.6203C60.4891 19.7033 60.7751 19.7444 61.0625 19.7422C61.7779 19.7171 62.481 19.5482 63.1297 19.2453C63.1503 20.8245 63.2677 22.4008 63.4812 23.9656C62.1397 24.8525 61.0176 26.0329 60.1998 27.4176C59.382 28.8023 58.8899 30.3549 58.7609 31.9578L58.4703 37.5453C55.1656 38.2297 55.2265 39.2328 55.2453 39.5844C55.3156 40.7703 56.2578 42.0734 57.3921 43.5359L57.6828 43.9109C57.8045 44.0688 57.9519 44.205 58.1187 44.3141L57.9828 46.8547L53.7125 63.7906L53.6843 63.9955C53.5578 68.8236 52.5687 74.0886 50.6422 80.0609L49.8359 79.8359C49.1834 79.6525 48.5011 79.5996 47.8281 79.6804C47.1551 79.7613 46.5047 79.9741 45.9142 80.3068C45.3237 80.6395 44.8046 81.0856 44.3869 81.6193C43.9691 82.1531 43.6608 82.764 43.4797 83.4172C43.4461 83.536 43.4364 83.6602 43.4511 83.7828C43.4657 83.9054 43.5044 84.0239 43.5649 84.1314C43.6255 84.239 43.7067 84.3336 43.8038 84.4097C43.901 84.4858 44.0123 84.542 44.1312 84.575L50.7547 86.4219L54.9687 87.5984C55.0516 87.6189 55.1365 87.6299 55.2218 87.6313C55.4259 87.6307 55.6242 87.5635 55.7866 87.44C55.9491 87.3165 56.0667 87.1434 56.1218 86.9469L56.1359 86.8953L56.8765 84.2328C56.9274 84.0562 56.9241 83.8685 56.8672 83.6938L56.3422 82.0859C56.3325 82.0536 56.32 82.0222 56.3047 81.9922L60.7062 72.2422C60.758 72.1305 60.7852 72.009 60.7859 71.8859L60.964 65.9094L64.5687 61.9672L68.0234 66.8891C68.282 67.2596 68.6264 67.5623 69.0271 67.7712C69.4278 67.9801 69.8731 68.0892 70.325 68.0891C70.7182 68.0897 71.1068 68.005 71.464 67.8406C75.6399 65.9923 80.0047 64.6044 84.4812 63.7016L84.6781 64.5172C84.9511 65.6393 85.5928 66.6374 86.5006 67.3513C87.4083 68.0653 88.5295 68.4538 89.6843 68.4547C90.0949 68.4541 90.5039 68.4054 90.9031 68.3094C91.147 68.2501 91.3577 68.0968 91.489 67.8828C91.6188 67.6711 91.6593 67.4165 91.6015 67.175V67.175ZM72.5047 32.0797C73.1187 33.7578 73.6953 35.4266 74.1172 36.7766L73.489 38.7172L69.0593 39.6359C69.002 39.6429 68.9455 39.6555 68.8906 39.6734L64.3672 40.6063L64.2218 40.2078L63.7437 38.8906L70.6437 36.5422C70.7679 36.5093 70.884 36.4513 70.9848 36.3717C71.0856 36.292 71.169 36.1926 71.2298 36.0794C71.2905 35.9662 71.3274 35.8418 71.338 35.7137C71.3487 35.5857 71.333 35.4569 71.2918 35.3352C71.2506 35.2136 71.1848 35.1017 71.0985 35.0065C71.0123 34.9113 70.9074 34.8348 70.7904 34.7818C70.6733 34.7289 70.5467 34.7005 70.4182 34.6985C70.2898 34.6965 70.1623 34.721 70.0437 34.7703L69.1812 35.0609L68.5203 33.8938L72.5047 32.0797ZM60.7672 17.8297C60.6687 17.7969 60.439 17.7266 60.2797 17.2063C58.6812 12.0031 59.989 9.81875 60.1156 9.63125C62.6093 9.46719 65.0187 9.56094 65.8812 9.84219C65.0375 12.0641 66.4765 14.5016 66.5422 14.6094C66.6183 14.7386 66.7245 14.8474 66.8519 14.9266C66.9792 15.0058 67.1239 15.0529 67.2734 15.0641C67.3484 15.0688 67.4281 15.0781 67.5125 15.0781C67.4205 15.2061 67.3653 15.3569 67.3531 15.5141C67.1215 17.8005 67.3429 20.1102 68.0047 22.3109C67.8629 22.3101 67.7215 22.3242 67.5828 22.3531C66.7829 22.4858 66.0011 22.7107 65.2531 23.0234C65.0704 21.5055 64.9874 19.9772 65.0047 18.4484C65.0095 18.3646 65 18.2806 64.9765 18.2C65.2672 17.9984 65.4781 17.8344 65.5906 17.7453C65.6957 17.6719 65.7846 17.5778 65.8519 17.4687C65.9191 17.3596 65.9633 17.2379 65.9817 17.111C66.0001 16.9842 65.9922 16.8549 65.9587 16.7312C65.9251 16.6075 65.8666 16.492 65.7866 16.3919C65.7067 16.2917 65.607 16.209 65.4939 16.1488C65.3807 16.0887 65.2564 16.0524 65.1286 16.0421C65.0009 16.0319 64.8724 16.048 64.7511 16.0894C64.6298 16.1308 64.5183 16.1966 64.4234 16.2828C63.4437 17.0609 61.6058 18.0875 60.7672 17.8297V17.8297ZM57.2187 39.8797C57.9775 39.6104 58.7565 39.4019 59.5484 39.2563C59.6047 39.2469 59.6562 39.2375 59.7078 39.2281C59.9517 39.1898 60.1707 39.0567 60.3172 38.8578L60.8328 38.15L61.7421 38.8813L62.5906 41.2109L59.3797 42.7438C59.3495 42.7615 59.316 42.7727 59.2813 42.7767C59.2466 42.7808 59.2115 42.7775 59.1781 42.7672C59.1745 42.7667 59.1712 42.765 59.1687 42.7625L58.8734 42.3828C58.2261 41.6158 57.6707 40.7758 57.2187 39.8797V39.8797ZM45.6687 83.0563C45.964 82.5867 46.3733 82.1994 46.8585 81.9306C47.3437 81.6618 47.889 81.5201 48.4437 81.5188C48.7431 81.5201 49.041 81.5611 49.3297 81.6406L50.9515 82.0953L54.7156 83.1453V83.15L54.9968 84.0031L54.5703 85.5406L45.6687 83.0563ZM59.3468 64.9016C59.1952 65.067 59.1086 65.2819 59.1031 65.5063L58.9203 71.6422L54.6172 81.1719L52.4515 80.5672C54.3968 74.4969 55.414 69.1156 55.5547 64.1469L57.8281 55.1375C59.6474 57.1093 62.006 58.503 64.6109 59.1453L59.3468 64.9016ZM70.6953 66.1344C70.4976 66.2223 70.2753 66.2381 70.0672 66.179C69.859 66.1199 69.6782 65.9896 69.5562 65.8109L66.139 60.9406L68.3515 57.8375C68.539 57.6734 68.7171 57.5 68.8906 57.3219C68.9843 57.2281 69.0781 57.1297 69.1672 57.0313C69.2468 56.9469 69.3265 56.8531 69.4109 56.7641C69.4295 56.7434 69.4468 56.7214 69.4625 56.6984C69.5422 56.6094 69.6172 56.5203 69.6875 56.4313C69.9488 56.1149 70.1929 55.7847 70.4187 55.4422C70.4984 55.325 70.5734 55.2031 70.6484 55.0813L72.0359 60.5797C72.0974 60.8178 72.2494 61.0224 72.4595 61.1502C72.6696 61.278 72.9212 61.3189 73.1609 61.2641L76.4375 60.5L83.5062 59.6938L84.0359 61.8781C79.4477 62.8084 74.9745 64.2356 70.6953 66.1344V66.1344ZM86.5015 64.0719L86.089 62.3797L85.1796 58.6391V58.6344L85.7937 57.9734L87.3406 57.5984L89.525 66.575C88.8185 66.5394 88.1425 66.2764 87.5977 65.8254C87.0529 65.3743 86.6684 64.7592 86.5015 64.0719V64.0719Z" fill="black"/>
</svg>
