<svg width="113" height="98" viewBox="0 0 113 98" fill="none" xmlns="http://www.w3.org/2000/svg">
<path d="M110.057 9.23125L106.86 5.04531C105.719 3.5585 104.252 2.35311 102.573 1.52181C100.893 0.690503 99.045 0.255418 97.1708 0.25H92.8959C92.8055 0.250641 92.7157 0.263251 92.6287 0.2875C86.3382 2.16239 80.7959 5.96657 76.7849 11.1625L75.9412 12.25C75.8922 12.3109 75.8527 12.3789 75.824 12.4516C75.2193 13.8391 69.9787 26.1344 71.6802 30.6766C73.1849 34.6797 75.599 38.4156 77.7365 41.2422C63.3459 51.2734 70.8271 66.4281 73.3068 71.4484C73.7031 72.2401 73.9495 73.0983 74.0333 73.9797C69.7115 73.0047 63.9552 72.4656 59.7224 74.8844C53.8958 78.2125 43.6255 79.45 40.3959 79.7687V68.6969C40.3968 68.6431 40.3905 68.5895 40.3771 68.5375C40.3486 68.3452 40.258 68.1674 40.1193 68.0313L28.8646 56.7766C28.7773 56.689 28.6736 56.6194 28.5593 56.572C28.4451 56.5245 28.3227 56.5001 28.199 56.5H12.2802C12.1565 56.5001 12.0341 56.5245 11.9199 56.572C11.8056 56.6194 11.7019 56.689 11.6146 56.7766L0.359913 68.0313C0.221155 68.1674 0.130635 68.3452 0.1021 68.5375C0.0886802 68.5895 0.0823729 68.6431 0.0833504 68.6969V84.6719C0.0838846 84.9207 0.181418 85.1595 0.355225 85.3375L11.6146 96.6156C11.7019 96.7032 11.8056 96.7728 11.9199 96.8202C12.0341 96.8677 12.1565 96.8921 12.2802 96.8922H28.199C28.3227 96.8921 28.4451 96.8677 28.5593 96.8202C28.6736 96.7728 28.7773 96.7032 28.8646 96.6156L34.3771 91.0938C36.5052 91.7172 52.1662 96.2687 59.0005 97.4547C60.4916 97.6749 61.9981 97.7736 63.5052 97.75C72.3974 97.75 86.5537 95.5094 87.2709 95.3969C87.4252 95.3718 87.5708 95.3084 87.6945 95.2126C87.8181 95.1168 87.9158 94.9916 87.9787 94.8484C88.8599 92.7678 89.4848 90.5878 89.8396 88.3563C90.3505 85.6984 90.7912 83.4016 92.9099 80.3547C110.901 54.5078 106.508 36.4188 105.89 34.2531C107.01 33.1609 108.158 32.0641 109.283 31.0187C112.546 27.8734 112.583 23.4016 112.583 23.2141V16.6234C112.566 13.9504 111.679 11.3555 110.057 9.23125V9.23125ZM27.8099 58.375L38.5209 69.1047V84.2266L27.8099 94.9375H12.6693L1.95835 84.2266V69.1047L12.6693 58.375H27.8099ZM110.708 23.2141C110.708 23.2516 110.676 27.0672 107.994 29.6594C106.677 30.8781 105.332 32.1766 104.033 33.4516C99.538 37.8578 95.6334 42.0203 95.5818 42.0719C95.4115 42.2534 95.3202 42.4951 95.3281 42.7439C95.3361 42.9927 95.4425 43.2281 95.624 43.3984C95.8055 43.5688 96.0472 43.66 96.296 43.6521C96.5448 43.6442 96.7802 43.5378 96.9505 43.3562C96.9927 43.3047 100.297 39.7844 104.315 35.8C105.182 40.2297 106.968 56.875 91.3724 79.2859C89.024 82.6609 88.5271 85.2531 87.9974 88C87.6865 89.9244 87.1711 91.81 86.4599 93.625C83.2349 94.1172 65.6755 96.7094 59.3193 95.6078C53.3333 94.5672 39.974 90.7609 35.8912 89.5797L40.124 85.3375C40.2978 85.1595 40.3953 84.9207 40.3959 84.6719V81.6531C43.5459 81.3625 54.3224 80.1297 60.6552 76.5109C64.7146 74.1906 70.6677 75.0484 74.7693 76.0984C76.3469 76.5014 77.8982 77.0008 79.4146 77.5938C79.641 77.6741 79.8896 77.6645 80.1091 77.567C80.3286 77.4694 80.5023 77.2913 80.5943 77.0694C80.6863 76.8475 80.6896 76.5987 80.6036 76.3744C80.5175 76.1501 80.3486 75.9675 80.1318 75.8641C78.76 75.3149 77.3577 74.8453 75.9318 74.4578C75.9151 73.1209 75.5911 71.8058 74.9849 70.6141C70.9912 62.5281 67.0818 50.875 78.8943 42.7187C80.6802 44.9359 82.0724 46.3375 82.2037 46.4687C82.2902 46.5561 82.3932 46.6254 82.5066 46.6729C82.62 46.7203 82.7417 46.7449 82.8646 46.7453C83.1141 46.7438 83.3531 46.6445 83.5302 46.4687C83.6174 46.3817 83.6865 46.2783 83.7337 46.1645C83.7809 46.0507 83.8052 45.9287 83.8052 45.8055C83.8052 45.6823 83.7809 45.5603 83.7337 45.4465C83.6865 45.3327 83.6174 45.2293 83.5302 45.1422C83.4599 45.0719 76.424 37.9797 73.438 30.0156C72.2287 26.8 75.913 16.9703 77.4927 13.3047L78.2662 12.3109C82.0097 7.46139 87.1731 3.90063 93.0365 2.125H97.1708C98.7569 2.12948 100.321 2.49777 101.742 3.20153C103.163 3.90528 104.404 4.92574 105.369 6.18437L108.566 10.3703C109.942 12.166 110.694 14.3615 110.708 16.6234V23.2141Z" fill="black"/>
<path d="M92.1833 48.2641C92.0614 48.2819 91.9442 48.3235 91.8384 48.3866C91.7325 48.4498 91.6402 48.5331 91.5666 48.6319C91.4931 48.7308 91.4397 48.8431 91.4096 48.9626C91.3795 49.082 91.3732 49.2063 91.3911 49.3282C92.802 59.2188 86.413 68.6079 86.3474 68.7016C86.2508 68.8427 86.1946 69.0075 86.1847 69.1781C86.1748 69.3488 86.2116 69.519 86.2911 69.6703C86.3706 69.8217 86.4899 69.9485 86.6361 70.0371C86.7822 70.1258 86.9498 70.1729 87.1208 70.1735C87.2726 70.174 87.4222 70.1371 87.5563 70.066C87.6904 69.9948 87.8049 69.8917 87.8895 69.7657C88.1708 69.3625 94.7614 59.6922 93.2427 49.061C93.2078 48.8148 93.0766 48.5926 92.878 48.4432C92.6793 48.2937 92.4294 48.2293 92.1833 48.2641V48.2641Z" fill="black"/>
<path d="M23.1645 51.9202C23.3357 51.92 23.5065 51.9059 23.6754 51.8781C24.2279 51.7848 24.7412 51.5325 25.1524 51.152C25.5637 50.7715 25.8551 50.2794 25.9911 49.7359C25.9958 49.7265 25.9958 49.7218 26.0004 49.7171C27.8159 42.932 31.3235 36.7185 36.1949 31.6585C41.0664 26.5985 47.1422 22.8575 53.8536 20.7859L54.2989 22.9609C54.3765 23.2833 54.5382 23.5795 54.7676 23.819C54.997 24.0586 55.2858 24.233 55.6046 24.3245C55.9234 24.416 56.2608 24.4213 56.5823 24.3399C56.9039 24.2584 57.198 24.0931 57.4348 23.8609L65.1879 16.0327C65.5479 15.6934 65.8118 15.2651 65.953 14.791C66.0942 14.3169 66.1077 13.814 65.9921 13.333C65.8765 12.8521 65.6359 12.4102 65.2947 12.0521C64.9534 11.694 64.5237 11.4324 64.0489 11.2937L53.7692 8.25149C53.4541 8.15724 53.1196 8.1478 52.7997 8.22411C52.4797 8.30041 52.1856 8.45977 51.9469 8.68609C51.7082 8.91241 51.5334 9.19769 51.4402 9.51314C51.347 9.82859 51.3387 10.163 51.4161 10.4827L51.9551 12.728C40.2737 16.746 30.5521 25.0469 24.7536 35.9546C22.685 39.852 21.1644 44.0163 20.2348 48.3296C20.1359 48.801 20.1524 49.2893 20.283 49.7529C20.4136 50.2165 20.6544 50.6417 20.9848 50.9921C21.2644 51.2889 21.6024 51.5246 21.9775 51.6843C22.3526 51.8441 22.7568 51.9244 23.1645 51.9202V51.9202Z" fill="black"/>
<path d="M13.9442 90.9109C14.0315 90.9985 14.1352 91.0681 14.2494 91.1155C14.3637 91.163 14.4861 91.1874 14.6098 91.1875H25.8692C25.9929 91.1874 26.1153 91.163 26.2296 91.1155C26.3438 91.0681 26.4475 90.9985 26.5348 90.9109L34.4942 82.9516C34.5818 82.8643 34.6513 82.7605 34.6988 82.6463C34.7462 82.5321 34.7707 82.4096 34.7708 82.2859V71.0266C34.7707 70.9029 34.7462 70.7804 34.6988 70.6662C34.6513 70.552 34.5818 70.4482 34.4942 70.3609L26.5348 62.4016C26.4475 62.314 26.3438 62.2444 26.2296 62.197C26.1153 62.1495 25.9929 62.1251 25.8692 62.125H14.6098C14.4861 62.1251 14.3637 62.1495 14.2494 62.197C14.1352 62.2444 14.0315 62.314 13.9442 62.4016L5.98481 70.3609C5.8972 70.4482 5.82768 70.552 5.78022 70.6662C5.73276 70.7804 5.70831 70.9029 5.70825 71.0266V82.2859C5.70831 82.4096 5.73276 82.5321 5.78022 82.6463C5.82768 82.7605 5.8972 82.8643 5.98481 82.9516L13.9442 90.9109ZM14.1458 76.6562C14.1449 75.2454 14.6333 73.8779 15.5277 72.7868C16.4222 71.6957 17.6673 70.9486 19.0509 70.6727C20.4345 70.3968 21.871 70.6092 23.1155 71.2738C24.36 71.9384 25.3356 73.014 25.8759 74.3173C26.4162 75.6206 26.4878 77.0709 26.0786 78.4211C25.6694 79.7713 24.8046 80.9378 23.6316 81.7218C22.4587 82.5058 21.0502 82.8588 19.6461 82.7206C18.242 82.5825 16.9293 81.9617 15.9317 80.9641C15.3634 80.4002 14.9129 79.729 14.6063 78.9894C14.2997 78.2499 14.1431 77.4568 14.1458 76.6562V76.6562Z" fill="black"/>
</svg>
