<svg width="60" height="53" viewBox="0 0 60 53" fill="none" xmlns="http://www.w3.org/2000/svg">
<path d="M58.6526 4.79L56.9475 2.5575C56.339 1.76453 55.5568 1.12166 54.661 0.678298C53.7651 0.234935 52.7796 0.00288937 51.78 0H49.5001C49.4519 0.000342016 49.404 0.00706721 49.3575 0.02C46.0026 1.01994 43.0467 3.04884 40.9076 5.82L40.4576 6.4C40.4315 6.4325 40.4104 6.46874 40.3951 6.5075C40.0726 7.2475 37.2776 13.805 38.1851 16.2275C38.9876 18.3625 40.2751 20.355 41.4151 21.8625C33.7401 27.2125 37.7301 35.295 39.0526 37.9725C39.2639 38.3947 39.3953 38.8524 39.44 39.3225C37.135 38.8025 34.0651 38.515 31.8076 39.805C28.7001 41.58 23.2226 42.24 21.5001 42.41V36.505C21.5006 36.4763 21.4972 36.4477 21.4901 36.42C21.4748 36.3174 21.4266 36.2226 21.3526 36.15L15.3501 30.1475C15.3035 30.1008 15.2482 30.0637 15.1872 30.0384C15.1263 30.0131 15.061 30 14.9951 30H6.50505C6.43909 30 6.37377 30.0131 6.31286 30.0384C6.25194 30.0637 6.19662 30.1008 6.15005 30.1475L0.147553 36.15C0.0735484 36.2226 0.0252708 36.3174 0.0100525 36.42C0.00289509 36.4477 -0.000468837 36.4763 5.24923e-05 36.505V45.025C0.000337431 45.1577 0.0523554 45.285 0.145052 45.38L6.15005 51.395C6.19662 51.4417 6.25194 51.4788 6.31286 51.5041C6.37377 51.5294 6.43909 51.5425 6.50505 51.5425H14.9951C15.061 51.5425 15.1263 51.5294 15.1872 51.5041C15.2482 51.4788 15.3035 51.4417 15.3501 51.395L18.2901 48.45C19.4251 48.7825 27.7776 51.21 31.4226 51.8425C32.2178 51.9599 33.0213 52.0126 33.8251 52C38.5676 52 46.1176 50.805 46.5001 50.745C46.5824 50.7316 46.66 50.6978 46.726 50.6467C46.7919 50.5956 46.844 50.5289 46.8775 50.4525C47.3475 49.3428 47.6808 48.1801 47.87 46.99C48.1425 45.5725 48.3776 44.3475 49.5076 42.7225C59.1025 28.9375 56.7601 19.29 56.4301 18.135C57.0276 17.5525 57.6401 16.9675 58.2401 16.41C59.9801 14.7325 60 12.3475 60 12.2475V8.7325C59.991 7.30686 59.518 5.92293 58.6526 4.79V4.79ZM14.7876 31L20.5001 36.7225V44.7875L14.7876 50.5H6.71255L1.00005 44.7875V36.7225L6.71255 31H14.7876ZM59 12.2475C59 12.2675 58.9826 14.3025 57.5526 15.685C56.8501 16.335 56.1325 17.0275 55.44 17.7075C53.0425 20.0575 50.96 22.2775 50.9325 22.305C50.8417 22.4018 50.7931 22.5307 50.7973 22.6634C50.8015 22.7961 50.8582 22.9217 50.9551 23.0125C51.0519 23.1033 51.1808 23.152 51.3135 23.1478C51.4461 23.1436 51.5717 23.0868 51.6625 22.99C51.685 22.9625 53.4476 21.085 55.5901 18.96C56.0526 21.3225 57.0051 30.2 48.6876 42.1525C47.4351 43.9525 47.1701 45.335 46.8876 46.8C46.7217 47.8263 46.4469 48.832 46.0676 49.8C44.3476 50.0625 34.9826 51.445 31.5926 50.8575C28.4001 50.3025 21.2751 48.2725 19.0976 47.6425L21.3551 45.38C21.4477 45.285 21.4998 45.1577 21.5001 45.025V43.415C23.1801 43.26 28.9276 42.6025 32.3051 40.6725C34.4701 39.435 37.6451 39.8925 39.8326 40.4525C40.6739 40.6674 41.5013 40.9337 42.3101 41.25C42.4308 41.2929 42.5634 41.2877 42.6804 41.2357C42.7975 41.1837 42.8902 41.0887 42.9392 40.9703C42.9883 40.852 42.9901 40.7193 42.9442 40.5997C42.8983 40.4801 42.8082 40.3826 42.6926 40.3275C41.9609 40.0346 41.213 39.7842 40.4526 39.5775C40.4436 38.8645 40.2708 38.1631 39.9475 37.5275C37.8175 33.215 35.7326 27 42.0326 22.65C42.9851 23.8325 43.7276 24.58 43.7976 24.65C43.8437 24.6966 43.8986 24.7335 43.9591 24.7589C44.0196 24.7842 44.0845 24.7973 44.1501 24.7975C44.2831 24.7967 44.4106 24.7437 44.5051 24.65C44.5515 24.6036 44.5884 24.5484 44.6136 24.4877C44.6387 24.427 44.6517 24.3619 44.6517 24.2962C44.6517 24.2305 44.6387 24.1655 44.6136 24.1048C44.5884 24.0441 44.5515 23.9889 44.5051 23.9425C44.4676 23.905 40.7151 20.1225 39.1226 15.875C38.4776 14.16 40.4426 8.9175 41.2851 6.9625L41.6975 6.4325C43.6941 3.84607 46.4479 1.947 49.5751 1H51.78C52.6259 1.00239 53.46 1.19881 54.218 1.57415C54.976 1.94948 55.6379 2.49373 56.1526 3.165L57.8575 5.3975C58.5912 6.35517 58.9924 7.52611 59 8.7325V12.2475Z" fill="#F76C1E"/>
<path d="M49.12 25.6075C49.055 25.6169 48.9925 25.6392 48.9361 25.6728C48.8796 25.7065 48.8304 25.7509 48.7911 25.8036C48.7519 25.8563 48.7234 25.9163 48.7074 25.98C48.6913 26.0437 48.688 26.1099 48.6975 26.175C49.45 31.45 46.0425 36.4575 46.0075 36.5075C45.956 36.5827 45.9261 36.6706 45.9208 36.7616C45.9155 36.8526 45.9351 36.9434 45.9775 37.0241C46.0199 37.1048 46.0835 37.1725 46.1615 37.2197C46.2395 37.267 46.3288 37.2922 46.42 37.2925C46.501 37.2928 46.5808 37.2731 46.6523 37.2351C46.7238 37.1972 46.7849 37.1422 46.83 37.075C46.98 36.86 50.495 31.7025 49.685 26.0325C49.6664 25.9012 49.5965 25.7827 49.4905 25.703C49.3846 25.6233 49.2513 25.5889 49.12 25.6075Z" fill="#F76C1E"/>
<path d="M12.3101 27.5575C12.4014 27.5574 12.4925 27.5499 12.5826 27.535C12.8772 27.4853 13.151 27.3507 13.3703 27.1478C13.5897 26.9449 13.7451 26.6824 13.8176 26.3925C13.8201 26.3875 13.8201 26.385 13.8226 26.3825C14.7908 22.7638 16.6615 19.4499 19.2596 16.7513C21.8577 14.0526 25.0982 12.0574 28.6776 10.9525L28.9151 12.1125C28.9565 12.2845 29.0427 12.4424 29.1651 12.5702C29.2874 12.698 29.4414 12.791 29.6115 12.8398C29.7815 12.8886 29.9614 12.8914 30.1329 12.848C30.3044 12.8045 30.4613 12.7164 30.5876 12.5925L34.7226 8.41752C34.9145 8.23655 35.0553 8.00809 35.1306 7.75526C35.2059 7.50242 35.2131 7.23418 35.1514 6.97768C35.0898 6.72117 34.9615 6.4855 34.7795 6.29451C34.5975 6.10351 34.3683 5.96398 34.1151 5.89002L28.6326 4.26752C28.4645 4.21725 28.2861 4.21222 28.1155 4.25291C27.9449 4.29361 27.788 4.3786 27.6607 4.4993C27.5334 4.62001 27.4402 4.77216 27.3905 4.9404C27.3408 5.10864 27.3363 5.28701 27.3776 5.45752L27.6651 6.65502C21.435 8.7979 16.2501 13.2251 13.1576 19.0425C12.0543 21.1211 11.2433 23.3421 10.7476 25.6425C10.6948 25.8939 10.7036 26.1544 10.7733 26.4016C10.8429 26.6489 10.9714 26.8756 11.1476 27.0625C11.2967 27.2208 11.4769 27.3465 11.677 27.4317C11.8771 27.5169 12.0926 27.5597 12.3101 27.5575Z" fill="#F76C1E"/>
<path d="M7.3925 48.3525C7.43906 48.3992 7.49439 48.4363 7.55531 48.4616C7.61622 48.4869 7.68153 48.5 7.7475 48.5H13.7525C13.8185 48.5 13.8838 48.4869 13.9447 48.4616C14.0056 48.4363 14.0609 48.3992 14.1075 48.3525L18.3525 44.1075C18.3992 44.0609 18.4363 44.0056 18.4616 43.9447C18.4869 43.8838 18.5 43.8185 18.5 43.7525V37.7475C18.5 37.6815 18.4869 37.6162 18.4616 37.5553C18.4363 37.4944 18.3992 37.4391 18.3525 37.3925L14.1075 33.1475C14.0609 33.1008 14.0056 33.0637 13.9447 33.0384C13.8838 33.0131 13.8185 33 13.7525 33H7.7475C7.68153 33 7.61622 33.0131 7.55531 33.0384C7.49439 33.0637 7.43906 33.1008 7.3925 33.1475L3.1475 37.3925C3.10077 37.4391 3.06369 37.4944 3.03838 37.5553C3.01307 37.6162 3.00003 37.6815 3 37.7475V43.7525C3.00003 43.8185 3.01307 43.8838 3.03838 43.9447C3.06369 44.0056 3.10077 44.0609 3.1475 44.1075L7.3925 48.3525ZM7.5 40.75C7.49953 39.9975 7.76001 39.2682 8.23705 38.6863C8.71408 38.1044 9.37815 37.7059 10.1161 37.5588C10.854 37.4116 11.6201 37.5249 12.2839 37.8794C12.9476 38.2338 13.4679 38.8075 13.7561 39.5025C14.0442 40.1976 14.0824 40.9711 13.8642 41.6912C13.6459 42.4114 13.1847 43.0335 12.5591 43.4516C11.9336 43.8698 11.1824 44.058 10.4335 43.9843C9.68468 43.9107 8.98457 43.5796 8.4525 43.0475C8.14941 42.7468 7.90913 42.3888 7.74561 41.9944C7.58209 41.6 7.49861 41.177 7.5 40.75Z" fill="#F76C1E"/>
</svg>
