<svg width="368" height="101" viewBox="0 0 368 101" fill="none" xmlns="http://www.w3.org/2000/svg">
<path d="M0 4.99999C0 2.23857 2.23858 0 5 0H235.92C239.112 0 241.486 2.95027 240.804 6.06848L220.98 96.6946C220.478 98.99 218.445 100.626 216.095 100.626H5C2.23858 100.626 0 98.3876 0 95.6261V4.99999Z" fill="#F76C1E"/>
<path d="M40.1611 58.3044H27.3771V48.7341H40.1611C41.9033 48.7341 43.3159 48.4398 44.3989 47.8512C45.4819 47.2626 46.2706 46.4504 46.765 45.4145C47.2829 44.355 47.5419 43.1661 47.5419 41.8476C47.5419 40.435 47.2829 39.1284 46.765 37.9277C46.2706 36.727 45.4819 35.7617 44.3989 35.0319C43.3159 34.2785 41.9033 33.9018 40.1611 33.9018H32.0387V75.75H19.6431V24.3314H40.1611C44.2812 24.3314 47.8244 25.0848 50.7909 26.5916C53.7809 28.0983 56.0764 30.1702 57.6773 32.807C59.2783 35.4203 60.0787 38.4103 60.0787 41.777C60.0787 45.0966 59.2783 47.9924 57.6773 50.4645C56.0764 52.9365 53.7809 54.8671 50.7909 56.2561C47.8244 57.6217 44.2812 58.3044 40.1611 58.3044ZM183.688 66.215V75.75H157.696V66.215H183.688ZM162.111 24.3314V75.75H149.715V24.3314H162.111ZM195.582 24.3314L205.047 46.6505L214.546 24.3314H227.895L211.368 57.2803V75.75H198.761V57.2803L182.198 24.3314H195.582Z" fill="#0D2B54"/>
<path d="M269.313 24.3314V75.75H256.917V24.3314H269.313ZM289.301 45.7323V55.2673H265.781V45.7323H289.301ZM291.314 24.3314V33.9018H265.781V24.3314H291.314ZM313.982 24.3314V75.75H301.622V24.3314H313.982ZM350.882 24.3314V75.75H338.486V24.3314H350.882ZM366.35 24.3314V33.9018H323.372V24.3314H366.35Z" fill="#F76C1E"/>
<g clip-path="url(#clip0_1623_186)">
<path d="M116.321 50.6211C116.389 50.6211 116.447 50.5657 116.447 50.495C116.447 50.4242 116.389 50.3688 116.321 50.3688C116.25 50.3688 116.192 50.4242 116.192 50.495C116.192 50.5657 116.25 50.6211 116.321 50.6211Z" fill="#0D2B54"/>
<path d="M115.768 55.1738C115.94 55.1738 116.078 55.0354 116.078 54.8631C116.078 54.6909 115.94 54.5493 115.768 54.5493C115.595 54.5493 115.457 54.6909 115.457 54.8631C115.457 55.0354 115.595 55.1738 115.768 55.1738Z" fill="#0D2B54"/>
<path d="M114.149 59.4297C114.411 59.4297 114.626 59.2174 114.626 58.9529C114.626 58.6883 114.411 58.476 114.149 58.476C113.885 58.476 113.669 58.6883 113.669 58.9529C113.669 59.2174 113.885 59.4297 114.149 59.4297Z" fill="#0D2B54"/>
<path d="M111.559 63.1465C111.91 63.1465 112.193 62.8635 112.193 62.5159C112.193 62.1652 111.91 61.8822 111.559 61.8822C111.212 61.8822 110.929 62.1652 110.929 62.5159C110.929 62.8635 111.212 63.1465 111.559 63.1465Z" fill="#0D2B54"/>
<path d="M108.169 66.082C108.587 66.082 108.929 65.7406 108.929 65.3222C108.929 64.9038 108.587 64.5624 108.169 64.5624C107.748 64.5624 107.409 64.9038 107.409 65.3222C107.409 65.7406 107.748 66.082 108.169 66.082Z" fill="#0D2B54"/>
<path d="M104.185 67.9863C104.621 67.9863 104.972 67.6326 104.972 67.1958C104.972 66.759 104.621 66.4083 104.185 66.4083C103.748 66.4083 103.397 66.759 103.397 67.1958C103.397 67.6326 103.748 67.9863 104.185 67.9863Z" fill="#0D2B54"/>
<path d="M99.8611 68.8379C100.313 68.8379 100.679 68.4718 100.679 68.0196C100.679 67.5674 100.313 67.2014 99.8611 67.2014C99.4119 67.2014 99.0459 67.5674 99.0459 68.0196C99.0459 68.4718 99.4119 68.8379 99.8611 68.8379Z" fill="#0D2B54"/>
<path d="M95.4672 68.5703C95.9255 68.5703 96.2947 68.2012 96.2947 67.7428C96.2947 67.2875 95.9255 66.9153 95.4672 66.9153C95.0119 66.9153 94.6396 67.2875 94.6396 67.7428C94.6396 68.2012 95.0119 68.5703 95.4672 68.5703Z" fill="#0D2B54"/>
<path d="M91.2803 67.3086C91.794 67.3086 92.2062 66.8933 92.2062 66.3826C92.2062 65.872 91.794 65.4567 91.2803 65.4567C90.7696 65.4567 90.3574 65.872 90.3574 66.3826C90.3574 66.8933 90.7696 67.3086 91.2803 67.3086Z" fill="#0D2B54"/>
<path d="M87.5644 64.998C88.1027 64.998 88.5396 64.5612 88.5396 64.026C88.5396 63.4876 88.1027 63.0508 87.5644 63.0508C87.026 63.0508 86.5923 63.4876 86.5923 64.026C86.5923 64.5612 87.026 64.998 87.5644 64.998Z" fill="#0D2B54"/>
<path d="M84.5532 61.9844C85.1992 61.9844 85.7222 61.4615 85.7222 60.8155C85.7222 60.1695 85.1992 59.6465 84.5532 59.6465C83.9072 59.6465 83.3843 60.1695 83.3843 60.8155C83.3843 61.4615 83.9072 61.9844 84.5532 61.9844Z" fill="#0D2B54"/>
<path d="M82.4307 58.293C83.169 58.293 83.7657 57.6962 83.7657 56.9579C83.7657 56.2227 83.169 55.6259 82.4307 55.6259C81.6954 55.6259 81.0986 56.2227 81.0986 56.9579C81.0986 57.6962 81.6954 58.293 82.4307 58.293Z" fill="#0D2B54"/>
<path d="M81.3377 54.1855C82.159 54.1855 82.8265 53.518 82.8265 52.6935C82.8265 51.8722 82.159 51.2047 81.3377 51.2047C80.5132 51.2047 79.8457 51.8722 79.8457 52.6935C79.8457 53.518 80.5132 54.1855 81.3377 54.1855Z" fill="#0D2B54"/>
<path d="M81.3381 49.793C82.1656 49.793 82.8362 49.1223 82.8362 48.2948C82.8362 47.4642 82.1656 46.7936 81.3381 46.7936C80.5075 46.7936 79.8369 47.4642 79.8369 48.2948C79.8369 49.1223 80.5075 49.793 81.3381 49.793Z" fill="#0D2B54"/>
<path d="M82.4303 45.5586C83.2762 45.5586 83.9592 44.8726 83.9592 44.0297C83.9592 43.1838 83.2762 42.4978 82.4303 42.4978C81.5874 42.4978 80.9014 43.1838 80.9014 44.0297C80.9014 44.8726 81.5874 45.5586 82.4303 45.5586Z" fill="#0D2B54"/>
<path d="M84.5534 41.8652C85.4885 41.8652 86.2484 41.1085 86.2484 40.1733C86.2484 39.2351 85.4885 38.4783 84.5534 38.4783C83.6182 38.4783 82.8584 39.2351 82.8584 40.1733C82.8584 41.1085 83.6182 41.8652 84.5534 41.8652Z" fill="#0D2B54"/>
<path d="M87.5643 38.7832C88.5702 38.7832 89.3854 37.968 89.3854 36.9652C89.3854 35.9562 88.5702 35.1409 87.5643 35.1409C86.5583 35.1409 85.7432 35.9562 85.7432 36.9652C85.7432 37.968 86.5583 38.7832 87.5643 38.7832Z" fill="#0D2B54"/>
<path d="M91.2799 36.5039C92.3289 36.5039 93.181 35.6548 93.181 34.6058C93.181 33.5568 92.3289 32.7047 91.2799 32.7047C90.234 32.7047 89.3818 33.5568 89.3818 34.6058C89.3818 35.6548 90.234 36.5039 91.2799 36.5039Z" fill="#0D2B54"/>
<path d="M95.4668 35.1836C96.5374 35.1836 97.4048 34.313 97.4048 33.2456C97.4048 32.175 96.5374 31.3044 95.4668 31.3044C94.3963 31.3044 93.5288 32.175 93.5288 33.2456C93.5288 34.313 94.3963 35.1836 95.4668 35.1836Z" fill="#0D2B54"/>
<path d="M99.8598 34.9258C100.943 34.9258 101.819 34.0491 101.819 32.9693C101.819 31.8865 100.943 31.0097 99.8598 31.0097C98.78 31.0097 97.9033 31.8865 97.9033 32.9693C97.9033 34.0491 98.78 34.9258 99.8598 34.9258Z" fill="#0D2B54"/>
<path d="M104.186 35.7715C105.278 35.7715 106.164 34.8856 106.164 33.7935C106.164 32.7014 105.278 31.8155 104.186 31.8155C103.094 31.8155 102.208 32.7014 102.208 33.7935C102.208 34.8856 103.094 35.7715 104.186 35.7715Z" fill="#0D2B54"/>
<path d="M108.169 37.6719C109.276 37.6719 110.174 36.7736 110.174 35.6662C110.174 34.5587 109.276 33.6605 108.169 33.6605C107.061 33.6605 106.163 34.5587 106.163 35.6662C106.163 36.7736 107.061 37.6719 108.169 37.6719Z" fill="#0D2B54"/>
<path d="M111.559 40.4902C112.672 40.4902 113.577 39.5858 113.577 38.4722C113.577 37.3586 112.672 36.4573 111.559 36.4573C110.445 36.4573 109.544 37.3586 109.544 38.4722C109.544 39.5858 110.445 40.4902 111.559 40.4902Z" fill="#0D2B54"/>
<path d="M114.15 44.0801C115.279 44.0801 116.192 43.1634 116.192 42.0344C116.192 40.9054 115.279 39.9887 114.15 39.9887C113.018 39.9887 112.104 40.9054 112.104 42.0344C112.104 43.1634 113.018 44.0801 114.15 44.0801Z" fill="#0D2B54"/>
<path d="M115.768 48.2969C116.968 48.2969 117.94 47.3248 117.94 46.1251C117.94 44.9254 116.968 43.9533 115.768 43.9533C114.568 43.9533 113.596 44.9254 113.596 46.1251C113.596 47.3248 114.568 48.2969 115.768 48.2969Z" fill="#0D2B54"/>
<path d="M119.831 50.6016C119.89 50.6016 119.939 50.5524 119.939 50.4939C119.939 50.4355 119.89 50.3862 119.831 50.3862C119.773 50.3862 119.724 50.4355 119.724 50.4939C119.724 50.5524 119.773 50.6016 119.831 50.6016Z" fill="#0D2B54"/>
<path d="M119.373 55.1289C119.511 55.1289 119.625 55.0151 119.625 54.8736C119.625 54.7351 119.511 54.6213 119.373 54.6213C119.231 54.6213 119.118 54.7351 119.118 54.8736C119.118 55.0151 119.231 55.1289 119.373 55.1289Z" fill="#0D2B54"/>
<path d="M118.01 59.4648C118.231 59.4648 118.41 59.2864 118.41 59.0649C118.41 58.8434 118.231 58.6651 118.01 58.6651C117.788 58.6651 117.61 58.8434 117.61 59.0649C117.61 59.2864 117.788 59.4648 118.01 59.4648Z" fill="#0D2B54"/>
<path d="M115.807 63.418C116.103 63.418 116.342 63.178 116.342 62.8796C116.342 62.5843 116.103 62.3444 115.807 62.3444C115.512 62.3444 115.272 62.5843 115.272 62.8796C115.272 63.178 115.512 63.418 115.807 63.418Z" fill="#0D2B54"/>
<path d="M112.86 66.7676C113.199 66.7676 113.473 66.4938 113.473 66.1554C113.473 65.817 113.199 65.5402 112.86 65.5402C112.522 65.5402 112.245 65.817 112.245 66.1554C112.245 66.4938 112.522 66.7676 112.86 66.7676Z" fill="#0D2B54"/>
<path d="M109.295 69.4551C109.689 69.4551 110.006 69.1352 110.006 68.7414C110.006 68.3508 109.689 68.0308 109.295 68.0308C108.904 68.0308 108.584 68.3508 108.584 68.7414C108.584 69.1352 108.904 69.4551 109.295 69.4551Z" fill="#0D2B54"/>
<path d="M105.271 71.3047C105.696 71.3047 106.041 70.9602 106.041 70.5356C106.041 70.1111 105.696 69.7666 105.271 69.7666C104.847 69.7666 104.502 70.1111 104.502 70.5356C104.502 70.9602 104.847 71.3047 105.271 71.3047Z" fill="#0D2B54"/>
<path d="M100.961 72.2715C101.413 72.2715 101.779 71.9054 101.779 71.4532C101.779 71.001 101.413 70.6349 100.961 70.6349C100.509 70.6349 100.143 71.001 100.143 71.4532C100.143 71.9054 100.509 72.2715 100.961 72.2715Z" fill="#0D2B54"/>
<path d="M96.5565 72.2812C97.0148 72.2812 97.384 71.909 97.384 71.4537C97.384 70.9953 97.0148 70.6262 96.5565 70.6262C96.0981 70.6262 95.729 70.9953 95.729 71.4537C95.729 71.909 96.0981 72.2812 96.5565 72.2812Z" fill="#0D2B54"/>
<path d="M92.2466 71.4531C92.7542 71.4531 93.1634 71.0409 93.1634 70.5364C93.1634 70.0319 92.7542 69.6197 92.2466 69.6197C91.7421 69.6197 91.333 70.0319 91.333 70.5364C91.333 71.0409 91.7421 71.4531 92.2466 71.4531Z" fill="#0D2B54"/>
<path d="M88.2227 69.7168C88.7611 69.7168 89.1979 69.28 89.1979 68.7417C89.1979 68.2064 88.7611 67.7695 88.2227 67.7695C87.6844 67.7695 87.2476 68.2064 87.2476 68.7417C87.2476 69.28 87.6844 69.7168 88.2227 69.7168Z" fill="#0D2B54"/>
<path d="M84.6578 67.2852C85.2823 67.2852 85.7898 66.7806 85.7898 66.1561C85.7898 65.5317 85.2823 65.0241 84.6578 65.0241C84.0364 65.0241 83.5288 65.5317 83.5288 66.1561C83.5288 66.7806 84.0364 67.2852 84.6578 67.2852Z" fill="#0D2B54"/>
<path d="M81.7097 64.1289C82.3988 64.1289 82.9556 63.569 82.9556 62.8799C82.9556 62.1939 82.3988 61.6341 81.7097 61.6341C81.0206 61.6341 80.4639 62.1939 80.4639 62.8799C80.4639 63.569 81.0206 64.1289 81.7097 64.1289Z" fill="#0D2B54"/>
<path d="M79.5076 60.5078C80.3043 60.5078 80.9503 59.8617 80.9503 59.065C80.9503 58.2683 80.3043 57.6254 79.5076 57.6254C78.7108 57.6254 78.0679 58.2683 78.0679 59.065C78.0679 59.8617 78.7108 60.5078 79.5076 60.5078Z" fill="#0D2B54"/>
<path d="M78.1478 56.3262C78.9476 56.3262 79.5967 55.6771 79.5967 54.8742C79.5967 54.0744 78.9476 53.4253 78.1478 53.4253C77.3449 53.4253 76.6958 54.0744 76.6958 54.8742C76.6958 55.6771 77.3449 56.3262 78.1478 56.3262Z" fill="#0D2B54"/>
<path d="M77.6868 51.9824C78.5081 51.9824 79.1757 51.318 79.1757 50.4936C79.1757 49.6722 78.5081 49.0047 77.6868 49.0047C76.8624 49.0047 76.1948 49.6722 76.1948 50.4936C76.1948 51.318 76.8624 51.9824 77.6868 51.9824Z" fill="#0D2B54"/>
<path d="M78.1487 47.6113C78.9762 47.6113 79.6468 46.9407 79.6468 46.1132C79.6468 45.2827 78.9762 44.612 78.1487 44.612C77.3181 44.612 76.6475 45.2827 76.6475 46.1132C76.6475 46.9407 77.3181 47.6113 78.1487 47.6113Z" fill="#0D2B54"/>
<path d="M79.5087 43.5293C80.3977 43.5293 81.1144 42.8095 81.1144 41.9235C81.1144 41.0345 80.3977 40.3147 79.5087 40.3147C78.6196 40.3147 77.9028 41.0345 77.9028 41.9235C77.9028 42.8095 78.6196 43.5293 79.5087 43.5293Z" fill="#0D2B54"/>
<path d="M81.7095 39.8223C82.657 39.8223 83.423 39.0532 83.423 38.1057C83.423 37.1613 82.657 36.3922 81.7095 36.3922C80.7621 36.3922 79.9961 37.1613 79.9961 38.1057C79.9961 39.0532 80.7621 39.8223 81.7095 39.8223Z" fill="#0D2B54"/>
<path d="M84.6571 36.625C85.6476 36.625 86.4505 35.8221 86.4505 34.8315C86.4505 33.841 85.6476 33.0412 84.6571 33.0412C83.6696 33.0412 82.8667 33.841 82.8667 34.8315C82.8667 35.8221 83.6696 36.625 84.6571 36.625Z" fill="#0D2B54"/>
<path d="M88.2224 34.0762C89.2345 34.0762 90.0528 33.2548 90.0528 32.2428C90.0528 31.2338 89.2345 30.4124 88.2224 30.4124C87.2104 30.4124 86.3921 31.2338 86.3921 32.2428C86.3921 33.2548 87.2104 34.0762 88.2224 34.0762Z" fill="#0D2B54"/>
<path d="M92.2456 32.3906C93.3161 32.3906 94.1837 31.5231 94.1837 30.4526C94.1837 29.3821 93.3161 28.5146 92.2456 28.5146C91.1751 28.5146 90.3076 29.3821 90.3076 30.4526C90.3076 31.5231 91.1751 32.3906 92.2456 32.3906Z" fill="#0D2B54"/>
<path d="M96.5561 31.4844C97.6328 31.4844 98.5034 30.6138 98.5034 29.5371C98.5034 28.4635 97.6328 27.5899 96.5561 27.5899C95.4794 27.5899 94.6089 28.4635 94.6089 29.5371C94.6089 30.6138 95.4794 31.4844 96.5561 31.4844Z" fill="#0D2B54"/>
<path d="M100.961 31.4961C102.041 31.4961 102.918 30.6193 102.918 29.5365C102.918 28.4567 102.041 27.5801 100.961 27.5801C99.8816 27.5801 99.0049 28.4567 99.0049 29.5365C99.0049 30.6193 99.8816 31.4961 100.961 31.4961Z" fill="#0D2B54"/>
<path d="M105.271 32.4297C106.364 32.4297 107.249 31.5437 107.249 30.4516C107.249 29.3596 106.364 28.4736 105.271 28.4736C104.179 28.4736 103.293 29.3596 103.293 30.4516C103.293 31.5437 104.179 32.4297 105.271 32.4297Z" fill="#0D2B54"/>
<path d="M109.295 34.2402C110.4 34.2402 111.292 33.3481 111.292 32.2438C111.292 31.1425 110.4 30.2504 109.295 30.2504C108.194 30.2504 107.299 31.1425 107.299 32.2438C107.299 33.3481 108.194 34.2402 109.295 34.2402Z" fill="#0D2B54"/>
<path d="M112.86 36.8594C113.976 36.8594 114.884 35.9519 114.884 34.8321C114.884 33.7154 113.976 32.808 112.86 32.808C111.74 32.808 110.833 33.7154 110.833 34.8321C110.833 35.9519 111.74 36.8594 112.86 36.8594Z" fill="#0D2B54"/>
<path d="M115.808 40.1602C116.943 40.1602 117.863 39.2404 117.863 38.1053C117.863 36.9732 116.943 36.0504 115.808 36.0504C114.673 36.0504 113.753 36.9732 113.753 38.1053C113.753 39.2404 114.673 40.1602 115.808 40.1602Z" fill="#0D2B54"/>
<path d="M118.01 43.998C119.155 43.998 120.084 43.069 120.084 41.9247C120.084 40.7772 119.155 39.8482 118.01 39.8482C116.866 39.8482 115.937 40.7772 115.937 41.9247C115.937 43.069 116.866 43.998 118.01 43.998Z" fill="#0D2B54"/>
<path d="M119.372 48.2949C120.575 48.2949 121.553 47.3167 121.553 46.1139C121.553 44.908 120.575 43.9329 119.372 43.9329C118.166 43.9329 117.188 44.908 117.188 46.1139C117.188 47.3167 118.166 48.2949 119.372 48.2949Z" fill="#0D2B54"/>
<path d="M123.345 50.5801C123.394 50.5801 123.43 50.5433 123.43 50.4943C123.43 50.4452 123.394 50.4054 123.345 50.4054C123.296 50.4054 123.259 50.4452 123.259 50.4943C123.259 50.5433 123.296 50.5801 123.345 50.5801Z" fill="#0D2B54"/>
<path d="M122.95 55.0996C123.067 55.0996 123.162 55.0043 123.162 54.8843C123.162 54.7643 123.067 54.669 122.95 54.669C122.83 54.669 122.734 54.7643 122.734 54.8843C122.734 55.0043 122.83 55.0996 122.95 55.0996Z" fill="#0D2B54"/>
<path d="M121.775 59.4727C121.966 59.4727 122.117 59.3189 122.117 59.1312C122.117 58.9436 121.966 58.7897 121.775 58.7897C121.588 58.7897 121.437 58.9436 121.437 59.1312C121.437 59.3189 121.588 59.4727 121.775 59.4727Z" fill="#0D2B54"/>
<path d="M119.864 63.543C120.104 63.543 120.301 63.3461 120.301 63.1031C120.301 62.8601 120.104 62.6663 119.864 62.6663C119.621 62.6663 119.424 62.8601 119.424 63.1031C119.424 63.3461 119.621 63.543 119.864 63.543Z" fill="#0D2B54"/>
<path d="M117.271 67.2344C117.585 67.2344 117.837 66.9822 117.837 66.6684C117.837 66.3577 117.585 66.1054 117.271 66.1054C116.961 66.1054 116.708 66.3577 116.708 66.6684C116.708 66.9822 116.961 67.2344 117.271 67.2344Z" fill="#0D2B54"/>
<path d="M114.087 70.3984C114.463 70.3984 114.77 70.0939 114.77 69.7155C114.77 69.3402 114.463 69.0357 114.087 69.0357C113.709 69.0357 113.404 69.3402 113.404 69.7155C113.404 70.0939 113.709 70.3984 114.087 70.3984Z" fill="#0D2B54"/>
<path d="M110.408 72.9141C110.833 72.9141 111.177 72.5695 111.177 72.145C111.177 71.7174 110.833 71.3729 110.408 71.3729C109.984 71.3729 109.639 71.7174 109.639 72.145C109.639 72.5695 109.984 72.9141 110.408 72.9141Z" fill="#0D2B54"/>
<path d="M106.357 74.6465C106.781 74.6465 107.126 74.3019 107.126 73.8774C107.126 73.4529 106.781 73.1084 106.357 73.1084C105.932 73.1084 105.588 73.4529 105.588 73.8774C105.588 74.3019 105.932 74.6465 106.357 74.6465Z" fill="#0D2B54"/>
<path d="M102.061 75.6543C102.5 75.6543 102.857 75.2974 102.857 74.8575C102.857 74.4146 102.5 74.0577 102.061 74.0577C101.618 74.0577 101.261 74.4146 101.261 74.8575C101.261 75.2974 101.618 75.6543 102.061 75.6543Z" fill="#0D2B54"/>
<path d="M97.6573 75.8828C98.1125 75.8828 98.4848 75.5105 98.4848 75.0553C98.4848 74.5969 98.1125 74.2278 97.6573 74.2278C97.1989 74.2278 96.8267 74.5969 96.8267 75.0553C96.8267 75.5105 97.1989 75.8828 97.6573 75.8828Z" fill="#0D2B54"/>
<path d="M93.2899 75.3203C93.7605 75.3203 94.1451 74.9358 94.1451 74.462C94.1451 73.9914 93.7605 73.6068 93.2899 73.6068C92.8161 73.6068 92.4316 73.9914 92.4316 74.462C92.4316 74.9358 92.8161 75.3203 93.2899 75.3203Z" fill="#0D2B54"/>
<path d="M89.0962 74.0547C89.6222 74.0547 90.0499 73.6271 90.0499 73.1011C90.0499 72.572 89.6222 72.1474 89.0962 72.1474C88.5702 72.1474 88.1426 72.572 88.1426 73.1011C88.1426 73.6271 88.5702 74.0547 89.0962 74.0547Z" fill="#0D2B54"/>
<path d="M85.2147 71.9844C85.7531 71.9844 86.1899 71.5507 86.1899 71.0123C86.1899 70.474 85.7531 70.0372 85.2147 70.0372C84.6795 70.0372 84.2427 70.474 84.2427 71.0123C84.2427 71.5507 84.6795 71.9844 85.2147 71.9844Z" fill="#0D2B54"/>
<path d="M81.7687 69.373C82.3809 69.373 82.8792 68.8778 82.8792 68.2626C82.8792 67.6504 82.3809 67.1551 81.7687 67.1551C81.1565 67.1551 80.6582 67.6504 80.6582 68.2626C80.6582 68.8778 81.1565 69.373 81.7687 69.373Z" fill="#0D2B54"/>
<path d="M78.8674 66.1914C79.5565 66.1914 80.1164 65.6315 80.1164 64.9424C80.1164 64.2564 79.5565 63.6966 78.8674 63.6966C78.1814 63.6966 77.6216 64.2564 77.6216 64.9424C77.6216 65.6315 78.1814 66.1914 78.8674 66.1914Z" fill="#0D2B54"/>
<path d="M76.6105 62.4941C77.3457 62.4941 77.9425 61.8973 77.9425 61.1621C77.9425 60.4238 77.3457 59.827 76.6105 59.827C75.8722 59.827 75.2754 60.4238 75.2754 61.1621C75.2754 61.8973 75.8722 62.4941 76.6105 62.4941Z" fill="#0D2B54"/>
<path d="M75.0599 58.4863C75.8628 58.4863 76.5119 57.8373 76.5119 57.0344C76.5119 56.2345 75.8628 55.5824 75.0599 55.5824C74.2601 55.5824 73.6079 56.2345 73.6079 57.0344C73.6079 57.8373 74.2601 58.4863 75.0599 58.4863Z" fill="#0D2B54"/>
<path d="M74.2726 54.1895C75.097 54.1895 75.7645 53.5219 75.7645 52.6975C75.7645 51.8761 75.097 51.2086 74.2726 51.2086C73.4512 51.2086 72.7837 51.8761 72.7837 52.6975C72.7837 53.5219 73.4512 54.1895 74.2726 54.1895Z" fill="#0D2B54"/>
<path d="M74.2725 49.7891C75.1 49.7891 75.7737 49.1184 75.7737 48.2909C75.7737 47.4603 75.1 46.7897 74.2725 46.7897C73.445 46.7897 72.7744 47.4603 72.7744 48.2909C72.7744 49.1184 73.445 49.7891 74.2725 49.7891Z" fill="#0D2B54"/>
<path d="M75.0591 45.4844C75.9051 45.4844 76.5881 44.7984 76.5881 43.9555C76.5881 43.1095 75.9051 42.4266 75.0591 42.4266C74.2163 42.4266 73.5303 43.1095 73.5303 43.9555C73.5303 44.7984 74.2163 45.4844 75.0591 45.4844Z" fill="#0D2B54"/>
<path d="M76.6103 41.4355C77.4963 41.4355 78.2161 40.7157 78.2161 39.8267C78.2161 38.9407 77.4963 38.2208 76.6103 38.2208C75.7213 38.2208 75.0015 38.9407 75.0015 39.8267C75.0015 40.7157 75.7213 41.4355 76.6103 41.4355Z" fill="#0D2B54"/>
<path d="M78.8683 37.709C79.7881 37.709 80.5356 36.9615 80.5356 36.0417C80.5356 35.1219 79.7881 34.3774 78.8683 34.3774C77.9485 34.3774 77.2041 35.1219 77.2041 36.0417C77.2041 36.9615 77.9485 37.709 78.8683 37.709Z" fill="#0D2B54"/>
<path d="M81.769 34.457C82.7257 34.457 83.504 33.6819 83.504 32.7221C83.504 31.7654 82.7257 30.9901 81.769 30.9901C80.8123 30.9901 80.0371 31.7654 80.0371 32.7221C80.0371 33.6819 80.8123 34.457 81.769 34.457Z" fill="#0D2B54"/>
<path d="M85.2146 31.8066C86.2267 31.8066 87.045 30.9884 87.045 29.9763C87.045 28.9642 86.2267 28.1459 85.2146 28.1459C84.2056 28.1459 83.3843 28.9642 83.3843 29.9763C83.3843 30.9884 84.2056 31.8066 85.2146 31.8066Z" fill="#0D2B54"/>
<path d="M89.0972 29.7852C90.1462 29.7852 90.9953 28.9361 90.9953 27.8871C90.9953 26.8382 90.1462 25.9891 89.0972 25.9891C88.0482 25.9891 87.1992 26.8382 87.1992 27.8871C87.1992 28.9361 88.0482 29.7852 89.0972 29.7852Z" fill="#0D2B54"/>
<path d="M93.2891 28.4609C94.3596 28.4609 95.2271 27.5935 95.2271 26.523C95.2271 25.4524 94.3596 24.5849 93.2891 24.5849C92.2185 24.5849 91.3511 25.4524 91.3511 26.523C91.3511 27.5935 92.2185 28.4609 93.2891 28.4609Z" fill="#0D2B54"/>
<path d="M97.6579 27.8809C98.7315 27.8809 99.6051 27.0103 99.6051 25.9336C99.6051 24.8569 98.7315 23.9864 97.6579 23.9864C96.5812 23.9864 95.7075 24.8569 95.7075 25.9336C95.7075 27.0103 96.5812 27.8809 97.6579 27.8809Z" fill="#0D2B54"/>
<path d="M102.059 28.0996C103.145 28.0996 104.025 27.2198 104.025 26.1309C104.025 25.0449 103.145 24.1651 102.059 24.1651C100.973 24.1651 100.09 25.0449 100.09 26.1309C100.09 27.2198 100.973 28.0996 102.059 28.0996Z" fill="#0D2B54"/>
<path d="M106.357 29.0898C107.449 29.0898 108.332 28.2039 108.332 27.1119C108.332 26.0198 107.449 25.1369 106.357 25.1369C105.265 25.1369 104.379 26.0198 104.379 27.1119C104.379 28.2039 105.265 29.0898 106.357 29.0898Z" fill="#0D2B54"/>
<path d="M110.408 30.8398C111.512 30.8398 112.405 29.9477 112.405 28.8434C112.405 27.7421 111.512 26.8469 110.408 26.8469C109.307 26.8469 108.412 27.7421 108.412 28.8434C108.412 29.9477 109.307 30.8398 110.408 30.8398Z" fill="#0D2B54"/>
<path d="M114.088 33.2891C115.202 33.2891 116.103 32.3877 116.103 31.2741C116.103 30.1605 115.202 29.2561 114.088 29.2561C112.975 29.2561 112.073 30.1605 112.073 31.2741C112.073 32.3877 112.975 33.2891 114.088 33.2891Z" fill="#0D2B54"/>
<path d="M117.272 36.3438C118.391 36.3438 119.299 35.4362 119.299 34.3196C119.299 33.1998 118.391 32.2924 117.272 32.2924C116.155 32.2924 115.248 33.1998 115.248 34.3196C115.248 35.4362 116.155 36.3438 117.272 36.3438Z" fill="#0D2B54"/>
<path d="M119.864 39.9668C121.015 39.9668 121.947 39.0347 121.947 37.8842C121.947 36.7337 121.015 35.7985 119.864 35.7985C118.714 35.7985 117.779 36.7337 117.779 37.8842C117.779 39.0347 118.714 39.9668 119.864 39.9668Z" fill="#0D2B54"/>
<path d="M121.775 43.9609C122.938 43.9609 123.879 43.0165 123.879 41.8568C123.879 40.694 122.938 39.7527 121.775 39.7527C120.615 39.7527 119.671 40.694 119.671 41.8568C119.671 43.0165 120.615 43.9609 121.775 43.9609Z" fill="#0D2B54"/>
<path d="M122.951 48.2949C124.16 48.2949 125.141 47.3136 125.141 46.1047C125.141 44.8927 124.16 43.9144 122.951 43.9144C121.739 43.9144 120.757 44.8927 120.757 46.1047C120.757 47.3136 121.739 48.2949 122.951 48.2949Z" fill="#0D2B54"/>
<path d="M126.509 54.9766C126.558 54.9766 126.598 54.9367 126.598 54.8907C126.598 54.8417 126.558 54.8018 126.509 54.8018C126.46 54.8018 126.423 54.8417 126.423 54.8907C126.423 54.9367 126.46 54.9766 126.509 54.9766Z" fill="#0D2B54"/>
<path d="M125.483 59.5078C125.664 59.5078 125.812 59.3601 125.812 59.1756C125.812 58.9941 125.664 58.8464 125.483 58.8464C125.298 58.8464 125.15 58.9941 125.15 59.1756C125.15 59.3601 125.298 59.5078 125.483 59.5078Z" fill="#0D2B54"/>
<path d="M123.794 63.5703C123.972 63.5703 124.117 63.4257 124.117 63.2504C124.117 63.072 123.972 62.9274 123.794 62.9274C123.615 62.9274 123.474 63.072 123.474 63.2504C123.474 63.4257 123.615 63.5703 123.794 63.5703Z" fill="#0D2B54"/>
<path d="M121.489 67.4473C121.732 67.4473 121.929 67.2504 121.929 67.0105C121.929 66.7674 121.732 66.5706 121.489 66.5706C121.249 66.5706 121.052 66.7674 121.052 67.0105C121.052 67.2504 121.249 67.4473 121.489 67.4473Z" fill="#0D2B54"/>
<path d="M118.628 70.9941C118.976 70.9941 119.259 70.7112 119.259 70.3605C119.259 70.0129 118.976 69.7299 118.628 69.7299C118.278 69.7299 117.995 70.0129 117.995 70.3605C117.995 70.7112 118.278 70.9941 118.628 70.9941Z" fill="#0D2B54"/>
<path d="M115.275 73.918C115.657 73.918 115.964 73.6073 115.964 73.2258C115.964 72.8444 115.657 72.5337 115.275 72.5337C114.891 72.5337 114.583 72.8444 114.583 73.2258C114.583 73.6073 114.891 73.918 115.275 73.918Z" fill="#0D2B54"/>
<path d="M111.516 76.2969C111.941 76.2969 112.285 75.9523 112.285 75.5278C112.285 75.1033 111.941 74.7588 111.516 74.7588C111.092 74.7588 110.747 75.1033 110.747 75.5278C110.747 75.9523 111.092 76.2969 111.516 76.2969Z" fill="#0D2B54"/>
<path d="M107.443 77.9961C107.871 77.9961 108.222 77.6454 108.222 77.2178C108.222 76.7871 107.871 76.4365 107.443 76.4365C107.013 76.4365 106.662 76.7871 106.662 77.2178C106.662 77.6454 107.013 77.9961 107.443 77.9961Z" fill="#0D2B54"/>
<path d="M103.154 79.0625C103.606 79.0625 103.972 78.6965 103.972 78.2443C103.972 77.792 103.606 77.426 103.154 77.426C102.702 77.426 102.336 77.792 102.336 78.2443C102.336 78.6965 102.702 79.0625 103.154 79.0625Z" fill="#0D2B54"/>
<path d="M98.7582 79.4102C99.2104 79.4102 99.5765 79.044 99.5765 78.5918C99.5765 78.1396 99.2104 77.7736 98.7582 77.7736C98.306 77.7736 97.9399 78.1396 97.9399 78.5918C97.9399 79.044 98.306 79.4102 98.7582 79.4102Z" fill="#0D2B54"/>
<path d="M94.3631 79.0723C94.8215 79.0723 95.1907 78.7031 95.1907 78.2448C95.1907 77.7895 94.8215 77.4173 94.3631 77.4173C93.9078 77.4173 93.5356 77.7895 93.5356 78.2448C93.5356 78.7031 93.9078 79.0723 94.3631 79.0723Z" fill="#0D2B54"/>
<path d="M90.0774 78.1211C90.5758 78.1211 90.9818 77.715 90.9818 77.2166C90.9818 76.7152 90.5758 76.3092 90.0774 76.3092C89.576 76.3092 89.1699 76.7152 89.1699 77.2166C89.1699 77.715 89.576 78.1211 90.0774 78.1211Z" fill="#0D2B54"/>
<path d="M86.0055 76.5039C86.5407 76.5039 86.9775 76.067 86.9775 75.5287C86.9775 74.9904 86.5407 74.5566 86.0055 74.5566C85.4671 74.5566 85.0303 74.9904 85.0303 75.5287C85.0303 76.067 85.4671 76.5039 86.0055 76.5039Z" fill="#0D2B54"/>
<path d="M82.243 74.2773C82.8244 74.2773 83.295 73.8066 83.295 73.2252C83.295 72.6438 82.8244 72.1732 82.243 72.1732C81.6647 72.1732 81.1909 72.6438 81.1909 73.2252C81.1909 73.8066 81.6647 74.2773 82.243 74.2773Z" fill="#0D2B54"/>
<path d="M78.8921 71.5293C79.5351 71.5293 80.058 71.0064 80.058 70.3604C80.058 69.7175 79.5351 69.1914 78.8921 69.1914C78.2461 69.1914 77.7231 69.7175 77.7231 70.3604C77.7231 71.0064 78.2461 71.5293 78.8921 71.5293Z" fill="#0D2B54"/>
<path d="M76.0289 68.3438C76.7641 68.3438 77.364 67.7469 77.364 67.0117C77.364 66.2734 76.7641 65.6766 76.0289 65.6766C75.2906 65.6766 74.6938 66.2734 74.6938 67.0117C74.6938 67.7469 75.2906 68.3438 76.0289 68.3438Z" fill="#0D2B54"/>
<path d="M73.7242 64.582C74.4595 64.582 75.0593 63.9852 75.0593 63.25C75.0593 62.5117 74.4595 61.9149 73.7242 61.9149C72.9859 61.9149 72.3892 62.5117 72.3892 63.25C72.3892 63.9852 72.9859 64.582 73.7242 64.582Z" fill="#0D2B54"/>
<path d="M72.0353 60.627C72.8382 60.627 73.4873 59.9779 73.4873 59.175C73.4873 58.3752 72.8382 57.7261 72.0353 57.7261C71.2355 57.7261 70.5864 58.3752 70.5864 59.175C70.5864 59.9779 71.2355 60.627 72.0353 60.627Z" fill="#0D2B54"/>
<path d="M71.0082 56.3398C71.808 56.3398 72.4601 55.6908 72.4601 54.891C72.4601 54.0881 71.808 53.439 71.0082 53.439C70.2053 53.439 69.5562 54.0881 69.5562 54.891C69.5562 55.6908 70.2053 56.3398 71.0082 56.3398Z" fill="#0D2B54"/>
<path d="M70.6603 51.9727C71.4786 51.9727 72.1431 51.3112 72.1431 50.493C72.1431 49.6747 71.4786 49.0133 70.6603 49.0133C69.8451 49.0133 69.1807 49.6747 69.1807 50.493C69.1807 51.3112 69.8451 51.9727 70.6603 51.9727Z" fill="#0D2B54"/>
<path d="M71.009 47.5996C71.8365 47.5996 72.5071 46.926 72.5071 46.0984C72.5071 45.2709 71.8365 44.6003 71.009 44.6003C70.1815 44.6003 69.5078 45.2709 69.5078 46.0984C69.5078 46.926 70.1815 47.5996 71.009 47.5996Z" fill="#0D2B54"/>
<path d="M72.0352 43.3516C72.8873 43.3516 73.5764 42.6625 73.5764 41.8104C73.5764 40.9613 72.8873 40.2723 72.0352 40.2723C71.1861 40.2723 70.4971 40.9613 70.4971 41.8104C70.4971 42.6625 71.1861 43.3516 72.0352 43.3516Z" fill="#0D2B54"/>
<path d="M73.7246 39.3457C74.6105 39.3457 75.3304 38.6259 75.3304 37.7368C75.3304 36.8509 74.6105 36.1311 73.7246 36.1311C72.8356 36.1311 72.1157 36.8509 72.1157 37.7368C72.1157 38.6259 72.8356 39.3457 73.7246 39.3457Z" fill="#0D2B54"/>
<path d="M76.0287 35.6055C76.927 35.6055 77.656 34.8765 77.656 33.9782C77.656 33.0799 76.927 32.354 76.0287 32.354C75.1304 32.354 74.4014 33.0799 74.4014 33.9782C74.4014 34.8765 75.1304 35.6055 76.0287 35.6055Z" fill="#0D2B54"/>
<path d="M78.8932 32.3594C79.8499 32.3594 80.6251 31.5841 80.6251 30.6243C80.6251 29.6676 79.8499 28.8925 78.8932 28.8925C77.9334 28.8925 77.1582 29.6676 77.1582 30.6243C77.1582 31.5841 77.9334 32.3594 78.8932 32.3594Z" fill="#0D2B54"/>
<path d="M82.2429 29.5762C83.2458 29.5762 84.0548 28.764 84.0548 27.7642C84.0548 26.7614 83.2458 25.9524 82.2429 25.9524C81.2431 25.9524 80.4341 26.7614 80.4341 27.7642C80.4341 28.764 81.2431 29.5762 82.2429 29.5762Z" fill="#0D2B54"/>
<path d="M86.0047 27.3164C87.0291 27.3164 87.8627 26.4858 87.8627 25.4584C87.8627 24.4309 87.0291 23.5973 86.0047 23.5973C84.9772 23.5973 84.1436 24.4309 84.1436 25.4584C84.1436 26.4858 84.9772 27.3164 86.0047 27.3164Z" fill="#0D2B54"/>
<path d="M90.0774 25.6719C91.1233 25.6719 91.9754 24.8197 91.9754 23.7707C91.9754 22.7217 91.1233 21.8727 90.0774 21.8727C89.0284 21.8727 88.1763 22.7217 88.1763 23.7707C88.1763 24.8197 89.0284 25.6719 90.0774 25.6719Z" fill="#0D2B54"/>
<path d="M94.3628 24.6914C95.4394 24.6914 96.31 23.8178 96.31 22.7442C96.31 21.6675 95.4394 20.7969 94.3628 20.7969C93.2892 20.7969 92.4155 21.6675 92.4155 22.7442C92.4155 23.8178 93.2892 24.6914 94.3628 24.6914Z" fill="#0D2B54"/>
<path d="M98.7587 24.3555C99.8416 24.3555 100.715 23.4787 100.715 22.3959C100.715 21.3161 99.8416 20.4394 98.7587 20.4394C97.679 20.4394 96.8022 21.3161 96.8022 22.3959C96.8022 23.4787 97.679 24.3555 98.7587 24.3555Z" fill="#0D2B54"/>
<path d="M103.155 24.6992C104.234 24.6992 105.111 23.8225 105.111 22.7428C105.111 21.6599 104.234 20.7832 103.155 20.7832C102.072 20.7832 101.198 21.6599 101.198 22.7428C101.198 23.8225 102.072 24.6992 103.155 24.6992Z" fill="#0D2B54"/>
<path d="M107.443 25.7402C108.529 25.7402 109.409 24.8573 109.409 23.7714C109.409 22.6855 108.529 21.8057 107.443 21.8057C106.354 21.8057 105.475 22.6855 105.475 23.7714C105.475 24.8573 106.354 25.7402 107.443 25.7402Z" fill="#0D2B54"/>
<path d="M111.516 27.4375C112.608 27.4375 113.491 26.5515 113.491 25.4594C113.491 24.3674 112.608 23.4814 111.516 23.4814C110.424 23.4814 109.538 24.3674 109.538 25.4594C109.538 26.5515 110.424 27.4375 111.516 27.4375Z" fill="#0D2B54"/>
<path d="M115.275 29.7695C116.382 29.7695 117.281 28.8713 117.281 27.7638C117.281 26.6533 116.382 25.7551 115.275 25.7551C114.167 25.7551 113.266 26.6533 113.266 27.7638C113.266 28.8713 114.167 29.7695 115.275 29.7695Z" fill="#0D2B54"/>
<path d="M118.628 32.6523C119.744 32.6523 120.652 31.7448 120.652 30.6251C120.652 29.5084 119.744 28.601 118.628 28.601C117.508 28.601 116.601 29.5084 116.601 30.6251C116.601 31.7448 117.508 32.6523 118.628 32.6523Z" fill="#0D2B54"/>
<path d="M121.489 36.0234C122.621 36.0234 123.535 35.1068 123.535 33.9778C123.535 32.8488 122.621 31.932 121.489 31.932C120.36 31.932 119.446 32.8488 119.446 33.9778C119.446 35.1068 120.36 36.0234 121.489 36.0234Z" fill="#0D2B54"/>
<path d="M123.794 39.8418C124.956 39.8418 125.898 38.9005 125.898 37.7377C125.898 36.578 124.956 35.6335 123.794 35.6335C122.634 35.6335 121.689 36.578 121.689 37.7377C121.689 38.9005 122.634 39.8418 123.794 39.8418Z" fill="#0D2B54"/>
<path d="M125.482 43.9629C126.669 43.9629 127.632 43 127.632 41.8095C127.632 40.6221 126.669 39.6593 125.482 39.6593C124.291 39.6593 123.329 40.6221 123.329 41.8095C123.329 43 124.291 43.9629 125.482 43.9629Z" fill="#0D2B54"/>
<path d="M126.509 48.3086C127.731 48.3086 128.721 47.3181 128.721 46.0968C128.721 44.8755 127.731 43.885 126.509 43.885C125.288 43.885 124.301 44.8755 124.301 46.0968C124.301 47.3181 125.288 48.3086 126.509 48.3086Z" fill="#0D2B54"/>
<path d="M128.928 50.3687C128.928 54.5063 125.571 57.8594 121.437 57.8594C117.299 57.8594 113.946 54.5063 113.946 50.3687C113.946 46.2312 117.299 42.8782 121.437 42.8782C125.571 42.8782 128.928 46.2312 128.928 50.3687Z" fill="#0D2B54"/>
</g>
<defs>
<clipPath id="clip0_1623_186">
<rect x="69.1807" y="20.4395" width="59.7468" height="58.9712" rx="5" fill="white"/>
</clipPath>
</defs>
</svg>
